<svg width="9" height="64" viewBox="0 0 9 64" fill="none" xmlns="http://www.w3.org/2000/svg">
<path d="M3.49987 50.9697L3.49987 60.9697L1.19987 58.0697C0.99987 57.7697 0.599871 57.7697 0.29987 57.9697C0.0998707 58.0697 -0.000130653 58.2697 -0.000130653 58.4697C-0.000130653 58.5697 -0.000130653 58.7697 0.0998697 58.8697L4.09987 63.9697L8.09987 58.8697C8.29987 58.5697 8.29987 58.1697 7.99987 57.9697C7.69987 57.7697 7.29987 57.7697 7.09987 58.0697L4.79987 60.9697V50.9697C4.79987 50.5697 4.49987 50.2697 4.09987 50.2697C3.69987 50.2697 3.49987 50.6697 3.49987 50.9697Z" fill="#A2A1A9"/>
<path d="M5.00892 13L5.00892 2.99995L7.30892 5.89995C7.50892 6.19995 7.90892 6.19995 8.20892 5.99995C8.40892 5.89995 8.50892 5.69995 8.50892 5.49995C8.50892 5.39995 8.50892 5.19995 8.40892 5.09995L4.40892 -4.86374e-05L0.408919 5.09995C0.208919 5.39995 0.208919 5.79995 0.508919 5.99995C0.808919 6.19995 1.20892 6.19995 1.40892 5.89995L3.70892 2.99995L3.70892 13C3.70892 13.4 4.00892 13.7 4.40892 13.7C4.80892 13.7 5.00892 13.3 5.00892 13Z" fill="#A2A1A9"/>
<g opacity="0.5">
<rect x="3.66943" y="21" width="1.3" height="4" rx="0.65" fill="#A2A1A9"/>
<rect x="3.66943" y="27" width="1.3" height="4" rx="0.65" fill="#A2A1A9"/>
<rect x="3.66943" y="33" width="1.3" height="4" rx="0.65" fill="#A2A1A9"/>
<rect x="3.66943" y="39" width="1.3" height="4" rx="0.65" fill="#A2A1A9"/>
</g>
</svg>
