<svg width="624" height="482" viewBox="0 0 624 482" fill="none" xmlns="http://www.w3.org/2000/svg">
<rect width="624" height="482" rx="20" fill="#1C1C1C"/>
<rect x="0.15" y="0.15" width="623.7" height="481.7" rx="19.85" stroke="#5D17CE" stroke-opacity="0.4" stroke-width="0.3"/>
<path d="M236.949 70V54.328H231.453V52.168H245.265V54.328H239.781V70H236.949ZM249.748 70.192C248.948 70.192 248.236 70.036 247.612 69.724C246.996 69.404 246.508 68.956 246.148 68.38C245.796 67.796 245.62 67.108 245.62 66.316C245.62 65.46 245.848 64.736 246.304 64.144C246.768 63.544 247.388 63.076 248.164 62.74C248.676 62.532 249.232 62.368 249.832 62.248C250.432 62.12 251.032 62.032 251.632 61.984C252.232 61.928 252.788 61.9 253.3 61.9L253.876 62.632L253.3 63.604C252.988 63.604 252.612 63.628 252.172 63.676C251.74 63.716 251.312 63.784 250.888 63.88C250.464 63.968 250.104 64.084 249.808 64.228C249.4 64.412 249.06 64.648 248.788 64.936C248.516 65.224 248.38 65.624 248.38 66.136C248.38 66.808 248.564 67.316 248.932 67.66C249.308 68.004 249.864 68.176 250.6 68.176C250.976 68.176 251.356 68.12 251.74 68.008C252.124 67.896 252.456 67.768 252.736 67.624C253.024 67.48 253.212 67.356 253.3 67.252L253.852 67.84L253.456 68.872C253.104 69.192 252.596 69.492 251.932 69.772C251.268 70.052 250.54 70.192 249.748 70.192ZM256.072 70H253.456V68.008H253.3V60.64C253.3 59.856 253.092 59.34 252.676 59.092C252.268 58.836 251.684 58.708 250.924 58.708C250.42 58.708 249.9 58.76 249.364 58.864C248.828 58.96 248.336 59.084 247.888 59.236C247.44 59.38 247.096 59.528 246.856 59.68L246.208 57.688C246.392 57.576 246.744 57.42 247.264 57.22C247.792 57.02 248.404 56.84 249.1 56.68C249.804 56.512 250.5 56.428 251.188 56.428C252.188 56.428 253.052 56.544 253.78 56.776C254.516 57.008 255.08 57.44 255.472 58.072C255.872 58.696 256.072 59.604 256.072 60.796V70ZM262.362 60.184L262.194 58.36C262.314 58.112 262.566 57.84 262.95 57.544C263.334 57.24 263.786 56.98 264.306 56.764C264.834 56.548 265.37 56.44 265.914 56.44C266.218 56.44 266.478 56.452 266.694 56.476C266.918 56.5 267.082 56.544 267.186 56.608V59.2C267.066 59.136 266.882 59.068 266.634 58.996C266.394 58.924 266.002 58.888 265.458 58.888C264.962 58.888 264.514 58.96 264.114 59.104C263.722 59.24 263.378 59.408 263.082 59.608C262.786 59.808 262.546 60 262.362 60.184ZM259.746 70V56.656H262.098L262.29 58.36L262.506 59.368V70H259.746ZM274.442 76.048C272.682 76.048 271.29 75.724 270.266 75.076C269.242 74.428 268.73 73.44 268.73 72.112C268.73 71.616 268.85 71.172 269.09 70.78C269.33 70.396 269.626 70.072 269.978 69.808C270.33 69.544 270.674 69.344 271.01 69.208L272.786 69.472C272.618 69.624 272.43 69.784 272.222 69.952C272.014 70.12 271.83 70.34 271.67 70.612C271.518 70.892 271.442 71.264 271.442 71.728C271.442 72.256 271.546 72.704 271.754 73.072C271.962 73.448 272.29 73.732 272.738 73.924C273.194 74.124 273.794 74.224 274.538 74.224C275.226 74.224 275.862 74.148 276.446 73.996C277.03 73.852 277.498 73.628 277.85 73.324C278.202 73.028 278.378 72.656 278.378 72.208C278.378 71.736 278.29 71.336 278.114 71.008C277.946 70.68 277.626 70.428 277.154 70.252C276.69 70.084 276.01 70 275.114 70H273.794C273.338 70 272.934 69.992 272.582 69.976C272.23 69.952 271.914 69.904 271.634 69.832C271.538 69.808 271.446 69.768 271.358 69.712C271.27 69.648 271.178 69.6 271.082 69.568C270.482 69.336 270.078 69.016 269.87 68.608C269.67 68.2 269.57 67.792 269.57 67.384C269.57 67.072 269.65 66.756 269.81 66.436C269.978 66.108 270.21 65.796 270.506 65.5C270.81 65.196 271.162 64.928 271.562 64.696L273.278 65.128C272.99 65.24 272.726 65.436 272.486 65.716C272.254 65.988 272.138 66.28 272.138 66.592C272.138 67.08 272.254 67.412 272.486 67.588C272.726 67.756 273.122 67.84 273.674 67.84H276.074C277.106 67.84 277.946 67.948 278.594 68.164C279.242 68.38 279.742 68.672 280.094 69.04C280.446 69.4 280.686 69.8 280.814 70.24C280.95 70.688 281.018 71.144 281.018 71.608C281.018 72.304 280.846 72.924 280.502 73.468C280.158 74.02 279.682 74.488 279.074 74.872C278.466 75.256 277.766 75.548 276.974 75.748C276.182 75.948 275.338 76.048 274.442 76.048ZM274.358 65.44C273.358 65.44 272.458 65.256 271.658 64.888C270.858 64.512 270.226 63.996 269.762 63.34C269.298 62.676 269.066 61.912 269.066 61.048C269.066 60.008 269.298 59.152 269.762 58.48C270.226 57.808 270.862 57.308 271.67 56.98C272.478 56.652 273.39 56.48 274.406 56.464C275.398 56.44 276.306 56.584 277.13 56.896C277.954 57.208 278.61 57.696 279.098 58.36C279.594 59.016 279.842 59.864 279.842 60.904C279.842 61.88 279.606 62.708 279.134 63.388C278.662 64.06 278.014 64.572 277.19 64.924C276.366 65.268 275.422 65.44 274.358 65.44ZM274.43 63.64C275.254 63.64 275.91 63.456 276.398 63.088C276.886 62.712 277.13 62.012 277.13 60.988C277.13 60.108 276.918 59.44 276.494 58.984C276.07 58.52 275.426 58.288 274.562 58.288C274.066 58.288 273.606 58.36 273.182 58.504C272.758 58.648 272.418 58.912 272.162 59.296C271.906 59.68 271.778 60.228 271.778 60.94C271.778 61.668 271.986 62.3 272.402 62.836C272.826 63.372 273.502 63.64 274.43 63.64ZM278.366 58.72L277.61 57.604C277.786 57.38 278.134 57.148 278.654 56.908C279.182 56.668 279.758 56.548 280.382 56.548H281.726V58.72H278.366ZM288.981 70.192C287.061 70.192 285.581 69.584 284.541 68.368C283.501 67.152 282.981 65.464 282.981 63.304C282.981 62.008 283.209 60.848 283.665 59.824C284.129 58.8 284.809 57.988 285.705 57.388C286.609 56.788 287.717 56.48 289.029 56.464C289.701 56.448 290.333 56.544 290.925 56.752C291.517 56.96 292.041 57.276 292.497 57.7C292.953 58.116 293.313 58.644 293.577 59.284C293.849 59.924 293.997 60.672 294.021 61.528C294.021 62.032 294.017 62.484 294.009 62.884C294.001 63.276 293.965 63.624 293.901 63.928H284.589L284.829 62.176H291.429C291.469 61.536 291.429 60.932 291.309 60.364C291.197 59.788 290.949 59.324 290.565 58.972C290.189 58.612 289.629 58.432 288.885 58.432C288.261 58.432 287.701 58.608 287.205 58.96C286.709 59.304 286.325 59.888 286.053 60.712C285.781 61.536 285.669 62.664 285.717 64.096C285.765 65.104 285.969 65.9 286.329 66.484C286.689 67.068 287.161 67.484 287.745 67.732C288.329 67.98 288.981 68.104 289.701 68.104C290.005 68.104 290.377 68.072 290.817 68.008C291.257 67.936 291.681 67.848 292.089 67.744C292.505 67.632 292.821 67.512 293.037 67.384L293.565 68.968C293.269 69.208 292.865 69.42 292.353 69.604C291.849 69.788 291.301 69.932 290.709 70.036C290.117 70.14 289.541 70.192 288.981 70.192ZM300.972 70.192C300.34 70.192 299.784 70.092 299.304 69.892C298.824 69.692 298.448 69.34 298.176 68.836C297.912 68.324 297.78 67.6 297.78 66.664V58.672H296.052V57.184C296.644 57.016 297.096 56.876 297.408 56.764C297.72 56.644 297.948 56.392 298.092 56.008C298.156 55.832 298.228 55.624 298.308 55.384C298.388 55.136 298.476 54.864 298.572 54.568C298.668 54.264 298.772 53.936 298.884 53.584H300.54V56.632H304.284V58.672H300.54V65.2C300.54 66.064 300.576 66.696 300.648 67.096C300.728 67.488 300.872 67.74 301.08 67.852C301.296 67.956 301.612 68.008 302.028 68.008C302.252 68.008 302.508 67.984 302.796 67.936C303.092 67.88 303.372 67.812 303.636 67.732C303.908 67.652 304.116 67.568 304.26 67.48L304.716 69.064C304.476 69.248 304.152 69.428 303.744 69.604C303.344 69.772 302.9 69.912 302.412 70.024C301.932 70.136 301.452 70.192 300.972 70.192ZM311.076 70L312.912 52.168H316.872L320.016 62.2L320.94 66.016L321.768 62.2L324.756 52.168H328.548L330.684 70H327.876L326.82 59.188L326.484 54.268L325.26 59.188L321.744 70.168H320.052L316.356 59.188L315.06 54.268L314.712 59.188L313.776 70H311.076ZM337.334 70.192C336.534 70.192 335.822 70.036 335.198 69.724C334.582 69.404 334.094 68.956 333.734 68.38C333.382 67.796 333.206 67.108 333.206 66.316C333.206 65.46 333.434 64.736 333.89 64.144C334.354 63.544 334.974 63.076 335.75 62.74C336.262 62.532 336.818 62.368 337.418 62.248C338.018 62.12 338.618 62.032 339.218 61.984C339.818 61.928 340.374 61.9 340.886 61.9L341.462 62.632L340.886 63.604C340.574 63.604 340.198 63.628 339.758 63.676C339.326 63.716 338.898 63.784 338.474 63.88C338.05 63.968 337.69 64.084 337.394 64.228C336.986 64.412 336.646 64.648 336.374 64.936C336.102 65.224 335.966 65.624 335.966 66.136C335.966 66.808 336.15 67.316 336.518 67.66C336.894 68.004 337.45 68.176 338.186 68.176C338.562 68.176 338.942 68.12 339.326 68.008C339.71 67.896 340.042 67.768 340.322 67.624C340.61 67.48 340.798 67.356 340.886 67.252L341.438 67.84L341.042 68.872C340.69 69.192 340.182 69.492 339.518 69.772C338.854 70.052 338.126 70.192 337.334 70.192ZM343.658 70H341.042V68.008H340.886V60.64C340.886 59.856 340.678 59.34 340.262 59.092C339.854 58.836 339.27 58.708 338.51 58.708C338.006 58.708 337.486 58.76 336.95 58.864C336.414 58.96 335.922 59.084 335.474 59.236C335.026 59.38 334.682 59.528 334.442 59.68L333.794 57.688C333.978 57.576 334.33 57.42 334.85 57.22C335.378 57.02 335.99 56.84 336.686 56.68C337.39 56.512 338.086 56.428 338.774 56.428C339.774 56.428 340.638 56.544 341.366 56.776C342.102 57.008 342.666 57.44 343.058 58.072C343.458 58.696 343.658 59.604 343.658 60.796V70ZM349.948 60.184L349.78 58.36C349.9 58.112 350.152 57.84 350.536 57.544C350.92 57.24 351.372 56.98 351.892 56.764C352.42 56.548 352.956 56.44 353.5 56.44C353.804 56.44 354.064 56.452 354.28 56.476C354.504 56.5 354.668 56.544 354.772 56.608V59.2C354.652 59.136 354.468 59.068 354.22 58.996C353.98 58.924 353.588 58.888 353.044 58.888C352.548 58.888 352.1 58.96 351.7 59.104C351.308 59.24 350.964 59.408 350.668 59.608C350.372 59.808 350.132 60 349.948 60.184ZM347.332 70V56.656H349.684L349.876 58.36L350.092 59.368V70H347.332ZM368.376 56.632L359.64 65.752L359.88 65.104L359.928 67.408V70H357.24V62.056V50.536H359.928V60.712L359.832 63.64L359.184 63.184L365.136 56.632H368.376ZM361.32 63.424L363.192 61.624L368.952 70H365.808L361.32 63.424ZM375.864 70.192C373.944 70.192 372.464 69.584 371.424 68.368C370.384 67.152 369.864 65.464 369.864 63.304C369.864 62.008 370.092 60.848 370.548 59.824C371.012 58.8 371.692 57.988 372.588 57.388C373.492 56.788 374.6 56.48 375.912 56.464C376.584 56.448 377.216 56.544 377.808 56.752C378.4 56.96 378.924 57.276 379.38 57.7C379.836 58.116 380.196 58.644 380.46 59.284C380.732 59.924 380.88 60.672 380.904 61.528C380.904 62.032 380.9 62.484 380.892 62.884C380.884 63.276 380.848 63.624 380.784 63.928H371.472L371.712 62.176H378.312C378.352 61.536 378.312 60.932 378.192 60.364C378.08 59.788 377.832 59.324 377.448 58.972C377.072 58.612 376.512 58.432 375.768 58.432C375.144 58.432 374.584 58.608 374.088 58.96C373.592 59.304 373.208 59.888 372.936 60.712C372.664 61.536 372.552 62.664 372.6 64.096C372.648 65.104 372.852 65.9 373.212 66.484C373.572 67.068 374.044 67.484 374.628 67.732C375.212 67.98 375.864 68.104 376.584 68.104C376.888 68.104 377.26 68.072 377.7 68.008C378.14 67.936 378.564 67.848 378.972 67.744C379.388 67.632 379.704 67.512 379.92 67.384L380.448 68.968C380.152 69.208 379.748 69.42 379.236 69.604C378.732 69.788 378.184 69.932 377.592 70.036C377 70.14 376.424 70.192 375.864 70.192ZM387.854 70.192C387.222 70.192 386.666 70.092 386.186 69.892C385.706 69.692 385.33 69.34 385.058 68.836C384.794 68.324 384.662 67.6 384.662 66.664V58.672H382.934V57.184C383.526 57.016 383.978 56.876 384.29 56.764C384.602 56.644 384.83 56.392 384.974 56.008C385.038 55.832 385.11 55.624 385.19 55.384C385.27 55.136 385.358 54.864 385.454 54.568C385.55 54.264 385.654 53.936 385.766 53.584H387.422V56.632H391.166V58.672H387.422V65.2C387.422 66.064 387.458 66.696 387.53 67.096C387.61 67.488 387.754 67.74 387.962 67.852C388.178 67.956 388.494 68.008 388.91 68.008C389.134 68.008 389.39 67.984 389.678 67.936C389.974 67.88 390.254 67.812 390.518 67.732C390.79 67.652 390.998 67.568 391.142 67.48L391.598 69.064C391.358 69.248 391.034 69.428 390.626 69.604C390.226 69.772 389.782 69.912 389.294 70.024C388.814 70.136 388.334 70.192 387.854 70.192Z" fill="white" fill-opacity="0.5"/>
<rect x="73" y="159" width="168" height="104" rx="5" fill="#2C561E"/>
<path d="M101.63 216.12C101.29 216.12 100.975 216.07 100.685 215.97C100.395 215.865 100.163 215.662 99.9875 215.362C99.8125 215.062 99.725 214.615 99.725 214.02V208.575H98.57V207.9C98.84 207.825 99.1025 207.762 99.3575 207.712C99.6175 207.657 99.78 207.545 99.845 207.375C99.875 207.29 99.9075 207.15 99.9425 206.955C99.9825 206.755 100.023 206.545 100.063 206.325C100.108 206.1 100.155 205.905 100.205 205.74H100.94V207.645H103.535V208.575H100.94V213.33C100.94 213.885 100.975 214.29 101.045 214.545C101.115 214.795 101.23 214.955 101.39 215.025C101.555 215.095 101.775 215.13 102.05 215.13C102.22 215.13 102.41 215.11 102.62 215.07C102.83 215.025 103.025 214.972 103.205 214.912C103.39 214.847 103.53 214.785 103.625 214.725L103.835 215.43C103.695 215.545 103.5 215.655 103.25 215.76C103 215.865 102.73 215.95 102.44 216.015C102.155 216.085 101.885 216.12 101.63 216.12ZM105.694 216V203.805H106.924V207.525L106.849 208.815L106.789 208.725C106.989 208.56 107.254 208.387 107.584 208.207C107.919 208.022 108.289 207.865 108.694 207.735C109.099 207.605 109.509 207.535 109.924 207.525C110.849 207.51 111.512 207.767 111.912 208.297C112.317 208.822 112.514 209.735 112.504 211.035V216H111.289V210.96C111.289 210.05 111.157 209.415 110.892 209.055C110.632 208.69 110.144 208.52 109.429 208.545C109.019 208.56 108.582 208.67 108.117 208.875C107.652 209.08 107.254 209.31 106.924 209.565V216H105.694ZM118.304 216.12C117.134 216.12 116.236 215.745 115.611 214.995C114.986 214.24 114.674 213.195 114.674 211.86C114.674 211.025 114.819 210.285 115.109 209.64C115.399 208.99 115.821 208.48 116.376 208.11C116.931 207.735 117.609 207.545 118.409 207.54C118.854 207.53 119.256 207.6 119.616 207.75C119.981 207.895 120.294 208.107 120.554 208.387C120.819 208.662 121.024 208.995 121.169 209.385C121.319 209.77 121.399 210.2 121.409 210.675C121.409 210.935 121.406 211.17 121.401 211.38C121.396 211.585 121.379 211.775 121.349 211.95H115.409L115.514 211.125H120.254C120.284 210.615 120.241 210.155 120.126 209.745C120.016 209.335 119.816 209.01 119.526 208.77C119.236 208.53 118.839 208.41 118.334 208.41C117.854 208.41 117.424 208.54 117.044 208.8C116.664 209.055 116.366 209.465 116.151 210.03C115.941 210.595 115.849 211.335 115.874 212.25C115.899 212.965 116.031 213.537 116.271 213.967C116.511 214.397 116.834 214.71 117.239 214.905C117.644 215.095 118.104 215.19 118.619 215.19C118.874 215.19 119.146 215.157 119.436 215.092C119.731 215.027 120.006 214.947 120.261 214.852C120.521 214.752 120.724 214.655 120.869 214.56L121.124 215.355C120.944 215.505 120.699 215.637 120.389 215.753C120.079 215.867 119.739 215.957 119.369 216.023C119.004 216.088 118.649 216.12 118.304 216.12ZM128.524 216.12C127.989 216.12 127.559 216.035 127.234 215.865C126.909 215.69 126.664 215.445 126.499 215.13C126.334 214.81 126.221 214.432 126.161 213.997C126.106 213.562 126.079 213.08 126.079 212.55V207.645H127.294V212.595C127.294 213.295 127.346 213.825 127.451 214.185C127.561 214.545 127.741 214.787 127.991 214.912C128.241 215.037 128.584 215.1 129.019 215.1C129.299 215.1 129.586 215.06 129.881 214.98C130.176 214.9 130.449 214.8 130.699 214.68C130.954 214.56 131.159 214.44 131.314 214.32V207.645H132.544V216.09H132.064C131.869 216.09 131.716 216.06 131.606 216C131.501 215.945 131.449 215.81 131.449 215.595V214.92L131.464 215.13C131.204 215.315 130.909 215.482 130.579 215.632C130.249 215.782 129.906 215.902 129.551 215.992C129.196 216.078 128.854 216.12 128.524 216.12ZM135.329 216V207.66H136.424V208.725C136.624 208.575 136.886 208.41 137.211 208.23C137.541 208.045 137.904 207.885 138.299 207.75C138.694 207.61 139.094 207.535 139.499 207.525C140.409 207.51 141.054 207.752 141.434 208.253C141.814 208.747 142.004 209.61 142.004 210.84V216H140.774V210.825C140.774 210 140.656 209.407 140.421 209.047C140.186 208.682 139.709 208.515 138.989 208.545C138.729 208.55 138.451 208.602 138.156 208.702C137.861 208.802 137.574 208.93 137.294 209.085C137.014 209.24 136.769 209.4 136.559 209.565V216H135.329ZM147.806 216.12C146.636 216.12 145.738 215.745 145.113 214.995C144.488 214.24 144.176 213.195 144.176 211.86C144.176 211.025 144.321 210.285 144.611 209.64C144.901 208.99 145.323 208.48 145.878 208.11C146.433 207.735 147.111 207.545 147.911 207.54C148.356 207.53 148.758 207.6 149.118 207.75C149.483 207.895 149.796 208.107 150.056 208.387C150.321 208.662 150.526 208.995 150.671 209.385C150.821 209.77 150.901 210.2 150.911 210.675C150.911 210.935 150.908 211.17 150.903 211.38C150.898 211.585 150.881 211.775 150.851 211.95H144.911L145.016 211.125H149.756C149.786 210.615 149.743 210.155 149.628 209.745C149.518 209.335 149.318 209.01 149.028 208.77C148.738 208.53 148.341 208.41 147.836 208.41C147.356 208.41 146.926 208.54 146.546 208.8C146.166 209.055 145.868 209.465 145.653 210.03C145.443 210.595 145.351 211.335 145.376 212.25C145.401 212.965 145.533 213.537 145.773 213.967C146.013 214.397 146.336 214.71 146.741 214.905C147.146 215.095 147.606 215.19 148.121 215.19C148.376 215.19 148.648 215.157 148.938 215.092C149.233 215.027 149.508 214.947 149.763 214.852C150.023 214.752 150.226 214.655 150.371 214.56L150.626 215.355C150.446 215.505 150.201 215.637 149.891 215.753C149.581 215.867 149.241 215.957 148.871 216.023C148.506 216.088 148.151 216.12 147.806 216.12ZM153.141 216V207.66H154.236V208.725C154.441 208.56 154.711 208.387 155.046 208.207C155.381 208.022 155.746 207.865 156.141 207.735C156.536 207.605 156.926 207.535 157.311 207.525C157.871 207.515 158.324 207.607 158.669 207.802C159.019 207.992 159.274 208.327 159.434 208.807C159.599 209.287 159.681 209.955 159.681 210.81V216H158.466V210.9C158.466 210.345 158.424 209.892 158.339 209.542C158.259 209.187 158.099 208.93 157.859 208.77C157.624 208.61 157.276 208.54 156.816 208.56C156.451 208.575 156.034 208.68 155.564 208.875C155.099 209.065 154.701 209.295 154.371 209.565V216H153.141ZM159.561 209.46L159.291 208.71C159.496 208.545 159.764 208.373 160.094 208.192C160.424 208.007 160.789 207.852 161.189 207.727C161.589 207.597 161.996 207.53 162.411 207.525C163.001 207.52 163.474 207.622 163.829 207.832C164.189 208.042 164.449 208.392 164.609 208.882C164.774 209.367 164.856 210.025 164.856 210.855V216H163.641V210.915C163.641 210.395 163.601 209.957 163.521 209.602C163.446 209.242 163.286 208.972 163.041 208.792C162.801 208.612 162.436 208.53 161.946 208.545C161.551 208.55 161.134 208.65 160.694 208.845C160.254 209.035 159.876 209.24 159.561 209.46ZM167.597 219.705V207.645H168.707V208.71L168.812 208.86V215.475L168.797 215.64L168.812 217.02V219.705H167.597ZM170.432 216.12C169.892 216.12 169.435 216.055 169.06 215.925C168.685 215.795 168.452 215.69 168.362 215.61L168.812 214.8C168.947 214.92 169.155 215.02 169.435 215.1C169.72 215.18 170.087 215.22 170.537 215.22C171.072 215.22 171.552 215.082 171.977 214.807C172.402 214.532 172.737 214.135 172.982 213.615C173.232 213.095 173.362 212.465 173.372 211.725C173.382 210.635 173.175 209.825 172.75 209.295C172.325 208.765 171.737 208.5 170.987 208.5C170.502 208.5 170.07 208.597 169.69 208.792C169.31 208.987 169.017 209.175 168.812 209.355L168.617 208.725C168.737 208.6 168.91 208.445 169.135 208.26C169.36 208.07 169.65 207.902 170.005 207.757C170.365 207.612 170.802 207.54 171.317 207.54C171.887 207.54 172.422 207.677 172.922 207.952C173.427 208.227 173.835 208.662 174.145 209.257C174.46 209.847 174.617 210.615 174.617 211.56C174.617 212.445 174.442 213.23 174.092 213.915C173.747 214.6 173.26 215.14 172.63 215.535C172.005 215.925 171.272 216.12 170.432 216.12ZM176.798 216V203.805H178.028V216H176.798ZM183.87 216.12C183.205 216.12 182.64 216 182.175 215.76C181.71 215.52 181.332 215.192 181.042 214.777C180.752 214.362 180.542 213.887 180.412 213.352C180.282 212.817 180.22 212.255 180.225 211.665C180.24 210.78 180.415 210.03 180.75 209.415C181.09 208.8 181.542 208.335 182.107 208.02C182.677 207.7 183.315 207.54 184.02 207.54C184.89 207.54 185.592 207.742 186.127 208.147C186.667 208.552 187.057 209.09 187.297 209.76C187.542 210.425 187.66 211.15 187.65 211.935C187.635 212.825 187.462 213.582 187.132 214.207C186.807 214.827 186.362 215.302 185.797 215.632C185.232 215.957 184.59 216.12 183.87 216.12ZM183.9 215.25C184.695 215.255 185.31 214.957 185.745 214.357C186.185 213.752 186.405 212.93 186.405 211.89C186.41 211.25 186.327 210.67 186.157 210.15C185.987 209.625 185.725 209.207 185.37 208.897C185.015 208.587 184.56 208.43 184.005 208.425C183.22 208.41 182.602 208.687 182.152 209.257C181.707 209.827 181.48 210.635 181.47 211.68C181.47 212.315 181.555 212.902 181.725 213.442C181.895 213.977 182.157 214.41 182.512 214.74C182.872 215.07 183.335 215.24 183.9 215.25ZM189.475 219.615V218.61C189.55 218.63 189.663 218.65 189.813 218.67C189.963 218.69 190.09 218.7 190.195 218.7C190.485 218.7 190.775 218.62 191.065 218.46C191.355 218.3 191.628 218.013 191.883 217.598C192.138 217.188 192.355 216.6 192.535 215.835L192.64 216H192.13L188.995 207.645H190.3L192.31 213.375L193.06 215.595H192.7L193.345 213.375L195.085 207.645H196.405L193.54 216.21C193.21 217.205 192.848 217.983 192.453 218.543C192.058 219.108 191.585 219.465 191.035 219.615C190.93 219.645 190.808 219.67 190.668 219.69C190.528 219.71 190.4 219.72 190.285 219.72C190.21 219.72 190.113 219.715 189.993 219.705C189.878 219.695 189.768 219.683 189.663 219.668C189.563 219.653 189.5 219.635 189.475 219.615ZM200.804 216.12C199.634 216.12 198.736 215.745 198.111 214.995C197.486 214.24 197.174 213.195 197.174 211.86C197.174 211.025 197.319 210.285 197.609 209.64C197.899 208.99 198.321 208.48 198.876 208.11C199.431 207.735 200.109 207.545 200.909 207.54C201.354 207.53 201.756 207.6 202.116 207.75C202.481 207.895 202.794 208.107 203.054 208.387C203.319 208.662 203.524 208.995 203.669 209.385C203.819 209.77 203.899 210.2 203.909 210.675C203.909 210.935 203.906 211.17 203.901 211.38C203.896 211.585 203.879 211.775 203.849 211.95H197.909L198.014 211.125H202.754C202.784 210.615 202.741 210.155 202.626 209.745C202.516 209.335 202.316 209.01 202.026 208.77C201.736 208.53 201.339 208.41 200.834 208.41C200.354 208.41 199.924 208.54 199.544 208.8C199.164 209.055 198.866 209.465 198.651 210.03C198.441 210.595 198.349 211.335 198.374 212.25C198.399 212.965 198.531 213.537 198.771 213.967C199.011 214.397 199.334 214.71 199.739 214.905C200.144 215.095 200.604 215.19 201.119 215.19C201.374 215.19 201.646 215.157 201.936 215.092C202.231 215.027 202.506 214.947 202.761 214.852C203.021 214.752 203.224 214.655 203.369 214.56L203.624 215.355C203.444 215.505 203.199 215.637 202.889 215.753C202.579 215.867 202.239 215.957 201.869 216.023C201.504 216.088 201.149 216.12 200.804 216.12ZM211.329 216V214.845L211.269 214.815V208.665L211.314 208.635L211.269 207.315V203.805H212.454V216H211.329ZM208.749 216.12C208.179 216.12 207.642 215.983 207.137 215.707C206.637 215.427 206.229 214.992 205.914 214.402C205.604 213.807 205.449 213.04 205.449 212.1C205.449 211.21 205.622 210.422 205.967 209.737C206.317 209.052 206.804 208.515 207.429 208.125C208.059 207.735 208.794 207.54 209.634 207.54C210.174 207.54 210.637 207.602 211.022 207.727C211.407 207.852 211.644 207.96 211.734 208.05L211.284 208.845C211.149 208.725 210.934 208.625 210.639 208.545C210.349 208.465 209.974 208.425 209.514 208.425C208.984 208.425 208.507 208.562 208.082 208.837C207.662 209.112 207.327 209.512 207.077 210.037C206.832 210.557 206.704 211.19 206.694 211.935C206.679 213.02 206.884 213.83 207.309 214.365C207.739 214.895 208.329 215.16 209.079 215.16C209.569 215.16 210.009 215.06 210.399 214.86C210.789 214.66 211.084 214.475 211.284 214.305L211.479 214.935C211.359 215.055 211.184 215.21 210.954 215.4C210.724 215.585 210.427 215.752 210.062 215.902C209.702 216.048 209.264 216.12 208.749 216.12Z" fill="white"/>
<rect x="360" y="159" width="168" height="104" rx="5" fill="#2C561E"/>
<path d="M398.63 216.12C398.29 216.12 397.975 216.07 397.685 215.97C397.395 215.865 397.163 215.662 396.988 215.362C396.813 215.062 396.725 214.615 396.725 214.02V208.575H395.57V207.9C395.84 207.825 396.103 207.762 396.358 207.712C396.618 207.657 396.78 207.545 396.845 207.375C396.875 207.29 396.908 207.15 396.943 206.955C396.983 206.755 397.023 206.545 397.063 206.325C397.108 206.1 397.155 205.905 397.205 205.74H397.94V207.645H400.535V208.575H397.94V213.33C397.94 213.885 397.975 214.29 398.045 214.545C398.115 214.795 398.23 214.955 398.39 215.025C398.555 215.095 398.775 215.13 399.05 215.13C399.22 215.13 399.41 215.11 399.62 215.07C399.83 215.025 400.025 214.972 400.205 214.912C400.39 214.847 400.53 214.785 400.625 214.725L400.835 215.43C400.695 215.545 400.5 215.655 400.25 215.76C400 215.865 399.73 215.95 399.44 216.015C399.155 216.085 398.885 216.12 398.63 216.12ZM402.694 216V203.805H403.924V207.525L403.849 208.815L403.789 208.725C403.989 208.56 404.254 208.387 404.584 208.207C404.919 208.022 405.289 207.865 405.694 207.735C406.099 207.605 406.509 207.535 406.924 207.525C407.849 207.51 408.512 207.767 408.912 208.297C409.317 208.822 409.514 209.735 409.504 211.035V216H408.289V210.96C408.289 210.05 408.157 209.415 407.892 209.055C407.632 208.69 407.144 208.52 406.429 208.545C406.019 208.56 405.582 208.67 405.117 208.875C404.652 209.08 404.254 209.31 403.924 209.565V216H402.694ZM415.304 216.12C414.134 216.12 413.236 215.745 412.611 214.995C411.986 214.24 411.674 213.195 411.674 211.86C411.674 211.025 411.819 210.285 412.109 209.64C412.399 208.99 412.821 208.48 413.376 208.11C413.931 207.735 414.609 207.545 415.409 207.54C415.854 207.53 416.256 207.6 416.616 207.75C416.981 207.895 417.294 208.107 417.554 208.387C417.819 208.662 418.024 208.995 418.169 209.385C418.319 209.77 418.399 210.2 418.409 210.675C418.409 210.935 418.406 211.17 418.401 211.38C418.396 211.585 418.379 211.775 418.349 211.95H412.409L412.514 211.125H417.254C417.284 210.615 417.241 210.155 417.126 209.745C417.016 209.335 416.816 209.01 416.526 208.77C416.236 208.53 415.839 208.41 415.334 208.41C414.854 208.41 414.424 208.54 414.044 208.8C413.664 209.055 413.366 209.465 413.151 210.03C412.941 210.595 412.849 211.335 412.874 212.25C412.899 212.965 413.031 213.537 413.271 213.967C413.511 214.397 413.834 214.71 414.239 214.905C414.644 215.095 415.104 215.19 415.619 215.19C415.874 215.19 416.146 215.157 416.436 215.092C416.731 215.027 417.006 214.947 417.261 214.852C417.521 214.752 417.724 214.655 417.869 214.56L418.124 215.355C417.944 215.505 417.699 215.637 417.389 215.753C417.079 215.867 416.739 215.957 416.369 216.023C416.004 216.088 415.649 216.12 415.304 216.12ZM426.349 216.12C425.179 216.12 424.281 215.745 423.656 214.995C423.031 214.24 422.719 213.195 422.719 211.86C422.719 211.025 422.864 210.285 423.154 209.64C423.444 208.99 423.866 208.48 424.421 208.11C424.976 207.735 425.654 207.545 426.454 207.54C426.899 207.53 427.301 207.6 427.661 207.75C428.026 207.895 428.339 208.107 428.599 208.387C428.864 208.662 429.069 208.995 429.214 209.385C429.364 209.77 429.444 210.2 429.454 210.675C429.454 210.935 429.451 211.17 429.446 211.38C429.441 211.585 429.424 211.775 429.394 211.95H423.454L423.559 211.125H428.299C428.329 210.615 428.286 210.155 428.171 209.745C428.061 209.335 427.861 209.01 427.571 208.77C427.281 208.53 426.884 208.41 426.379 208.41C425.899 208.41 425.469 208.54 425.089 208.8C424.709 209.055 424.411 209.465 424.196 210.03C423.986 210.595 423.894 211.335 423.919 212.25C423.944 212.965 424.076 213.537 424.316 213.967C424.556 214.397 424.879 214.71 425.284 214.905C425.689 215.095 426.149 215.19 426.664 215.19C426.919 215.19 427.191 215.157 427.481 215.092C427.776 215.027 428.051 214.947 428.306 214.852C428.566 214.752 428.769 214.655 428.914 214.56L429.169 215.355C428.989 215.505 428.744 215.637 428.434 215.753C428.124 215.867 427.784 215.957 427.414 216.023C427.049 216.088 426.694 216.12 426.349 216.12ZM431.684 216V207.66H432.779V208.725C432.984 208.56 433.254 208.387 433.589 208.207C433.924 208.022 434.289 207.865 434.684 207.735C435.079 207.605 435.469 207.535 435.854 207.525C436.414 207.515 436.867 207.607 437.212 207.802C437.562 207.992 437.817 208.327 437.977 208.807C438.142 209.287 438.224 209.955 438.224 210.81V216H437.009V210.9C437.009 210.345 436.967 209.892 436.882 209.542C436.802 209.187 436.642 208.93 436.402 208.77C436.167 208.61 435.819 208.54 435.359 208.56C434.994 208.575 434.577 208.68 434.107 208.875C433.642 209.065 433.244 209.295 432.914 209.565V216H431.684ZM438.104 209.46L437.834 208.71C438.039 208.545 438.307 208.373 438.637 208.192C438.967 208.007 439.332 207.852 439.732 207.727C440.132 207.597 440.539 207.53 440.954 207.525C441.544 207.52 442.017 207.622 442.372 207.832C442.732 208.042 442.992 208.392 443.152 208.882C443.317 209.367 443.399 210.025 443.399 210.855V216H442.184V210.915C442.184 210.395 442.144 209.957 442.064 209.602C441.989 209.242 441.829 208.972 441.584 208.792C441.344 208.612 440.979 208.53 440.489 208.545C440.094 208.55 439.677 208.65 439.237 208.845C438.797 209.035 438.419 209.24 438.104 209.46ZM446.14 219.705V207.645H447.25V208.71L447.355 208.86V215.475L447.34 215.64L447.355 217.02V219.705H446.14ZM448.975 216.12C448.435 216.12 447.978 216.055 447.603 215.925C447.228 215.795 446.995 215.69 446.905 215.61L447.355 214.8C447.49 214.92 447.698 215.02 447.978 215.1C448.263 215.18 448.63 215.22 449.08 215.22C449.615 215.22 450.095 215.082 450.52 214.807C450.945 214.532 451.28 214.135 451.525 213.615C451.775 213.095 451.905 212.465 451.915 211.725C451.925 210.635 451.718 209.825 451.293 209.295C450.868 208.765 450.28 208.5 449.53 208.5C449.045 208.5 448.613 208.597 448.233 208.792C447.853 208.987 447.56 209.175 447.355 209.355L447.16 208.725C447.28 208.6 447.453 208.445 447.678 208.26C447.903 208.07 448.193 207.902 448.548 207.757C448.908 207.612 449.345 207.54 449.86 207.54C450.43 207.54 450.965 207.677 451.465 207.952C451.97 208.227 452.378 208.662 452.688 209.257C453.003 209.847 453.16 210.615 453.16 211.56C453.16 212.445 452.985 213.23 452.635 213.915C452.29 214.6 451.803 215.14 451.173 215.535C450.548 215.925 449.815 216.12 448.975 216.12ZM455.341 216V203.805H456.571V216H455.341ZM462.413 216.12C461.748 216.12 461.183 216 460.718 215.76C460.253 215.52 459.875 215.192 459.585 214.777C459.295 214.362 459.085 213.887 458.955 213.352C458.825 212.817 458.763 212.255 458.768 211.665C458.783 210.78 458.958 210.03 459.293 209.415C459.633 208.8 460.085 208.335 460.65 208.02C461.22 207.7 461.858 207.54 462.563 207.54C463.433 207.54 464.135 207.742 464.67 208.147C465.21 208.552 465.6 209.09 465.84 209.76C466.085 210.425 466.203 211.15 466.193 211.935C466.178 212.825 466.005 213.582 465.675 214.207C465.35 214.827 464.905 215.302 464.34 215.632C463.775 215.957 463.133 216.12 462.413 216.12ZM462.443 215.25C463.238 215.255 463.853 214.957 464.288 214.357C464.728 213.752 464.948 212.93 464.948 211.89C464.953 211.25 464.87 210.67 464.7 210.15C464.53 209.625 464.268 209.207 463.913 208.897C463.558 208.587 463.103 208.43 462.548 208.425C461.763 208.41 461.145 208.687 460.695 209.257C460.25 209.827 460.023 210.635 460.013 211.68C460.013 212.315 460.098 212.902 460.268 213.442C460.438 213.977 460.7 214.41 461.055 214.74C461.415 215.07 461.878 215.24 462.443 215.25ZM468.018 219.615V218.61C468.093 218.63 468.206 218.65 468.356 218.67C468.506 218.69 468.633 218.7 468.738 218.7C469.028 218.7 469.318 218.62 469.608 218.46C469.898 218.3 470.171 218.013 470.426 217.598C470.681 217.188 470.898 216.6 471.078 215.835L471.183 216H470.673L467.538 207.645H468.843L470.853 213.375L471.603 215.595H471.243L471.888 213.375L473.628 207.645H474.948L472.083 216.21C471.753 217.205 471.391 217.983 470.996 218.543C470.601 219.108 470.128 219.465 469.578 219.615C469.473 219.645 469.351 219.67 469.211 219.69C469.071 219.71 468.943 219.72 468.828 219.72C468.753 219.72 468.656 219.715 468.536 219.705C468.421 219.695 468.311 219.683 468.206 219.668C468.106 219.653 468.043 219.635 468.018 219.615ZM479.347 216.12C478.177 216.12 477.279 215.745 476.654 214.995C476.029 214.24 475.717 213.195 475.717 211.86C475.717 211.025 475.862 210.285 476.152 209.64C476.442 208.99 476.864 208.48 477.419 208.11C477.974 207.735 478.652 207.545 479.452 207.54C479.897 207.53 480.299 207.6 480.659 207.75C481.024 207.895 481.337 208.107 481.597 208.387C481.862 208.662 482.067 208.995 482.212 209.385C482.362 209.77 482.442 210.2 482.452 210.675C482.452 210.935 482.449 211.17 482.444 211.38C482.439 211.585 482.422 211.775 482.392 211.95H476.452L476.557 211.125H481.297C481.327 210.615 481.284 210.155 481.169 209.745C481.059 209.335 480.859 209.01 480.569 208.77C480.279 208.53 479.882 208.41 479.377 208.41C478.897 208.41 478.467 208.54 478.087 208.8C477.707 209.055 477.409 209.465 477.194 210.03C476.984 210.595 476.892 211.335 476.917 212.25C476.942 212.965 477.074 213.537 477.314 213.967C477.554 214.397 477.877 214.71 478.282 214.905C478.687 215.095 479.147 215.19 479.662 215.19C479.917 215.19 480.189 215.157 480.479 215.092C480.774 215.027 481.049 214.947 481.304 214.852C481.564 214.752 481.767 214.655 481.912 214.56L482.167 215.355C481.987 215.505 481.742 215.637 481.432 215.753C481.122 215.867 480.782 215.957 480.412 216.023C480.047 216.088 479.692 216.12 479.347 216.12ZM489.872 216V214.845L489.812 214.815V208.665L489.857 208.635L489.812 207.315V203.805H490.997V216H489.872ZM487.292 216.12C486.722 216.12 486.185 215.983 485.68 215.707C485.18 215.427 484.772 214.992 484.457 214.402C484.147 213.807 483.992 213.04 483.992 212.1C483.992 211.21 484.165 210.422 484.51 209.737C484.86 209.052 485.347 208.515 485.972 208.125C486.602 207.735 487.337 207.54 488.177 207.54C488.717 207.54 489.18 207.602 489.565 207.727C489.95 207.852 490.187 207.96 490.277 208.05L489.827 208.845C489.692 208.725 489.477 208.625 489.182 208.545C488.892 208.465 488.517 208.425 488.057 208.425C487.527 208.425 487.05 208.562 486.625 208.837C486.205 209.112 485.87 209.512 485.62 210.037C485.375 210.557 485.247 211.19 485.237 211.935C485.222 213.02 485.427 213.83 485.852 214.365C486.282 214.895 486.872 215.16 487.622 215.16C488.112 215.16 488.552 215.06 488.942 214.86C489.332 214.66 489.627 214.475 489.827 214.305L490.022 214.935C489.902 215.055 489.727 215.21 489.497 215.4C489.267 215.585 488.97 215.752 488.605 215.902C488.245 216.048 487.807 216.12 487.292 216.12Z" fill="white"/>
<rect x="221" y="287" width="168" height="104" rx="5" fill="#2C561E"/>
<path d="M257.63 344.12C257.29 344.12 256.975 344.07 256.685 343.97C256.395 343.865 256.163 343.662 255.988 343.362C255.813 343.062 255.725 342.615 255.725 342.02V336.575H254.57V335.9C254.84 335.825 255.103 335.762 255.358 335.712C255.618 335.657 255.78 335.545 255.845 335.375C255.875 335.29 255.908 335.15 255.943 334.955C255.983 334.755 256.023 334.545 256.063 334.325C256.108 334.1 256.155 333.905 256.205 333.74H256.94V335.645H259.535V336.575H256.94V341.33C256.94 341.885 256.975 342.29 257.045 342.545C257.115 342.795 257.23 342.955 257.39 343.025C257.555 343.095 257.775 343.13 258.05 343.13C258.22 343.13 258.41 343.11 258.62 343.07C258.83 343.025 259.025 342.972 259.205 342.912C259.39 342.847 259.53 342.785 259.625 342.725L259.835 343.43C259.695 343.545 259.5 343.655 259.25 343.76C259 343.865 258.73 343.95 258.44 344.015C258.155 344.085 257.885 344.12 257.63 344.12ZM261.694 344V331.805H262.924V335.525L262.849 336.815L262.789 336.725C262.989 336.56 263.254 336.387 263.584 336.207C263.919 336.022 264.289 335.865 264.694 335.735C265.099 335.605 265.509 335.535 265.924 335.525C266.849 335.51 267.512 335.767 267.912 336.297C268.317 336.822 268.514 337.735 268.504 339.035V344H267.289V338.96C267.289 338.05 267.157 337.415 266.892 337.055C266.632 336.69 266.144 336.52 265.429 336.545C265.019 336.56 264.582 336.67 264.117 336.875C263.652 337.08 263.254 337.31 262.924 337.565V344H261.694ZM274.304 344.12C273.134 344.12 272.236 343.745 271.611 342.995C270.986 342.24 270.674 341.195 270.674 339.86C270.674 339.025 270.819 338.285 271.109 337.64C271.399 336.99 271.821 336.48 272.376 336.11C272.931 335.735 273.609 335.545 274.409 335.54C274.854 335.53 275.256 335.6 275.616 335.75C275.981 335.895 276.294 336.107 276.554 336.387C276.819 336.662 277.024 336.995 277.169 337.385C277.319 337.77 277.399 338.2 277.409 338.675C277.409 338.935 277.406 339.17 277.401 339.38C277.396 339.585 277.379 339.775 277.349 339.95H271.409L271.514 339.125H276.254C276.284 338.615 276.241 338.155 276.126 337.745C276.016 337.335 275.816 337.01 275.526 336.77C275.236 336.53 274.839 336.41 274.334 336.41C273.854 336.41 273.424 336.54 273.044 336.8C272.664 337.055 272.366 337.465 272.151 338.03C271.941 338.595 271.849 339.335 271.874 340.25C271.899 340.965 272.031 341.537 272.271 341.967C272.511 342.397 272.834 342.71 273.239 342.905C273.644 343.095 274.104 343.19 274.619 343.19C274.874 343.19 275.146 343.157 275.436 343.092C275.731 343.027 276.006 342.947 276.261 342.852C276.521 342.752 276.724 342.655 276.869 342.56L277.124 343.355C276.944 343.505 276.699 343.637 276.389 343.753C276.079 343.867 275.739 343.957 275.369 344.023C275.004 344.088 274.649 344.12 274.304 344.12ZM285.349 344.12C284.179 344.12 283.281 343.745 282.656 342.995C282.031 342.24 281.719 341.195 281.719 339.86C281.719 339.025 281.864 338.285 282.154 337.64C282.444 336.99 282.866 336.48 283.421 336.11C283.976 335.735 284.654 335.545 285.454 335.54C285.899 335.53 286.301 335.6 286.661 335.75C287.026 335.895 287.339 336.107 287.599 336.387C287.864 336.662 288.069 336.995 288.214 337.385C288.364 337.77 288.444 338.2 288.454 338.675C288.454 338.935 288.451 339.17 288.446 339.38C288.441 339.585 288.424 339.775 288.394 339.95H282.454L282.559 339.125H287.299C287.329 338.615 287.286 338.155 287.171 337.745C287.061 337.335 286.861 337.01 286.571 336.77C286.281 336.53 285.884 336.41 285.379 336.41C284.899 336.41 284.469 336.54 284.089 336.8C283.709 337.055 283.411 337.465 283.196 338.03C282.986 338.595 282.894 339.335 282.919 340.25C282.944 340.965 283.076 341.537 283.316 341.967C283.556 342.397 283.879 342.71 284.284 342.905C284.689 343.095 285.149 343.19 285.664 343.19C285.919 343.19 286.191 343.157 286.481 343.092C286.776 343.027 287.051 342.947 287.306 342.852C287.566 342.752 287.769 342.655 287.914 342.56L288.169 343.355C287.989 343.505 287.744 343.637 287.434 343.753C287.124 343.867 286.784 343.957 286.414 344.023C286.049 344.088 285.694 344.12 285.349 344.12ZM290.684 344V335.66H291.779V336.725C291.984 336.56 292.254 336.387 292.589 336.207C292.924 336.022 293.289 335.865 293.684 335.735C294.079 335.605 294.469 335.535 294.854 335.525C295.414 335.515 295.867 335.607 296.212 335.802C296.562 335.992 296.817 336.327 296.977 336.807C297.142 337.287 297.224 337.955 297.224 338.81V344H296.009V338.9C296.009 338.345 295.967 337.892 295.882 337.542C295.802 337.187 295.642 336.93 295.402 336.77C295.167 336.61 294.819 336.54 294.359 336.56C293.994 336.575 293.577 336.68 293.107 336.875C292.642 337.065 292.244 337.295 291.914 337.565V344H290.684ZM297.104 337.46L296.834 336.71C297.039 336.545 297.307 336.373 297.637 336.192C297.967 336.007 298.332 335.852 298.732 335.727C299.132 335.597 299.539 335.53 299.954 335.525C300.544 335.52 301.017 335.622 301.372 335.832C301.732 336.042 301.992 336.392 302.152 336.882C302.317 337.367 302.399 338.025 302.399 338.855V344H301.184V338.915C301.184 338.395 301.144 337.957 301.064 337.602C300.989 337.242 300.829 336.972 300.584 336.792C300.344 336.612 299.979 336.53 299.489 336.545C299.094 336.55 298.677 336.65 298.237 336.845C297.797 337.035 297.419 337.24 297.104 337.46ZM305.14 347.705V335.645H306.25V336.71L306.355 336.86V343.475L306.34 343.64L306.355 345.02V347.705H305.14ZM307.975 344.12C307.435 344.12 306.978 344.055 306.603 343.925C306.228 343.795 305.995 343.69 305.905 343.61L306.355 342.8C306.49 342.92 306.698 343.02 306.978 343.1C307.263 343.18 307.63 343.22 308.08 343.22C308.615 343.22 309.095 343.082 309.52 342.807C309.945 342.532 310.28 342.135 310.525 341.615C310.775 341.095 310.905 340.465 310.915 339.725C310.925 338.635 310.718 337.825 310.293 337.295C309.868 336.765 309.28 336.5 308.53 336.5C308.045 336.5 307.613 336.597 307.233 336.792C306.853 336.987 306.56 337.175 306.355 337.355L306.16 336.725C306.28 336.6 306.453 336.445 306.678 336.26C306.903 336.07 307.193 335.902 307.548 335.757C307.908 335.612 308.345 335.54 308.86 335.54C309.43 335.54 309.965 335.677 310.465 335.952C310.97 336.227 311.378 336.662 311.688 337.257C312.003 337.847 312.16 338.615 312.16 339.56C312.16 340.445 311.985 341.23 311.635 341.915C311.29 342.6 310.803 343.14 310.173 343.535C309.548 343.925 308.815 344.12 307.975 344.12ZM314.341 344V331.805H315.571V344H314.341ZM321.413 344.12C320.748 344.12 320.183 344 319.718 343.76C319.253 343.52 318.875 343.192 318.585 342.777C318.295 342.362 318.085 341.887 317.955 341.352C317.825 340.817 317.763 340.255 317.768 339.665C317.783 338.78 317.958 338.03 318.293 337.415C318.633 336.8 319.085 336.335 319.65 336.02C320.22 335.7 320.858 335.54 321.563 335.54C322.433 335.54 323.135 335.742 323.67 336.147C324.21 336.552 324.6 337.09 324.84 337.76C325.085 338.425 325.203 339.15 325.193 339.935C325.178 340.825 325.005 341.582 324.675 342.207C324.35 342.827 323.905 343.302 323.34 343.632C322.775 343.957 322.133 344.12 321.413 344.12ZM321.443 343.25C322.238 343.255 322.853 342.957 323.288 342.357C323.728 341.752 323.948 340.93 323.948 339.89C323.953 339.25 323.87 338.67 323.7 338.15C323.53 337.625 323.268 337.207 322.913 336.897C322.558 336.587 322.103 336.43 321.548 336.425C320.763 336.41 320.145 336.687 319.695 337.257C319.25 337.827 319.023 338.635 319.013 339.68C319.013 340.315 319.098 340.902 319.268 341.442C319.438 341.977 319.7 342.41 320.055 342.74C320.415 343.07 320.878 343.24 321.443 343.25ZM327.018 347.615V346.61C327.093 346.63 327.206 346.65 327.356 346.67C327.506 346.69 327.633 346.7 327.738 346.7C328.028 346.7 328.318 346.62 328.608 346.46C328.898 346.3 329.171 346.013 329.426 345.598C329.681 345.188 329.898 344.6 330.078 343.835L330.183 344H329.673L326.538 335.645H327.843L329.853 341.375L330.603 343.595H330.243L330.888 341.375L332.628 335.645H333.948L331.083 344.21C330.753 345.205 330.391 345.983 329.996 346.543C329.601 347.108 329.128 347.465 328.578 347.615C328.473 347.645 328.351 347.67 328.211 347.69C328.071 347.71 327.943 347.72 327.828 347.72C327.753 347.72 327.656 347.715 327.536 347.705C327.421 347.695 327.311 347.683 327.206 347.668C327.106 347.653 327.043 347.635 327.018 347.615ZM338.347 344.12C337.177 344.12 336.279 343.745 335.654 342.995C335.029 342.24 334.717 341.195 334.717 339.86C334.717 339.025 334.862 338.285 335.152 337.64C335.442 336.99 335.864 336.48 336.419 336.11C336.974 335.735 337.652 335.545 338.452 335.54C338.897 335.53 339.299 335.6 339.659 335.75C340.024 335.895 340.337 336.107 340.597 336.387C340.862 336.662 341.067 336.995 341.212 337.385C341.362 337.77 341.442 338.2 341.452 338.675C341.452 338.935 341.449 339.17 341.444 339.38C341.439 339.585 341.422 339.775 341.392 339.95H335.452L335.557 339.125H340.297C340.327 338.615 340.284 338.155 340.169 337.745C340.059 337.335 339.859 337.01 339.569 336.77C339.279 336.53 338.882 336.41 338.377 336.41C337.897 336.41 337.467 336.54 337.087 336.8C336.707 337.055 336.409 337.465 336.194 338.03C335.984 338.595 335.892 339.335 335.917 340.25C335.942 340.965 336.074 341.537 336.314 341.967C336.554 342.397 336.877 342.71 337.282 342.905C337.687 343.095 338.147 343.19 338.662 343.19C338.917 343.19 339.189 343.157 339.479 343.092C339.774 343.027 340.049 342.947 340.304 342.852C340.564 342.752 340.767 342.655 340.912 342.56L341.167 343.355C340.987 343.505 340.742 343.637 340.432 343.753C340.122 343.867 339.782 343.957 339.412 344.023C339.047 344.088 338.692 344.12 338.347 344.12ZM344.687 337.655L344.597 336.845C344.682 336.705 344.857 336.532 345.122 336.327C345.387 336.122 345.702 335.94 346.067 335.78C346.432 335.62 346.807 335.54 347.192 335.54C347.382 335.54 347.542 335.547 347.672 335.562C347.807 335.577 347.912 335.6 347.987 335.63V336.785C347.912 336.745 347.8 336.705 347.65 336.665C347.505 336.625 347.277 336.605 346.967 336.605C346.627 336.605 346.307 336.665 346.007 336.785C345.712 336.9 345.45 337.04 345.22 337.205C344.995 337.365 344.817 337.515 344.687 337.655ZM343.532 344V335.66H344.582L344.657 336.845L344.762 337.37V344H343.532ZM349.043 343.52L349.238 342.59C349.343 342.665 349.521 342.75 349.771 342.845C350.026 342.94 350.316 343.022 350.641 343.092C350.971 343.162 351.303 343.2 351.638 343.205C352.173 343.205 352.611 343.097 352.951 342.882C353.296 342.662 353.468 342.34 353.468 341.915C353.468 341.62 353.376 341.375 353.191 341.18C353.006 340.985 352.781 340.822 352.516 340.692C352.256 340.562 352.008 340.45 351.773 340.355C351.248 340.145 350.783 339.917 350.378 339.672C349.978 339.427 349.663 339.142 349.433 338.817C349.208 338.487 349.098 338.095 349.103 337.64C349.113 337.16 349.251 336.765 349.516 336.455C349.786 336.145 350.141 335.915 350.581 335.765C351.021 335.615 351.503 335.54 352.028 335.54C352.518 335.53 352.961 335.577 353.356 335.682C353.751 335.782 354.023 335.875 354.173 335.96L353.963 336.89C353.868 336.82 353.723 336.75 353.528 336.68C353.333 336.61 353.108 336.552 352.853 336.507C352.603 336.462 352.343 336.44 352.073 336.44C351.473 336.44 351.021 336.547 350.716 336.762C350.411 336.977 350.253 337.25 350.243 337.58C350.238 338.015 350.396 338.35 350.716 338.585C351.041 338.815 351.423 339.025 351.863 339.215C352.298 339.4 352.726 339.602 353.146 339.822C353.566 340.042 353.913 340.312 354.188 340.632C354.468 340.947 354.608 341.345 354.608 341.825C354.608 342.56 354.343 343.127 353.813 343.527C353.288 343.923 352.583 344.12 351.698 344.12C351.343 344.12 350.993 344.09 350.648 344.03C350.303 343.975 349.988 343.902 349.703 343.812C349.423 343.722 349.203 343.625 349.043 343.52Z" fill="white"/>
</svg>
