<svg width="22" height="23" viewBox="0 0 22 23" fill="none" xmlns="http://www.w3.org/2000/svg">
<path d="M10.0738 5.26969C10.791 7.61609 10.2666 9.2824 10.2666 9.2824C10.2666 9.2824 8.8203 8.30279 7.92397 6.01882C7.2238 4.00952 7.21306 3.11388 8.01924 2.83295C8.82543 2.55203 9.37362 3.26039 10.0738 5.26969Z" fill="#FBBF19"/>
<path d="M16.1877 7.63689C14.6345 9.53622 12.9575 10.0254 12.9575 10.0254C12.9575 10.0254 12.9691 8.27858 14.3709 6.26491C15.6532 4.56691 16.3921 4.06066 17.0734 4.57515C17.7547 5.08964 17.47 5.93889 16.1877 7.63689Z" fill="#FBBF19"/>
<path d="M6.92056 15.6654C8.21067 13.5784 9.8088 12.8731 9.8088 12.8731C9.8088 12.8731 10.0269 14.6063 8.90187 16.7867C7.85386 18.6385 7.18788 19.2375 6.44489 18.817C5.7019 18.3965 5.87255 17.5172 6.92056 15.6654Z" fill="#FBBF19"/>
<path d="M17.0088 13.8594C14.6692 13.1204 13.5935 11.744 13.5935 11.744C13.5935 11.744 15.2203 11.1076 17.6101 11.6637C19.6623 12.2256 20.4063 12.7244 20.1808 13.5478C19.9553 14.3712 19.061 14.4214 17.0088 13.8594Z" fill="#FBBF19"/>
<path d="M5.28951 9.60508C7.70596 10.0302 8.95318 11.2533 8.95318 11.2533C8.95318 11.2533 7.42411 12.098 4.98204 11.8608C2.87375 11.5734 2.07066 11.1768 2.18596 10.3309C2.30126 9.48497 3.18122 9.3177 5.28951 9.60508Z" fill="#FBBF19"/>
<path d="M12.3774 16.789C11.5784 14.4692 12.044 12.7855 12.044 12.7855C12.044 12.7855 13.5238 13.7138 14.4996 15.965C15.2698 17.9485 15.3119 18.8432 14.516 19.1522C13.7202 19.4612 13.1475 18.7725 12.3774 16.789Z" fill="#FBBF19"/>
</svg>
