<svg width="840" height="482" viewBox="0 0 840 482" fill="none" xmlns="http://www.w3.org/2000/svg">
<rect width="840" height="482" rx="20" fill="#1C1C1C"/>
<rect x="0.1" y="0.1" width="839.8" height="481.8" rx="19.9" stroke="white" stroke-opacity="0.3" stroke-width="0.2"/>
<path d="M388.891 59V43.328H383.395V41.168H397.207V43.328H391.723V59H388.891ZM401.689 59.192C400.889 59.192 400.177 59.036 399.553 58.724C398.937 58.404 398.449 57.956 398.089 57.38C397.737 56.796 397.561 56.108 397.561 55.316C397.561 54.46 397.789 53.736 398.245 53.144C398.709 52.544 399.329 52.076 400.105 51.74C400.617 51.532 401.173 51.368 401.773 51.248C402.373 51.12 402.973 51.032 403.573 50.984C404.173 50.928 404.729 50.9 405.241 50.9L405.817 51.632L405.241 52.604C404.929 52.604 404.553 52.628 404.113 52.676C403.681 52.716 403.253 52.784 402.829 52.88C402.405 52.968 402.045 53.084 401.749 53.228C401.341 53.412 401.001 53.648 400.729 53.936C400.457 54.224 400.321 54.624 400.321 55.136C400.321 55.808 400.505 56.316 400.873 56.66C401.249 57.004 401.805 57.176 402.541 57.176C402.917 57.176 403.297 57.12 403.681 57.008C404.065 56.896 404.397 56.768 404.677 56.624C404.965 56.48 405.153 56.356 405.241 56.252L405.793 56.84L405.397 57.872C405.045 58.192 404.537 58.492 403.873 58.772C403.209 59.052 402.481 59.192 401.689 59.192ZM408.013 59H405.397V57.008H405.241V49.64C405.241 48.856 405.033 48.34 404.617 48.092C404.209 47.836 403.625 47.708 402.865 47.708C402.361 47.708 401.841 47.76 401.305 47.864C400.769 47.96 400.277 48.084 399.829 48.236C399.381 48.38 399.037 48.528 398.797 48.68L398.149 46.688C398.333 46.576 398.685 46.42 399.205 46.22C399.733 46.02 400.345 45.84 401.041 45.68C401.745 45.512 402.441 45.428 403.129 45.428C404.129 45.428 404.993 45.544 405.721 45.776C406.457 46.008 407.021 46.44 407.413 47.072C407.813 47.696 408.013 48.604 408.013 49.796V59ZM414.303 49.184L414.135 47.36C414.255 47.112 414.507 46.84 414.891 46.544C415.275 46.24 415.727 45.98 416.247 45.764C416.775 45.548 417.311 45.44 417.855 45.44C418.159 45.44 418.419 45.452 418.635 45.476C418.859 45.5 419.023 45.544 419.127 45.608V48.2C419.007 48.136 418.823 48.068 418.575 47.996C418.335 47.924 417.943 47.888 417.399 47.888C416.903 47.888 416.455 47.96 416.055 48.104C415.663 48.24 415.319 48.408 415.023 48.608C414.727 48.808 414.487 49 414.303 49.184ZM411.687 59V45.656H414.039L414.231 47.36L414.447 48.368V59H411.687ZM426.383 65.048C424.623 65.048 423.231 64.724 422.207 64.076C421.183 63.428 420.671 62.44 420.671 61.112C420.671 60.616 420.791 60.172 421.031 59.78C421.271 59.396 421.567 59.072 421.919 58.808C422.271 58.544 422.615 58.344 422.951 58.208L424.727 58.472C424.559 58.624 424.371 58.784 424.163 58.952C423.955 59.12 423.771 59.34 423.611 59.612C423.459 59.892 423.383 60.264 423.383 60.728C423.383 61.256 423.487 61.704 423.695 62.072C423.903 62.448 424.231 62.732 424.679 62.924C425.135 63.124 425.735 63.224 426.479 63.224C427.167 63.224 427.803 63.148 428.387 62.996C428.971 62.852 429.439 62.628 429.791 62.324C430.143 62.028 430.319 61.656 430.319 61.208C430.319 60.736 430.231 60.336 430.055 60.008C429.887 59.68 429.567 59.428 429.095 59.252C428.631 59.084 427.951 59 427.055 59H425.735C425.279 59 424.875 58.992 424.523 58.976C424.171 58.952 423.855 58.904 423.575 58.832C423.479 58.808 423.387 58.768 423.299 58.712C423.211 58.648 423.119 58.6 423.023 58.568C422.423 58.336 422.019 58.016 421.811 57.608C421.611 57.2 421.511 56.792 421.511 56.384C421.511 56.072 421.591 55.756 421.751 55.436C421.919 55.108 422.151 54.796 422.447 54.5C422.751 54.196 423.103 53.928 423.503 53.696L425.219 54.128C424.931 54.24 424.667 54.436 424.427 54.716C424.195 54.988 424.079 55.28 424.079 55.592C424.079 56.08 424.195 56.412 424.427 56.588C424.667 56.756 425.063 56.84 425.615 56.84H428.015C429.047 56.84 429.887 56.948 430.535 57.164C431.183 57.38 431.683 57.672 432.035 58.04C432.387 58.4 432.627 58.8 432.755 59.24C432.891 59.688 432.959 60.144 432.959 60.608C432.959 61.304 432.787 61.924 432.443 62.468C432.099 63.02 431.623 63.488 431.015 63.872C430.407 64.256 429.707 64.548 428.915 64.748C428.123 64.948 427.279 65.048 426.383 65.048ZM426.299 54.44C425.299 54.44 424.399 54.256 423.599 53.888C422.799 53.512 422.167 52.996 421.703 52.34C421.239 51.676 421.007 50.912 421.007 50.048C421.007 49.008 421.239 48.152 421.703 47.48C422.167 46.808 422.803 46.308 423.611 45.98C424.419 45.652 425.331 45.48 426.347 45.464C427.339 45.44 428.247 45.584 429.071 45.896C429.895 46.208 430.551 46.696 431.039 47.36C431.535 48.016 431.783 48.864 431.783 49.904C431.783 50.88 431.547 51.708 431.075 52.388C430.603 53.06 429.955 53.572 429.131 53.924C428.307 54.268 427.363 54.44 426.299 54.44ZM426.371 52.64C427.195 52.64 427.851 52.456 428.339 52.088C428.827 51.712 429.071 51.012 429.071 49.988C429.071 49.108 428.859 48.44 428.435 47.984C428.011 47.52 427.367 47.288 426.503 47.288C426.007 47.288 425.547 47.36 425.123 47.504C424.699 47.648 424.359 47.912 424.103 48.296C423.847 48.68 423.719 49.228 423.719 49.94C423.719 50.668 423.927 51.3 424.343 51.836C424.767 52.372 425.443 52.64 426.371 52.64ZM430.307 47.72L429.551 46.604C429.727 46.38 430.075 46.148 430.595 45.908C431.123 45.668 431.699 45.548 432.323 45.548H433.667V47.72H430.307ZM440.922 59.192C439.002 59.192 437.522 58.584 436.482 57.368C435.442 56.152 434.922 54.464 434.922 52.304C434.922 51.008 435.15 49.848 435.606 48.824C436.07 47.8 436.75 46.988 437.646 46.388C438.55 45.788 439.658 45.48 440.97 45.464C441.642 45.448 442.274 45.544 442.866 45.752C443.458 45.96 443.982 46.276 444.438 46.7C444.894 47.116 445.254 47.644 445.518 48.284C445.79 48.924 445.938 49.672 445.962 50.528C445.962 51.032 445.958 51.484 445.95 51.884C445.942 52.276 445.906 52.624 445.842 52.928H436.53L436.77 51.176H443.37C443.41 50.536 443.37 49.932 443.25 49.364C443.138 48.788 442.89 48.324 442.506 47.972C442.13 47.612 441.57 47.432 440.826 47.432C440.202 47.432 439.642 47.608 439.146 47.96C438.65 48.304 438.266 48.888 437.994 49.712C437.722 50.536 437.61 51.664 437.658 53.096C437.706 54.104 437.91 54.9 438.27 55.484C438.63 56.068 439.102 56.484 439.686 56.732C440.27 56.98 440.922 57.104 441.642 57.104C441.946 57.104 442.318 57.072 442.758 57.008C443.198 56.936 443.622 56.848 444.03 56.744C444.446 56.632 444.762 56.512 444.978 56.384L445.506 57.968C445.21 58.208 444.806 58.42 444.294 58.604C443.79 58.788 443.242 58.932 442.65 59.036C442.058 59.14 441.482 59.192 440.922 59.192ZM452.913 59.192C452.281 59.192 451.725 59.092 451.245 58.892C450.765 58.692 450.389 58.34 450.117 57.836C449.853 57.324 449.721 56.6 449.721 55.664V47.672H447.993V46.184C448.585 46.016 449.037 45.876 449.349 45.764C449.661 45.644 449.889 45.392 450.033 45.008C450.097 44.832 450.169 44.624 450.249 44.384C450.329 44.136 450.417 43.864 450.513 43.568C450.609 43.264 450.713 42.936 450.825 42.584H452.481V45.632H456.225V47.672H452.481V54.2C452.481 55.064 452.517 55.696 452.589 56.096C452.669 56.488 452.813 56.74 453.021 56.852C453.237 56.956 453.553 57.008 453.969 57.008C454.193 57.008 454.449 56.984 454.737 56.936C455.033 56.88 455.313 56.812 455.577 56.732C455.849 56.652 456.057 56.568 456.201 56.48L456.657 58.064C456.417 58.248 456.093 58.428 455.685 58.604C455.285 58.772 454.841 58.912 454.353 59.024C453.873 59.136 453.393 59.192 452.913 59.192ZM380.143 81L381.979 63.168H385.939L389.083 73.2L390.007 77.016L390.835 73.2L393.823 63.168H397.615L399.751 81H396.943L395.887 70.188L395.551 65.268L394.327 70.188L390.811 81.168H389.119L385.423 70.188L384.127 65.268L383.779 70.188L382.843 81H380.143ZM406.4 81.192C405.6 81.192 404.888 81.036 404.264 80.724C403.648 80.404 403.16 79.956 402.8 79.38C402.448 78.796 402.272 78.108 402.272 77.316C402.272 76.46 402.5 75.736 402.956 75.144C403.42 74.544 404.04 74.076 404.816 73.74C405.328 73.532 405.884 73.368 406.484 73.248C407.084 73.12 407.684 73.032 408.284 72.984C408.884 72.928 409.44 72.9 409.952 72.9L410.528 73.632L409.952 74.604C409.64 74.604 409.264 74.628 408.824 74.676C408.392 74.716 407.964 74.784 407.54 74.88C407.116 74.968 406.756 75.084 406.46 75.228C406.052 75.412 405.712 75.648 405.44 75.936C405.168 76.224 405.032 76.624 405.032 77.136C405.032 77.808 405.216 78.316 405.584 78.66C405.96 79.004 406.516 79.176 407.252 79.176C407.628 79.176 408.008 79.12 408.392 79.008C408.776 78.896 409.108 78.768 409.388 78.624C409.676 78.48 409.864 78.356 409.952 78.252L410.504 78.84L410.108 79.872C409.756 80.192 409.248 80.492 408.584 80.772C407.92 81.052 407.192 81.192 406.4 81.192ZM412.724 81H410.108V79.008H409.952V71.64C409.952 70.856 409.744 70.34 409.328 70.092C408.92 69.836 408.336 69.708 407.576 69.708C407.072 69.708 406.552 69.76 406.016 69.864C405.48 69.96 404.988 70.084 404.54 70.236C404.092 70.38 403.748 70.528 403.508 70.68L402.86 68.688C403.044 68.576 403.396 68.42 403.916 68.22C404.444 68.02 405.056 67.84 405.752 67.68C406.456 67.512 407.152 67.428 407.84 67.428C408.84 67.428 409.704 67.544 410.432 67.776C411.168 68.008 411.732 68.44 412.124 69.072C412.524 69.696 412.724 70.604 412.724 71.796V81ZM419.014 71.184L418.846 69.36C418.966 69.112 419.218 68.84 419.602 68.544C419.986 68.24 420.438 67.98 420.958 67.764C421.486 67.548 422.022 67.44 422.566 67.44C422.87 67.44 423.13 67.452 423.346 67.476C423.57 67.5 423.734 67.544 423.838 67.608V70.2C423.718 70.136 423.534 70.068 423.286 69.996C423.046 69.924 422.654 69.888 422.11 69.888C421.614 69.888 421.166 69.96 420.766 70.104C420.374 70.24 420.03 70.408 419.734 70.608C419.438 70.808 419.198 71 419.014 71.184ZM416.398 81V67.656H418.75L418.942 69.36L419.158 70.368V81H416.398ZM437.442 67.632L428.706 76.752L428.946 76.104L428.994 78.408V81H426.306V73.056V61.536H428.994V71.712L428.898 74.64L428.25 74.184L434.202 67.632H437.442ZM430.386 74.424L432.258 72.624L438.018 81H434.874L430.386 74.424ZM444.93 81.192C443.01 81.192 441.53 80.584 440.49 79.368C439.45 78.152 438.93 76.464 438.93 74.304C438.93 73.008 439.158 71.848 439.614 70.824C440.078 69.8 440.758 68.988 441.654 68.388C442.558 67.788 443.666 67.48 444.978 67.464C445.65 67.448 446.282 67.544 446.874 67.752C447.466 67.96 447.99 68.276 448.446 68.7C448.902 69.116 449.262 69.644 449.526 70.284C449.798 70.924 449.946 71.672 449.97 72.528C449.97 73.032 449.966 73.484 449.958 73.884C449.95 74.276 449.914 74.624 449.85 74.928H440.538L440.778 73.176H447.378C447.418 72.536 447.378 71.932 447.258 71.364C447.146 70.788 446.898 70.324 446.514 69.972C446.138 69.612 445.578 69.432 444.834 69.432C444.21 69.432 443.65 69.608 443.154 69.96C442.658 70.304 442.274 70.888 442.002 71.712C441.73 72.536 441.618 73.664 441.666 75.096C441.714 76.104 441.918 76.9 442.278 77.484C442.638 78.068 443.11 78.484 443.694 78.732C444.278 78.98 444.93 79.104 445.65 79.104C445.954 79.104 446.326 79.072 446.766 79.008C447.206 78.936 447.63 78.848 448.038 78.744C448.454 78.632 448.77 78.512 448.986 78.384L449.514 79.968C449.218 80.208 448.814 80.42 448.302 80.604C447.798 80.788 447.25 80.932 446.658 81.036C446.066 81.14 445.49 81.192 444.93 81.192ZM456.921 81.192C456.289 81.192 455.733 81.092 455.253 80.892C454.773 80.692 454.397 80.34 454.125 79.836C453.861 79.324 453.729 78.6 453.729 77.664V69.672H452.001V68.184C452.593 68.016 453.045 67.876 453.357 67.764C453.669 67.644 453.897 67.392 454.041 67.008C454.105 66.832 454.177 66.624 454.257 66.384C454.337 66.136 454.425 65.864 454.521 65.568C454.617 65.264 454.721 64.936 454.833 64.584H456.489V67.632H460.233V69.672H456.489V76.2C456.489 77.064 456.525 77.696 456.597 78.096C456.677 78.488 456.821 78.74 457.029 78.852C457.245 78.956 457.561 79.008 457.977 79.008C458.201 79.008 458.457 78.984 458.745 78.936C459.041 78.88 459.321 78.812 459.585 78.732C459.857 78.652 460.065 78.568 460.209 78.48L460.665 80.064C460.425 80.248 460.101 80.428 459.693 80.604C459.293 80.772 458.849 80.912 458.361 81.024C457.881 81.136 457.401 81.192 456.921 81.192Z" fill="white" fill-opacity="0.5"/>
<rect x="156" y="140" width="155" height="118" rx="5" fill="#12278C"/>
<path d="M192.113 191V182.66H193.208V183.725C193.408 183.575 193.671 183.41 193.996 183.23C194.326 183.045 194.688 182.885 195.083 182.75C195.478 182.61 195.878 182.535 196.283 182.525C197.193 182.51 197.838 182.752 198.218 183.253C198.598 183.747 198.788 184.61 198.788 185.84V191H197.558V185.825C197.558 185 197.441 184.407 197.206 184.047C196.971 183.682 196.493 183.515 195.773 183.545C195.513 183.55 195.236 183.602 194.941 183.702C194.646 183.802 194.358 183.93 194.078 184.085C193.798 184.24 193.553 184.4 193.343 184.565V191H192.113ZM204.591 191.12C203.421 191.12 202.523 190.745 201.898 189.995C201.273 189.24 200.961 188.195 200.961 186.86C200.961 186.025 201.106 185.285 201.396 184.64C201.686 183.99 202.108 183.48 202.663 183.11C203.218 182.735 203.896 182.545 204.696 182.54C205.141 182.53 205.543 182.6 205.903 182.75C206.268 182.895 206.581 183.107 206.841 183.387C207.106 183.662 207.311 183.995 207.456 184.385C207.606 184.77 207.686 185.2 207.696 185.675C207.696 185.935 207.693 186.17 207.688 186.38C207.683 186.585 207.666 186.775 207.636 186.95H201.696L201.801 186.125H206.541C206.571 185.615 206.528 185.155 206.413 184.745C206.303 184.335 206.103 184.01 205.813 183.77C205.523 183.53 205.126 183.41 204.621 183.41C204.141 183.41 203.711 183.54 203.331 183.8C202.951 184.055 202.653 184.465 202.438 185.03C202.228 185.595 202.136 186.335 202.161 187.25C202.186 187.965 202.318 188.537 202.558 188.967C202.798 189.397 203.121 189.71 203.526 189.905C203.931 190.095 204.391 190.19 204.906 190.19C205.161 190.19 205.433 190.157 205.723 190.092C206.018 190.027 206.293 189.947 206.548 189.852C206.808 189.752 207.011 189.655 207.156 189.56L207.411 190.355C207.231 190.505 206.986 190.637 206.676 190.753C206.366 190.867 206.026 190.957 205.656 191.023C205.291 191.088 204.936 191.12 204.591 191.12ZM211.396 191.135L208.771 182.645H210.001L211.666 188.39L212.176 190.445H211.831L212.281 188.39L213.901 182.645H215.101L216.736 188.39L217.216 190.415H216.886L217.366 188.42L218.986 182.645H220.171L217.576 191.135H216.451L214.711 185L214.366 183.275H214.636L214.261 185L212.551 191.135H211.396ZM223.988 190.52L224.183 189.59C224.288 189.665 224.466 189.75 224.716 189.845C224.971 189.94 225.261 190.022 225.586 190.092C225.916 190.162 226.248 190.2 226.583 190.205C227.118 190.205 227.556 190.097 227.896 189.882C228.241 189.662 228.413 189.34 228.413 188.915C228.413 188.62 228.321 188.375 228.136 188.18C227.951 187.985 227.726 187.822 227.461 187.692C227.201 187.562 226.953 187.45 226.718 187.355C226.193 187.145 225.728 186.917 225.323 186.672C224.923 186.427 224.608 186.142 224.378 185.817C224.153 185.487 224.043 185.095 224.048 184.64C224.058 184.16 224.196 183.765 224.461 183.455C224.731 183.145 225.086 182.915 225.526 182.765C225.966 182.615 226.448 182.54 226.973 182.54C227.463 182.53 227.906 182.577 228.301 182.682C228.696 182.782 228.968 182.875 229.118 182.96L228.908 183.89C228.813 183.82 228.668 183.75 228.473 183.68C228.278 183.61 228.053 183.552 227.798 183.507C227.548 183.462 227.288 183.44 227.018 183.44C226.418 183.44 225.966 183.547 225.661 183.762C225.356 183.977 225.198 184.25 225.188 184.58C225.183 185.015 225.341 185.35 225.661 185.585C225.986 185.815 226.368 186.025 226.808 186.215C227.243 186.4 227.671 186.602 228.091 186.822C228.511 187.042 228.858 187.312 229.133 187.632C229.413 187.947 229.553 188.345 229.553 188.825C229.553 189.56 229.288 190.127 228.758 190.527C228.233 190.923 227.528 191.12 226.643 191.12C226.288 191.12 225.938 191.09 225.593 191.03C225.248 190.975 224.933 190.902 224.648 190.812C224.368 190.722 224.148 190.625 223.988 190.52ZM233.913 191.12C233.573 191.12 233.258 191.07 232.968 190.97C232.678 190.865 232.445 190.662 232.27 190.362C232.095 190.062 232.008 189.615 232.008 189.02V183.575H230.853V182.9C231.123 182.825 231.385 182.762 231.64 182.712C231.9 182.657 232.063 182.545 232.128 182.375C232.158 182.29 232.19 182.15 232.225 181.955C232.265 181.755 232.305 181.545 232.345 181.325C232.39 181.1 232.438 180.905 232.488 180.74H233.223V182.645H235.818V183.575H233.223V188.33C233.223 188.885 233.258 189.29 233.328 189.545C233.398 189.795 233.513 189.955 233.673 190.025C233.838 190.095 234.058 190.13 234.333 190.13C234.503 190.13 234.693 190.11 234.903 190.07C235.113 190.025 235.308 189.972 235.488 189.912C235.673 189.847 235.813 189.785 235.908 189.725L236.118 190.43C235.978 190.545 235.783 190.655 235.533 190.76C235.283 190.865 235.013 190.95 234.723 191.015C234.438 191.085 234.168 191.12 233.913 191.12ZM239.912 191.12C239.422 191.12 238.984 191.027 238.599 190.842C238.219 190.657 237.919 190.392 237.699 190.047C237.484 189.697 237.377 189.28 237.377 188.795C237.377 188.245 237.529 187.78 237.834 187.4C238.144 187.015 238.592 186.715 239.177 186.5C239.502 186.375 239.862 186.277 240.257 186.207C240.652 186.132 241.039 186.08 241.419 186.05C241.804 186.02 242.142 186.005 242.432 186.005L242.702 186.35L242.432 186.785C242.232 186.785 241.974 186.797 241.659 186.822C241.344 186.847 241.022 186.89 240.692 186.95C240.367 187.005 240.087 187.08 239.852 187.175C239.432 187.33 239.114 187.53 238.899 187.775C238.684 188.02 238.577 188.33 238.577 188.705C238.577 189.14 238.709 189.5 238.974 189.785C239.239 190.065 239.672 190.205 240.272 190.205C240.627 190.205 240.957 190.157 241.262 190.062C241.572 189.967 241.832 189.862 242.042 189.747C242.252 189.627 242.387 189.535 242.447 189.47L242.717 189.71L242.522 190.205C242.297 190.415 241.954 190.62 241.494 190.82C241.039 191.02 240.512 191.12 239.912 191.12ZM243.647 191H242.507V189.815L242.432 189.8V185.135C242.432 184.495 242.269 184.067 241.944 183.852C241.624 183.637 241.137 183.53 240.482 183.53C240.202 183.53 239.904 183.567 239.589 183.642C239.279 183.712 238.992 183.802 238.727 183.912C238.462 184.022 238.257 184.13 238.112 184.235L237.812 183.365C237.907 183.3 238.104 183.2 238.404 183.065C238.709 182.93 239.072 182.807 239.492 182.698C239.912 182.583 240.347 182.525 240.797 182.525C241.367 182.525 241.864 182.6 242.289 182.75C242.719 182.9 243.052 183.167 243.287 183.552C243.527 183.937 243.647 184.48 243.647 185.18V191ZM247.391 184.655L247.301 183.845C247.386 183.705 247.561 183.532 247.826 183.327C248.091 183.122 248.406 182.94 248.771 182.78C249.136 182.62 249.511 182.54 249.896 182.54C250.086 182.54 250.246 182.547 250.376 182.562C250.511 182.577 250.616 182.6 250.691 182.63V183.785C250.616 183.745 250.503 183.705 250.353 183.665C250.208 183.625 249.981 183.605 249.671 183.605C249.331 183.605 249.011 183.665 248.711 183.785C248.416 183.9 248.153 184.04 247.923 184.205C247.698 184.365 247.521 184.515 247.391 184.655ZM246.236 191V182.66H247.286L247.361 183.845L247.466 184.37V191H246.236ZM254.567 191.12C254.227 191.12 253.912 191.07 253.622 190.97C253.332 190.865 253.1 190.662 252.925 190.362C252.75 190.062 252.662 189.615 252.662 189.02V183.575H251.507V182.9C251.777 182.825 252.04 182.762 252.295 182.712C252.555 182.657 252.717 182.545 252.782 182.375C252.812 182.29 252.845 182.15 252.88 181.955C252.92 181.755 252.96 181.545 253 181.325C253.045 181.1 253.092 180.905 253.142 180.74H253.877V182.645H256.472V183.575H253.877V188.33C253.877 188.885 253.912 189.29 253.982 189.545C254.052 189.795 254.167 189.955 254.327 190.025C254.492 190.095 254.712 190.13 254.987 190.13C255.157 190.13 255.347 190.11 255.557 190.07C255.767 190.025 255.962 189.972 256.142 189.912C256.327 189.847 256.467 189.785 256.562 189.725L256.772 190.43C256.632 190.545 256.437 190.655 256.187 190.76C255.937 190.865 255.667 190.95 255.377 191.015C255.092 191.085 254.822 191.12 254.567 191.12ZM260.821 191.12C260.286 191.12 259.856 191.035 259.531 190.865C259.206 190.69 258.961 190.445 258.796 190.13C258.631 189.81 258.519 189.432 258.459 188.997C258.404 188.562 258.376 188.08 258.376 187.55V182.645H259.591V187.595C259.591 188.295 259.644 188.825 259.749 189.185C259.859 189.545 260.039 189.787 260.289 189.912C260.539 190.037 260.881 190.1 261.316 190.1C261.596 190.1 261.884 190.06 262.179 189.98C262.474 189.9 262.746 189.8 262.996 189.68C263.251 189.56 263.456 189.44 263.611 189.32V182.645H264.841V191.09H264.361C264.166 191.09 264.014 191.06 263.904 191C263.799 190.945 263.746 190.81 263.746 190.595V189.92L263.761 190.13C263.501 190.315 263.206 190.482 262.876 190.632C262.546 190.782 262.204 190.902 261.849 190.992C261.494 191.078 261.151 191.12 260.821 191.12ZM267.551 194.705V182.645H268.661V183.71L268.766 183.86V190.475L268.751 190.64L268.766 192.02V194.705H267.551ZM270.386 191.12C269.846 191.12 269.389 191.055 269.014 190.925C268.639 190.795 268.406 190.69 268.316 190.61L268.766 189.8C268.901 189.92 269.109 190.02 269.389 190.1C269.674 190.18 270.041 190.22 270.491 190.22C271.026 190.22 271.506 190.082 271.931 189.807C272.356 189.532 272.691 189.135 272.936 188.615C273.186 188.095 273.316 187.465 273.326 186.725C273.336 185.635 273.129 184.825 272.704 184.295C272.279 183.765 271.691 183.5 270.941 183.5C270.456 183.5 270.024 183.597 269.644 183.792C269.264 183.987 268.971 184.175 268.766 184.355L268.571 183.725C268.691 183.6 268.864 183.445 269.089 183.26C269.314 183.07 269.604 182.902 269.959 182.757C270.319 182.612 270.756 182.54 271.271 182.54C271.841 182.54 272.376 182.677 272.876 182.952C273.381 183.227 273.789 183.662 274.099 184.257C274.414 184.847 274.571 185.615 274.571 186.56C274.571 187.445 274.396 188.23 274.046 188.915C273.701 189.6 273.214 190.14 272.584 190.535C271.959 190.925 271.226 191.12 270.386 191.12ZM203.186 217V209.575H201.746V208.9L203.186 208.645V207.97C203.186 207.35 203.271 206.83 203.441 206.41C203.611 205.99 203.836 205.655 204.116 205.405C204.396 205.15 204.703 204.967 205.038 204.857C205.378 204.742 205.716 204.685 206.051 204.685C206.276 204.685 206.478 204.702 206.658 204.737C206.843 204.772 206.976 204.805 207.056 204.835V205.81C206.921 205.765 206.766 205.73 206.591 205.705C206.416 205.675 206.181 205.66 205.886 205.66C205.446 205.66 205.088 205.835 204.813 206.185C204.538 206.53 204.401 207.04 204.401 207.715V208.645H206.621V209.575H204.401V217H203.186ZM211.314 217.12C210.649 217.12 210.084 217 209.619 216.76C209.154 216.52 208.776 216.192 208.486 215.777C208.196 215.362 207.986 214.887 207.856 214.352C207.726 213.817 207.664 213.255 207.669 212.665C207.684 211.78 207.859 211.03 208.194 210.415C208.534 209.8 208.986 209.335 209.551 209.02C210.121 208.7 210.759 208.54 211.464 208.54C212.334 208.54 213.036 208.742 213.571 209.147C214.111 209.552 214.501 210.09 214.741 210.76C214.986 211.425 215.104 212.15 215.094 212.935C215.079 213.825 214.906 214.582 214.576 215.207C214.251 215.827 213.806 216.302 213.241 216.632C212.676 216.957 212.034 217.12 211.314 217.12ZM211.344 216.25C212.139 216.255 212.754 215.957 213.189 215.357C213.629 214.752 213.849 213.93 213.849 212.89C213.854 212.25 213.771 211.67 213.601 211.15C213.431 210.625 213.169 210.207 212.814 209.897C212.459 209.587 212.004 209.43 211.449 209.425C210.664 209.41 210.046 209.687 209.596 210.257C209.151 210.827 208.924 211.635 208.914 212.68C208.914 213.315 208.999 213.902 209.169 214.442C209.339 214.977 209.601 215.41 209.956 215.74C210.316 216.07 210.779 216.24 211.344 216.25ZM219.454 217.12C218.919 217.12 218.489 217.035 218.164 216.865C217.839 216.69 217.594 216.445 217.429 216.13C217.264 215.81 217.152 215.432 217.092 214.997C217.037 214.562 217.009 214.08 217.009 213.55V208.645H218.224V213.595C218.224 214.295 218.277 214.825 218.382 215.185C218.492 215.545 218.672 215.787 218.922 215.912C219.172 216.037 219.514 216.1 219.949 216.1C220.229 216.1 220.517 216.06 220.812 215.98C221.107 215.9 221.379 215.8 221.629 215.68C221.884 215.56 222.089 215.44 222.244 215.32V208.645H223.474V217.09H222.994C222.799 217.09 222.647 217.06 222.537 217C222.432 216.945 222.379 216.81 222.379 216.595V215.92L222.394 216.13C222.134 216.315 221.839 216.482 221.509 216.632C221.179 216.782 220.837 216.902 220.482 216.992C220.127 217.078 219.784 217.12 219.454 217.12ZM226.259 217V208.66H227.354V209.725C227.554 209.575 227.816 209.41 228.141 209.23C228.471 209.045 228.834 208.885 229.229 208.75C229.624 208.61 230.024 208.535 230.429 208.525C231.339 208.51 231.984 208.752 232.364 209.253C232.744 209.747 232.934 210.61 232.934 211.84V217H231.704V211.825C231.704 211 231.586 210.407 231.351 210.047C231.116 209.682 230.639 209.515 229.919 209.545C229.659 209.55 229.381 209.602 229.086 209.702C228.791 209.802 228.504 209.93 228.224 210.085C227.944 210.24 227.699 210.4 227.489 210.565V217H226.259ZM240.941 217V215.845L240.881 215.815V209.665L240.926 209.635L240.881 208.315V204.805H242.066V217H240.941ZM238.361 217.12C237.791 217.12 237.254 216.983 236.749 216.707C236.249 216.427 235.841 215.992 235.526 215.402C235.216 214.807 235.061 214.04 235.061 213.1C235.061 212.21 235.234 211.422 235.579 210.737C235.929 210.052 236.416 209.515 237.041 209.125C237.671 208.735 238.406 208.54 239.246 208.54C239.786 208.54 240.249 208.602 240.634 208.727C241.019 208.852 241.256 208.96 241.346 209.05L240.896 209.845C240.761 209.725 240.546 209.625 240.251 209.545C239.961 209.465 239.586 209.425 239.126 209.425C238.596 209.425 238.119 209.562 237.694 209.837C237.274 210.112 236.939 210.512 236.689 211.037C236.444 211.557 236.316 212.19 236.306 212.935C236.291 214.02 236.496 214.83 236.921 215.365C237.351 215.895 237.941 216.16 238.691 216.16C239.181 216.16 239.621 216.06 240.011 215.86C240.401 215.66 240.696 215.475 240.896 215.305L241.091 215.935C240.971 216.055 240.796 216.21 240.566 216.4C240.336 216.585 240.039 216.752 239.674 216.902C239.314 217.048 238.876 217.12 238.361 217.12ZM247.818 217.12C246.648 217.12 245.751 216.745 245.126 215.995C244.501 215.24 244.188 214.195 244.188 212.86C244.188 212.025 244.333 211.285 244.623 210.64C244.913 209.99 245.336 209.48 245.891 209.11C246.446 208.735 247.123 208.545 247.923 208.54C248.368 208.53 248.771 208.6 249.131 208.75C249.496 208.895 249.808 209.107 250.068 209.387C250.333 209.662 250.538 209.995 250.683 210.385C250.833 210.77 250.913 211.2 250.923 211.675C250.923 211.935 250.921 212.17 250.916 212.38C250.911 212.585 250.893 212.775 250.863 212.95H244.923L245.028 212.125H249.768C249.798 211.615 249.756 211.155 249.641 210.745C249.531 210.335 249.331 210.01 249.041 209.77C248.751 209.53 248.353 209.41 247.848 209.41C247.368 209.41 246.938 209.54 246.558 209.8C246.178 210.055 245.881 210.465 245.666 211.03C245.456 211.595 245.363 212.335 245.388 213.25C245.413 213.965 245.546 214.537 245.786 214.967C246.026 215.397 246.348 215.71 246.753 215.905C247.158 216.095 247.618 216.19 248.133 216.19C248.388 216.19 248.661 216.157 248.951 216.092C249.246 216.027 249.521 215.947 249.776 215.852C250.036 215.752 250.238 215.655 250.383 215.56L250.638 216.355C250.458 216.505 250.213 216.637 249.903 216.753C249.593 216.867 249.253 216.957 248.883 217.023C248.518 217.088 248.163 217.12 247.818 217.12ZM254.158 210.655L254.068 209.845C254.153 209.705 254.328 209.532 254.593 209.327C254.858 209.122 255.173 208.94 255.538 208.78C255.903 208.62 256.278 208.54 256.663 208.54C256.853 208.54 257.013 208.547 257.143 208.562C257.278 208.577 257.383 208.6 257.458 208.63V209.785C257.383 209.745 257.271 209.705 257.121 209.665C256.976 209.625 256.748 209.605 256.438 209.605C256.098 209.605 255.778 209.665 255.478 209.785C255.183 209.9 254.921 210.04 254.691 210.205C254.466 210.365 254.288 210.515 254.158 210.655ZM253.003 217V208.66H254.053L254.128 209.845L254.233 210.37V217H253.003ZM258.515 216.52L258.71 215.59C258.815 215.665 258.992 215.75 259.242 215.845C259.497 215.94 259.787 216.022 260.112 216.092C260.442 216.162 260.775 216.2 261.11 216.205C261.645 216.205 262.082 216.097 262.422 215.882C262.767 215.662 262.94 215.34 262.94 214.915C262.94 214.62 262.847 214.375 262.662 214.18C262.477 213.985 262.252 213.822 261.987 213.692C261.727 213.562 261.48 213.45 261.245 213.355C260.72 213.145 260.255 212.917 259.85 212.672C259.45 212.427 259.135 212.142 258.905 211.817C258.68 211.487 258.57 211.095 258.575 210.64C258.585 210.16 258.722 209.765 258.987 209.455C259.257 209.145 259.612 208.915 260.052 208.765C260.492 208.615 260.975 208.54 261.5 208.54C261.99 208.53 262.432 208.577 262.827 208.682C263.222 208.782 263.495 208.875 263.645 208.96L263.435 209.89C263.34 209.82 263.195 209.75 263 209.68C262.805 209.61 262.58 209.552 262.325 209.507C262.075 209.462 261.815 209.44 261.545 209.44C260.945 209.44 260.492 209.547 260.187 209.762C259.882 209.977 259.725 210.25 259.715 210.58C259.71 211.015 259.867 211.35 260.187 211.585C260.512 211.815 260.895 212.025 261.335 212.215C261.77 212.4 262.197 212.602 262.617 212.822C263.037 213.042 263.385 213.312 263.66 213.632C263.94 213.947 264.08 214.345 264.08 214.825C264.08 215.56 263.815 216.127 263.285 216.527C262.76 216.923 262.055 217.12 261.17 217.12C260.815 217.12 260.465 217.09 260.12 217.03C259.775 216.975 259.46 216.902 259.175 216.812C258.895 216.722 258.675 216.625 258.515 216.52Z" fill="white"/>
<rect x="534" y="140" width="155" height="118" rx="5" fill="#12278C"/>
<path d="M575.122 191.12C573.952 191.12 573.054 190.745 572.429 189.995C571.804 189.24 571.492 188.195 571.492 186.86C571.492 186.025 571.637 185.285 571.927 184.64C572.217 183.99 572.639 183.48 573.194 183.11C573.749 182.735 574.427 182.545 575.227 182.54C575.672 182.53 576.074 182.6 576.434 182.75C576.799 182.895 577.112 183.107 577.372 183.387C577.637 183.662 577.842 183.995 577.987 184.385C578.137 184.77 578.217 185.2 578.227 185.675C578.227 185.935 578.224 186.17 578.219 186.38C578.214 186.585 578.197 186.775 578.167 186.95H572.227L572.332 186.125H577.072C577.102 185.615 577.059 185.155 576.944 184.745C576.834 184.335 576.634 184.01 576.344 183.77C576.054 183.53 575.657 183.41 575.152 183.41C574.672 183.41 574.242 183.54 573.862 183.8C573.482 184.055 573.184 184.465 572.969 185.03C572.759 185.595 572.667 186.335 572.692 187.25C572.717 187.965 572.849 188.537 573.089 188.967C573.329 189.397 573.652 189.71 574.057 189.905C574.462 190.095 574.922 190.19 575.437 190.19C575.692 190.19 575.964 190.157 576.254 190.092C576.549 190.027 576.824 189.947 577.079 189.852C577.339 189.752 577.542 189.655 577.687 189.56L577.942 190.355C577.762 190.505 577.517 190.637 577.207 190.753C576.897 190.867 576.557 190.957 576.187 191.023C575.822 191.088 575.467 191.12 575.122 191.12ZM579.827 190.52L580.022 189.59C580.127 189.665 580.305 189.75 580.555 189.845C580.81 189.94 581.1 190.022 581.425 190.092C581.755 190.162 582.087 190.2 582.422 190.205C582.957 190.205 583.395 190.097 583.735 189.882C584.08 189.662 584.252 189.34 584.252 188.915C584.252 188.62 584.16 188.375 583.975 188.18C583.79 187.985 583.565 187.822 583.3 187.692C583.04 187.562 582.792 187.45 582.557 187.355C582.032 187.145 581.567 186.917 581.162 186.672C580.762 186.427 580.447 186.142 580.217 185.817C579.992 185.487 579.882 185.095 579.887 184.64C579.897 184.16 580.035 183.765 580.3 183.455C580.57 183.145 580.925 182.915 581.365 182.765C581.805 182.615 582.287 182.54 582.812 182.54C583.302 182.53 583.745 182.577 584.14 182.682C584.535 182.782 584.807 182.875 584.957 182.96L584.747 183.89C584.652 183.82 584.507 183.75 584.312 183.68C584.117 183.61 583.892 183.552 583.637 183.507C583.387 183.462 583.127 183.44 582.857 183.44C582.257 183.44 581.805 183.547 581.5 183.762C581.195 183.977 581.037 184.25 581.027 184.58C581.022 185.015 581.18 185.35 581.5 185.585C581.825 185.815 582.207 186.025 582.647 186.215C583.082 186.4 583.51 186.602 583.93 186.822C584.35 187.042 584.697 187.312 584.972 187.632C585.252 187.947 585.392 188.345 585.392 188.825C585.392 189.56 585.127 190.127 584.597 190.527C584.072 190.923 583.367 191.12 582.482 191.12C582.127 191.12 581.777 191.09 581.432 191.03C581.087 190.975 580.772 190.902 580.487 190.812C580.207 190.722 579.987 190.625 579.827 190.52ZM589.752 191.12C589.412 191.12 589.097 191.07 588.807 190.97C588.517 190.865 588.284 190.662 588.109 190.362C587.934 190.062 587.847 189.615 587.847 189.02V183.575H586.692V182.9C586.962 182.825 587.224 182.762 587.479 182.712C587.739 182.657 587.902 182.545 587.967 182.375C587.997 182.29 588.029 182.15 588.064 181.955C588.104 181.755 588.144 181.545 588.184 181.325C588.229 181.1 588.277 180.905 588.327 180.74H589.062V182.645H591.657V183.575H589.062V188.33C589.062 188.885 589.097 189.29 589.167 189.545C589.237 189.795 589.352 189.955 589.512 190.025C589.677 190.095 589.897 190.13 590.172 190.13C590.342 190.13 590.532 190.11 590.742 190.07C590.952 190.025 591.147 189.972 591.327 189.912C591.512 189.847 591.652 189.785 591.747 189.725L591.957 190.43C591.817 190.545 591.622 190.655 591.372 190.76C591.122 190.865 590.852 190.95 590.562 191.015C590.277 191.085 590.007 191.12 589.752 191.12ZM595.751 191.12C595.261 191.12 594.823 191.027 594.438 190.842C594.058 190.657 593.758 190.392 593.538 190.047C593.323 189.697 593.216 189.28 593.216 188.795C593.216 188.245 593.368 187.78 593.673 187.4C593.983 187.015 594.431 186.715 595.016 186.5C595.341 186.375 595.701 186.277 596.096 186.207C596.491 186.132 596.878 186.08 597.258 186.05C597.643 186.02 597.981 186.005 598.271 186.005L598.541 186.35L598.271 186.785C598.071 186.785 597.813 186.797 597.498 186.822C597.183 186.847 596.861 186.89 596.531 186.95C596.206 187.005 595.926 187.08 595.691 187.175C595.271 187.33 594.953 187.53 594.738 187.775C594.523 188.02 594.416 188.33 594.416 188.705C594.416 189.14 594.548 189.5 594.813 189.785C595.078 190.065 595.511 190.205 596.111 190.205C596.466 190.205 596.796 190.157 597.101 190.062C597.411 189.967 597.671 189.862 597.881 189.747C598.091 189.627 598.226 189.535 598.286 189.47L598.556 189.71L598.361 190.205C598.136 190.415 597.793 190.62 597.333 190.82C596.878 191.02 596.351 191.12 595.751 191.12ZM599.486 191H598.346V189.815L598.271 189.8V185.135C598.271 184.495 598.108 184.067 597.783 183.852C597.463 183.637 596.976 183.53 596.321 183.53C596.041 183.53 595.743 183.567 595.428 183.642C595.118 183.712 594.831 183.802 594.566 183.912C594.301 184.022 594.096 184.13 593.951 184.235L593.651 183.365C593.746 183.3 593.943 183.2 594.243 183.065C594.548 182.93 594.911 182.807 595.331 182.698C595.751 182.583 596.186 182.525 596.636 182.525C597.206 182.525 597.703 182.6 598.128 182.75C598.558 182.9 598.891 183.167 599.126 183.552C599.366 183.937 599.486 184.48 599.486 185.18V191ZM602.195 178.835H603.38V182.315L603.32 183.74L603.38 183.785V189.995L602.195 190.535V178.835ZM605 191.12C604.695 191.12 604.39 191.098 604.085 191.053C603.785 191.013 603.505 190.962 603.245 190.902C602.985 190.837 602.762 190.772 602.577 190.707C602.392 190.642 602.265 190.585 602.195 190.535L603.38 189.86C603.525 189.965 603.755 190.052 604.07 190.122C604.39 190.187 604.745 190.22 605.135 190.22C605.625 190.22 606.082 190.09 606.507 189.83C606.937 189.57 607.285 189.18 607.55 188.66C607.815 188.135 607.95 187.475 607.955 186.68C607.965 185.645 607.767 184.857 607.362 184.317C606.957 183.772 606.36 183.5 605.57 183.5C605.105 183.5 604.672 183.595 604.272 183.785C603.877 183.975 603.575 184.165 603.365 184.355L603.17 183.725C603.3 183.59 603.482 183.43 603.717 183.245C603.952 183.055 604.25 182.89 604.61 182.75C604.97 182.61 605.4 182.54 605.9 182.54C606.51 182.54 607.065 182.687 607.565 182.982C608.065 183.272 608.462 183.712 608.757 184.302C609.052 184.887 609.2 185.625 609.2 186.515C609.2 187.425 609.022 188.227 608.667 188.922C608.317 189.612 607.827 190.152 607.197 190.542C606.567 190.927 605.835 191.12 605 191.12ZM611.38 191V178.805H612.61V191H611.38ZM615.512 191V182.66H616.727V191H615.512ZM616.052 180.83C615.837 180.83 615.649 180.757 615.489 180.612C615.334 180.467 615.257 180.265 615.257 180.005C615.257 179.82 615.302 179.657 615.392 179.517C615.482 179.372 615.594 179.26 615.729 179.18C615.869 179.1 616.012 179.06 616.157 179.06C616.427 179.06 616.627 179.14 616.757 179.3C616.887 179.455 616.952 179.65 616.952 179.885C616.952 180.17 616.859 180.4 616.674 180.575C616.494 180.745 616.287 180.83 616.052 180.83ZM619.012 190.52L619.207 189.59C619.312 189.665 619.489 189.75 619.739 189.845C619.994 189.94 620.284 190.022 620.609 190.092C620.939 190.162 621.272 190.2 621.607 190.205C622.142 190.205 622.579 190.097 622.919 189.882C623.264 189.662 623.437 189.34 623.437 188.915C623.437 188.62 623.344 188.375 623.159 188.18C622.974 187.985 622.749 187.822 622.484 187.692C622.224 187.562 621.977 187.45 621.742 187.355C621.217 187.145 620.752 186.917 620.347 186.672C619.947 186.427 619.632 186.142 619.402 185.817C619.177 185.487 619.067 185.095 619.072 184.64C619.082 184.16 619.219 183.765 619.484 183.455C619.754 183.145 620.109 182.915 620.549 182.765C620.989 182.615 621.472 182.54 621.997 182.54C622.487 182.53 622.929 182.577 623.324 182.682C623.719 182.782 623.992 182.875 624.142 182.96L623.932 183.89C623.837 183.82 623.692 183.75 623.497 183.68C623.302 183.61 623.077 183.552 622.822 183.507C622.572 183.462 622.312 183.44 622.042 183.44C621.442 183.44 620.989 183.547 620.684 183.762C620.379 183.977 620.222 184.25 620.212 184.58C620.207 185.015 620.364 185.35 620.684 185.585C621.009 185.815 621.392 186.025 621.832 186.215C622.267 186.4 622.694 186.602 623.114 186.822C623.534 187.042 623.882 187.312 624.157 187.632C624.437 187.947 624.577 188.345 624.577 188.825C624.577 189.56 624.312 190.127 623.782 190.527C623.257 190.923 622.552 191.12 621.667 191.12C621.312 191.12 620.962 191.09 620.617 191.03C620.272 190.975 619.957 190.902 619.672 190.812C619.392 190.722 619.172 190.625 619.012 190.52ZM626.716 191V178.805H627.946V182.525L627.871 183.815L627.811 183.725C628.011 183.56 628.276 183.387 628.606 183.207C628.941 183.022 629.311 182.865 629.716 182.735C630.121 182.605 630.531 182.535 630.946 182.525C631.871 182.51 632.534 182.767 632.934 183.297C633.339 183.822 633.536 184.735 633.526 186.035V191H632.311V185.96C632.311 185.05 632.179 184.415 631.914 184.055C631.654 183.69 631.166 183.52 630.451 183.545C630.041 183.56 629.604 183.67 629.139 183.875C628.674 184.08 628.276 184.31 627.946 184.565V191H626.716ZM639.326 191.12C638.156 191.12 637.258 190.745 636.633 189.995C636.008 189.24 635.696 188.195 635.696 186.86C635.696 186.025 635.841 185.285 636.131 184.64C636.421 183.99 636.843 183.48 637.398 183.11C637.953 182.735 638.631 182.545 639.431 182.54C639.876 182.53 640.278 182.6 640.638 182.75C641.003 182.895 641.316 183.107 641.576 183.387C641.841 183.662 642.046 183.995 642.191 184.385C642.341 184.77 642.421 185.2 642.431 185.675C642.431 185.935 642.428 186.17 642.423 186.38C642.418 186.585 642.401 186.775 642.371 186.95H636.431L636.536 186.125H641.276C641.306 185.615 641.263 185.155 641.148 184.745C641.038 184.335 640.838 184.01 640.548 183.77C640.258 183.53 639.861 183.41 639.356 183.41C638.876 183.41 638.446 183.54 638.066 183.8C637.686 184.055 637.388 184.465 637.173 185.03C636.963 185.595 636.871 186.335 636.896 187.25C636.921 187.965 637.053 188.537 637.293 188.967C637.533 189.397 637.856 189.71 638.261 189.905C638.666 190.095 639.126 190.19 639.641 190.19C639.896 190.19 640.168 190.157 640.458 190.092C640.753 190.027 641.028 189.947 641.283 189.852C641.543 189.752 641.746 189.655 641.891 189.56L642.146 190.355C641.966 190.505 641.721 190.637 641.411 190.753C641.101 190.867 640.761 190.957 640.391 191.023C640.026 191.088 639.671 191.12 639.326 191.12ZM649.851 191V189.845L649.791 189.815V183.665L649.836 183.635L649.791 182.315V178.805H650.976V191H649.851ZM647.271 191.12C646.701 191.12 646.164 190.983 645.659 190.707C645.159 190.427 644.751 189.992 644.436 189.402C644.126 188.807 643.971 188.04 643.971 187.1C643.971 186.21 644.144 185.422 644.489 184.737C644.839 184.052 645.326 183.515 645.951 183.125C646.581 182.735 647.316 182.54 648.156 182.54C648.696 182.54 649.159 182.602 649.544 182.727C649.929 182.852 650.166 182.96 650.256 183.05L649.806 183.845C649.671 183.725 649.456 183.625 649.161 183.545C648.871 183.465 648.496 183.425 648.036 183.425C647.506 183.425 647.029 183.562 646.604 183.837C646.184 184.112 645.849 184.512 645.599 185.037C645.354 185.557 645.226 186.19 645.216 186.935C645.201 188.02 645.406 188.83 645.831 189.365C646.261 189.895 646.851 190.16 647.601 190.16C648.091 190.16 648.531 190.06 648.921 189.86C649.311 189.66 649.606 189.475 649.806 189.305L650.001 189.935C649.881 190.055 649.706 190.21 649.476 190.4C649.246 190.585 648.949 190.752 648.584 190.902C648.224 191.048 647.786 191.12 647.271 191.12ZM586.236 216.52L586.431 215.59C586.536 215.665 586.713 215.75 586.963 215.845C587.218 215.94 587.508 216.022 587.833 216.092C588.163 216.162 588.496 216.2 588.831 216.205C589.366 216.205 589.803 216.097 590.143 215.882C590.488 215.662 590.661 215.34 590.661 214.915C590.661 214.62 590.568 214.375 590.383 214.18C590.198 213.985 589.973 213.822 589.708 213.692C589.448 213.562 589.201 213.45 588.966 213.355C588.441 213.145 587.976 212.917 587.571 212.672C587.171 212.427 586.856 212.142 586.626 211.817C586.401 211.487 586.291 211.095 586.296 210.64C586.306 210.16 586.443 209.765 586.708 209.455C586.978 209.145 587.333 208.915 587.773 208.765C588.213 208.615 588.696 208.54 589.221 208.54C589.711 208.53 590.153 208.577 590.548 208.682C590.943 208.782 591.216 208.875 591.366 208.96L591.156 209.89C591.061 209.82 590.916 209.75 590.721 209.68C590.526 209.61 590.301 209.552 590.046 209.507C589.796 209.462 589.536 209.44 589.266 209.44C588.666 209.44 588.213 209.547 587.908 209.762C587.603 209.977 587.446 210.25 587.436 210.58C587.431 211.015 587.588 211.35 587.908 211.585C588.233 211.815 588.616 212.025 589.056 212.215C589.491 212.4 589.918 212.602 590.338 212.822C590.758 213.042 591.106 213.312 591.381 213.632C591.661 213.947 591.801 214.345 591.801 214.825C591.801 215.56 591.536 216.127 591.006 216.527C590.481 216.923 589.776 217.12 588.891 217.12C588.536 217.12 588.186 217.09 587.841 217.03C587.496 216.975 587.181 216.902 586.896 216.812C586.616 216.722 586.396 216.625 586.236 216.52ZM596.16 217.12C595.82 217.12 595.505 217.07 595.215 216.97C594.925 216.865 594.693 216.662 594.518 216.362C594.343 216.062 594.255 215.615 594.255 215.02V209.575H593.1V208.9C593.37 208.825 593.633 208.762 593.888 208.712C594.148 208.657 594.31 208.545 594.375 208.375C594.405 208.29 594.438 208.15 594.473 207.955C594.513 207.755 594.553 207.545 594.593 207.325C594.638 207.1 594.685 206.905 594.735 206.74H595.47V208.645H598.065V209.575H595.47V214.33C595.47 214.885 595.505 215.29 595.575 215.545C595.645 215.795 595.76 215.955 595.92 216.025C596.085 216.095 596.305 216.13 596.58 216.13C596.75 216.13 596.94 216.11 597.15 216.07C597.36 216.025 597.555 215.972 597.735 215.912C597.92 215.847 598.06 215.785 598.155 215.725L598.365 216.43C598.225 216.545 598.03 216.655 597.78 216.76C597.53 216.865 597.26 216.95 596.97 217.015C596.685 217.085 596.415 217.12 596.16 217.12ZM602.159 217.12C601.669 217.12 601.232 217.027 600.847 216.842C600.467 216.657 600.167 216.392 599.947 216.047C599.732 215.697 599.624 215.28 599.624 214.795C599.624 214.245 599.777 213.78 600.082 213.4C600.392 213.015 600.839 212.715 601.424 212.5C601.749 212.375 602.109 212.277 602.504 212.207C602.899 212.132 603.287 212.08 603.667 212.05C604.052 212.02 604.389 212.005 604.679 212.005L604.949 212.35L604.679 212.785C604.479 212.785 604.222 212.797 603.907 212.822C603.592 212.847 603.269 212.89 602.939 212.95C602.614 213.005 602.334 213.08 602.099 213.175C601.679 213.33 601.362 213.53 601.147 213.775C600.932 214.02 600.824 214.33 600.824 214.705C600.824 215.14 600.957 215.5 601.222 215.785C601.487 216.065 601.919 216.205 602.519 216.205C602.874 216.205 603.204 216.157 603.509 216.062C603.819 215.967 604.079 215.862 604.289 215.747C604.499 215.627 604.634 215.535 604.694 215.47L604.964 215.71L604.769 216.205C604.544 216.415 604.202 216.62 603.742 216.82C603.287 217.02 602.759 217.12 602.159 217.12ZM605.894 217H604.754V215.815L604.679 215.8V211.135C604.679 210.495 604.517 210.067 604.192 209.852C603.872 209.637 603.384 209.53 602.729 209.53C602.449 209.53 602.152 209.567 601.837 209.642C601.527 209.712 601.239 209.802 600.974 209.912C600.709 210.022 600.504 210.13 600.359 210.235L600.059 209.365C600.154 209.3 600.352 209.2 600.652 209.065C600.957 208.93 601.319 208.807 601.739 208.698C602.159 208.583 602.594 208.525 603.044 208.525C603.614 208.525 604.112 208.6 604.537 208.75C604.967 208.9 605.299 209.167 605.534 209.552C605.774 209.937 605.894 210.48 605.894 211.18V217ZM609.638 210.655L609.548 209.845C609.633 209.705 609.808 209.532 610.073 209.327C610.338 209.122 610.653 208.94 611.018 208.78C611.383 208.62 611.758 208.54 612.143 208.54C612.333 208.54 612.493 208.547 612.623 208.562C612.758 208.577 612.863 208.6 612.938 208.63V209.785C612.863 209.745 612.751 209.705 612.601 209.665C612.456 209.625 612.228 209.605 611.918 209.605C611.578 209.605 611.258 209.665 610.958 209.785C610.663 209.9 610.401 210.04 610.171 210.205C609.946 210.365 609.768 210.515 609.638 210.655ZM608.483 217V208.66H609.533L609.608 209.845L609.713 210.37V217H608.483ZM616.815 217.12C616.475 217.12 616.16 217.07 615.87 216.97C615.58 216.865 615.347 216.662 615.172 216.362C614.997 216.062 614.91 215.615 614.91 215.02V209.575H613.755V208.9C614.025 208.825 614.287 208.762 614.542 208.712C614.802 208.657 614.965 208.545 615.03 208.375C615.06 208.29 615.092 208.15 615.127 207.955C615.167 207.755 615.207 207.545 615.247 207.325C615.292 207.1 615.34 206.905 615.39 206.74H616.125V208.645H618.72V209.575H616.125V214.33C616.125 214.885 616.16 215.29 616.23 215.545C616.3 215.795 616.415 215.955 616.575 216.025C616.74 216.095 616.96 216.13 617.235 216.13C617.405 216.13 617.595 216.11 617.805 216.07C618.015 216.025 618.21 215.972 618.39 215.912C618.575 215.847 618.715 215.785 618.81 215.725L619.02 216.43C618.88 216.545 618.685 216.655 618.435 216.76C618.185 216.865 617.915 216.95 617.625 217.015C617.34 217.085 617.07 217.12 616.815 217.12ZM623.069 217.12C622.534 217.12 622.104 217.035 621.779 216.865C621.454 216.69 621.209 216.445 621.044 216.13C620.879 215.81 620.766 215.432 620.706 214.997C620.651 214.562 620.624 214.08 620.624 213.55V208.645H621.839V213.595C621.839 214.295 621.891 214.825 621.996 215.185C622.106 215.545 622.286 215.787 622.536 215.912C622.786 216.037 623.129 216.1 623.564 216.1C623.844 216.1 624.131 216.06 624.426 215.98C624.721 215.9 624.994 215.8 625.244 215.68C625.499 215.56 625.704 215.44 625.859 215.32V208.645H627.089V217.09H626.609C626.414 217.09 626.261 217.06 626.151 217C626.046 216.945 625.994 216.81 625.994 216.595V215.92L626.009 216.13C625.749 216.315 625.454 216.482 625.124 216.632C624.794 216.782 624.451 216.902 624.096 216.992C623.741 217.078 623.399 217.12 623.069 217.12ZM629.799 220.705V208.645H630.909V209.71L631.014 209.86V216.475L630.999 216.64L631.014 218.02V220.705H629.799ZM632.634 217.12C632.094 217.12 631.636 217.055 631.261 216.925C630.886 216.795 630.654 216.69 630.564 216.61L631.014 215.8C631.149 215.92 631.356 216.02 631.636 216.1C631.921 216.18 632.289 216.22 632.739 216.22C633.274 216.22 633.754 216.082 634.179 215.807C634.604 215.532 634.939 215.135 635.184 214.615C635.434 214.095 635.564 213.465 635.574 212.725C635.584 211.635 635.376 210.825 634.951 210.295C634.526 209.765 633.939 209.5 633.189 209.5C632.704 209.5 632.271 209.597 631.891 209.792C631.511 209.987 631.219 210.175 631.014 210.355L630.819 209.725C630.939 209.6 631.111 209.445 631.336 209.26C631.561 209.07 631.851 208.902 632.206 208.757C632.566 208.612 633.004 208.54 633.519 208.54C634.089 208.54 634.624 208.677 635.124 208.952C635.629 209.227 636.036 209.662 636.346 210.257C636.661 210.847 636.819 211.615 636.819 212.56C636.819 213.445 636.644 214.23 636.294 214.915C635.949 215.6 635.461 216.14 634.831 216.535C634.206 216.925 633.474 217.12 632.634 217.12ZM581.686 243V235.575H580.246V234.9L581.686 234.645V233.97C581.686 233.35 581.771 232.83 581.941 232.41C582.111 231.99 582.336 231.655 582.616 231.405C582.896 231.15 583.203 230.967 583.538 230.857C583.878 230.742 584.216 230.685 584.551 230.685C584.776 230.685 584.978 230.702 585.158 230.737C585.343 230.772 585.476 230.805 585.556 230.835V231.81C585.421 231.765 585.266 231.73 585.091 231.705C584.916 231.675 584.681 231.66 584.386 231.66C583.946 231.66 583.588 231.835 583.313 232.185C583.038 232.53 582.901 233.04 582.901 233.715V234.645H585.121V235.575H582.901V243H581.686ZM589.814 243.12C589.149 243.12 588.584 243 588.119 242.76C587.654 242.52 587.276 242.192 586.986 241.777C586.696 241.362 586.486 240.887 586.356 240.352C586.226 239.817 586.164 239.255 586.169 238.665C586.184 237.78 586.359 237.03 586.694 236.415C587.034 235.8 587.486 235.335 588.051 235.02C588.621 234.7 589.259 234.54 589.964 234.54C590.834 234.54 591.536 234.742 592.071 235.147C592.611 235.552 593.001 236.09 593.241 236.76C593.486 237.425 593.604 238.15 593.594 238.935C593.579 239.825 593.406 240.582 593.076 241.207C592.751 241.827 592.306 242.302 591.741 242.632C591.176 242.957 590.534 243.12 589.814 243.12ZM589.844 242.25C590.639 242.255 591.254 241.957 591.689 241.357C592.129 240.752 592.349 239.93 592.349 238.89C592.354 238.25 592.271 237.67 592.101 237.15C591.931 236.625 591.669 236.207 591.314 235.897C590.959 235.587 590.504 235.43 589.949 235.425C589.164 235.41 588.546 235.687 588.096 236.257C587.651 236.827 587.424 237.635 587.414 238.68C587.414 239.315 587.499 239.902 587.669 240.442C587.839 240.977 588.101 241.41 588.456 241.74C588.816 242.07 589.279 242.24 589.844 242.25ZM597.954 243.12C597.419 243.12 596.989 243.035 596.664 242.865C596.339 242.69 596.094 242.445 595.929 242.13C595.764 241.81 595.652 241.432 595.592 240.997C595.537 240.562 595.509 240.08 595.509 239.55V234.645H596.724V239.595C596.724 240.295 596.777 240.825 596.882 241.185C596.992 241.545 597.172 241.787 597.422 241.912C597.672 242.037 598.014 242.1 598.449 242.1C598.729 242.1 599.017 242.06 599.312 241.98C599.607 241.9 599.879 241.8 600.129 241.68C600.384 241.56 600.589 241.44 600.744 241.32V234.645H601.974V243.09H601.494C601.299 243.09 601.147 243.06 601.037 243C600.932 242.945 600.879 242.81 600.879 242.595V241.92L600.894 242.13C600.634 242.315 600.339 242.482 600.009 242.632C599.679 242.782 599.337 242.902 598.982 242.992C598.627 243.078 598.284 243.12 597.954 243.12ZM604.759 243V234.66H605.854V235.725C606.054 235.575 606.316 235.41 606.641 235.23C606.971 235.045 607.334 234.885 607.729 234.75C608.124 234.61 608.524 234.535 608.929 234.525C609.839 234.51 610.484 234.752 610.864 235.253C611.244 235.747 611.434 236.61 611.434 237.84V243H610.204V237.825C610.204 237 610.086 236.407 609.851 236.047C609.616 235.682 609.139 235.515 608.419 235.545C608.159 235.55 607.881 235.602 607.586 235.702C607.291 235.802 607.004 235.93 606.724 236.085C606.444 236.24 606.199 236.4 605.989 236.565V243H604.759ZM619.441 243V241.845L619.381 241.815V235.665L619.426 235.635L619.381 234.315V230.805H620.566V243H619.441ZM616.861 243.12C616.291 243.12 615.754 242.983 615.249 242.707C614.749 242.427 614.341 241.992 614.026 241.402C613.716 240.807 613.561 240.04 613.561 239.1C613.561 238.21 613.734 237.422 614.079 236.737C614.429 236.052 614.916 235.515 615.541 235.125C616.171 234.735 616.906 234.54 617.746 234.54C618.286 234.54 618.749 234.602 619.134 234.727C619.519 234.852 619.756 234.96 619.846 235.05L619.396 235.845C619.261 235.725 619.046 235.625 618.751 235.545C618.461 235.465 618.086 235.425 617.626 235.425C617.096 235.425 616.619 235.562 616.194 235.837C615.774 236.112 615.439 236.512 615.189 237.037C614.944 237.557 614.816 238.19 614.806 238.935C614.791 240.02 614.996 240.83 615.421 241.365C615.851 241.895 616.441 242.16 617.191 242.16C617.681 242.16 618.121 242.06 618.511 241.86C618.901 241.66 619.196 241.475 619.396 241.305L619.591 241.935C619.471 242.055 619.296 242.21 619.066 242.4C618.836 242.585 618.539 242.752 618.174 242.902C617.814 243.048 617.376 243.12 616.861 243.12ZM626.318 243.12C625.148 243.12 624.251 242.745 623.626 241.995C623.001 241.24 622.688 240.195 622.688 238.86C622.688 238.025 622.833 237.285 623.123 236.64C623.413 235.99 623.836 235.48 624.391 235.11C624.946 234.735 625.623 234.545 626.423 234.54C626.868 234.53 627.271 234.6 627.631 234.75C627.996 234.895 628.308 235.107 628.568 235.387C628.833 235.662 629.038 235.995 629.183 236.385C629.333 236.77 629.413 237.2 629.423 237.675C629.423 237.935 629.421 238.17 629.416 238.38C629.411 238.585 629.393 238.775 629.363 238.95H623.423L623.528 238.125H628.268C628.298 237.615 628.256 237.155 628.141 236.745C628.031 236.335 627.831 236.01 627.541 235.77C627.251 235.53 626.853 235.41 626.348 235.41C625.868 235.41 625.438 235.54 625.058 235.8C624.678 236.055 624.381 236.465 624.166 237.03C623.956 237.595 623.863 238.335 623.888 239.25C623.913 239.965 624.046 240.537 624.286 240.967C624.526 241.397 624.848 241.71 625.253 241.905C625.658 242.095 626.118 242.19 626.633 242.19C626.888 242.19 627.161 242.157 627.451 242.092C627.746 242.027 628.021 241.947 628.276 241.852C628.536 241.752 628.738 241.655 628.883 241.56L629.138 242.355C628.958 242.505 628.713 242.637 628.403 242.753C628.093 242.867 627.753 242.957 627.383 243.023C627.018 243.088 626.663 243.12 626.318 243.12ZM632.658 236.655L632.568 235.845C632.653 235.705 632.828 235.532 633.093 235.327C633.358 235.122 633.673 234.94 634.038 234.78C634.403 234.62 634.778 234.54 635.163 234.54C635.353 234.54 635.513 234.547 635.643 234.562C635.778 234.577 635.883 234.6 635.958 234.63V235.785C635.883 235.745 635.771 235.705 635.621 235.665C635.476 235.625 635.248 235.605 634.938 235.605C634.598 235.605 634.278 235.665 633.978 235.785C633.683 235.9 633.421 236.04 633.191 236.205C632.966 236.365 632.788 236.515 632.658 236.655ZM631.503 243V234.66H632.553L632.628 235.845L632.733 236.37V243H631.503ZM637.015 242.52L637.21 241.59C637.315 241.665 637.492 241.75 637.742 241.845C637.997 241.94 638.287 242.022 638.612 242.092C638.942 242.162 639.275 242.2 639.61 242.205C640.145 242.205 640.582 242.097 640.922 241.882C641.267 241.662 641.44 241.34 641.44 240.915C641.44 240.62 641.347 240.375 641.162 240.18C640.977 239.985 640.752 239.822 640.487 239.692C640.227 239.562 639.98 239.45 639.745 239.355C639.22 239.145 638.755 238.917 638.35 238.672C637.95 238.427 637.635 238.142 637.405 237.817C637.18 237.487 637.07 237.095 637.075 236.64C637.085 236.16 637.222 235.765 637.487 235.455C637.757 235.145 638.112 234.915 638.552 234.765C638.992 234.615 639.475 234.54 640 234.54C640.49 234.53 640.932 234.577 641.327 234.682C641.722 234.782 641.995 234.875 642.145 234.96L641.935 235.89C641.84 235.82 641.695 235.75 641.5 235.68C641.305 235.61 641.08 235.552 640.825 235.507C640.575 235.462 640.315 235.44 640.045 235.44C639.445 235.44 638.992 235.547 638.687 235.762C638.382 235.977 638.225 236.25 638.215 236.58C638.21 237.015 638.367 237.35 638.687 237.585C639.012 237.815 639.395 238.025 639.835 238.215C640.27 238.4 640.697 238.602 641.117 238.822C641.537 239.042 641.885 239.312 642.16 239.632C642.44 239.947 642.58 240.345 642.58 240.825C642.58 241.56 642.315 242.127 641.785 242.527C641.26 242.923 640.555 243.12 639.67 243.12C639.315 243.12 638.965 243.09 638.62 243.03C638.275 242.975 637.96 242.902 637.675 242.812C637.395 242.722 637.175 242.625 637.015 242.52Z" fill="white"/>
<rect x="342" y="301" width="155" height="118" rx="5" fill="#12278C"/>
<path d="M389.686 352V344.575H388.246V343.9L389.686 343.645V342.97C389.686 342.35 389.771 341.83 389.941 341.41C390.111 340.99 390.336 340.655 390.616 340.405C390.896 340.15 391.203 339.967 391.538 339.857C391.878 339.742 392.216 339.685 392.551 339.685C392.776 339.685 392.978 339.702 393.158 339.737C393.343 339.772 393.476 339.805 393.556 339.835V340.81C393.421 340.765 393.266 340.73 393.091 340.705C392.916 340.675 392.681 340.66 392.386 340.66C391.946 340.66 391.588 340.835 391.313 341.185C391.038 341.53 390.901 342.04 390.901 342.715V343.645H393.121V344.575H390.901V352H389.686ZM397.814 352.12C397.149 352.12 396.584 352 396.119 351.76C395.654 351.52 395.276 351.192 394.986 350.777C394.696 350.362 394.486 349.887 394.356 349.352C394.226 348.817 394.164 348.255 394.169 347.665C394.184 346.78 394.359 346.03 394.694 345.415C395.034 344.8 395.486 344.335 396.051 344.02C396.621 343.7 397.259 343.54 397.964 343.54C398.834 343.54 399.536 343.742 400.071 344.147C400.611 344.552 401.001 345.09 401.241 345.76C401.486 346.425 401.604 347.15 401.594 347.935C401.579 348.825 401.406 349.582 401.076 350.207C400.751 350.827 400.306 351.302 399.741 351.632C399.176 351.957 398.534 352.12 397.814 352.12ZM397.844 351.25C398.639 351.255 399.254 350.957 399.689 350.357C400.129 349.752 400.349 348.93 400.349 347.89C400.354 347.25 400.271 346.67 400.101 346.15C399.931 345.625 399.669 345.207 399.314 344.897C398.959 344.587 398.504 344.43 397.949 344.425C397.164 344.41 396.546 344.687 396.096 345.257C395.651 345.827 395.424 346.635 395.414 347.68C395.414 348.315 395.499 348.902 395.669 349.442C395.839 349.977 396.101 350.41 396.456 350.74C396.816 351.07 397.279 351.24 397.844 351.25ZM405.954 352.12C405.419 352.12 404.989 352.035 404.664 351.865C404.339 351.69 404.094 351.445 403.929 351.13C403.764 350.81 403.652 350.432 403.592 349.997C403.537 349.562 403.509 349.08 403.509 348.55V343.645H404.724V348.595C404.724 349.295 404.777 349.825 404.882 350.185C404.992 350.545 405.172 350.787 405.422 350.912C405.672 351.037 406.014 351.1 406.449 351.1C406.729 351.1 407.017 351.06 407.312 350.98C407.607 350.9 407.879 350.8 408.129 350.68C408.384 350.56 408.589 350.44 408.744 350.32V343.645H409.974V352.09H409.494C409.299 352.09 409.147 352.06 409.037 352C408.932 351.945 408.879 351.81 408.879 351.595V350.92L408.894 351.13C408.634 351.315 408.339 351.482 408.009 351.632C407.679 351.782 407.337 351.902 406.982 351.992C406.627 352.078 406.284 352.12 405.954 352.12ZM412.759 352V343.66H413.854V344.725C414.054 344.575 414.316 344.41 414.641 344.23C414.971 344.045 415.334 343.885 415.729 343.75C416.124 343.61 416.524 343.535 416.929 343.525C417.839 343.51 418.484 343.752 418.864 344.253C419.244 344.747 419.434 345.61 419.434 346.84V352H418.204V346.825C418.204 346 418.086 345.407 417.851 345.047C417.616 344.682 417.139 344.515 416.419 344.545C416.159 344.55 415.881 344.602 415.586 344.702C415.291 344.802 415.004 344.93 414.724 345.085C414.444 345.24 414.199 345.4 413.989 345.565V352H412.759ZM427.441 352V350.845L427.381 350.815V344.665L427.426 344.635L427.381 343.315V339.805H428.566V352H427.441ZM424.861 352.12C424.291 352.12 423.754 351.983 423.249 351.707C422.749 351.427 422.341 350.992 422.026 350.402C421.716 349.807 421.561 349.04 421.561 348.1C421.561 347.21 421.734 346.422 422.079 345.737C422.429 345.052 422.916 344.515 423.541 344.125C424.171 343.735 424.906 343.54 425.746 343.54C426.286 343.54 426.749 343.602 427.134 343.727C427.519 343.852 427.756 343.96 427.846 344.05L427.396 344.845C427.261 344.725 427.046 344.625 426.751 344.545C426.461 344.465 426.086 344.425 425.626 344.425C425.096 344.425 424.619 344.562 424.194 344.837C423.774 345.112 423.439 345.512 423.189 346.037C422.944 346.557 422.816 347.19 422.806 347.935C422.791 349.02 422.996 349.83 423.421 350.365C423.851 350.895 424.441 351.16 425.191 351.16C425.681 351.16 426.121 351.06 426.511 350.86C426.901 350.66 427.196 350.475 427.396 350.305L427.591 350.935C427.471 351.055 427.296 351.21 427.066 351.4C426.836 351.585 426.539 351.752 426.174 351.902C425.814 352.048 425.376 352.12 424.861 352.12ZM434.318 352.12C433.148 352.12 432.251 351.745 431.626 350.995C431.001 350.24 430.688 349.195 430.688 347.86C430.688 347.025 430.833 346.285 431.123 345.64C431.413 344.99 431.836 344.48 432.391 344.11C432.946 343.735 433.623 343.545 434.423 343.54C434.868 343.53 435.271 343.6 435.631 343.75C435.996 343.895 436.308 344.107 436.568 344.387C436.833 344.662 437.038 344.995 437.183 345.385C437.333 345.77 437.413 346.2 437.423 346.675C437.423 346.935 437.421 347.17 437.416 347.38C437.411 347.585 437.393 347.775 437.363 347.95H431.423L431.528 347.125H436.268C436.298 346.615 436.256 346.155 436.141 345.745C436.031 345.335 435.831 345.01 435.541 344.77C435.251 344.53 434.853 344.41 434.348 344.41C433.868 344.41 433.438 344.54 433.058 344.8C432.678 345.055 432.381 345.465 432.166 346.03C431.956 346.595 431.863 347.335 431.888 348.25C431.913 348.965 432.046 349.537 432.286 349.967C432.526 350.397 432.848 350.71 433.253 350.905C433.658 351.095 434.118 351.19 434.633 351.19C434.888 351.19 435.161 351.157 435.451 351.092C435.746 351.027 436.021 350.947 436.276 350.852C436.536 350.752 436.738 350.655 436.883 350.56L437.138 351.355C436.958 351.505 436.713 351.637 436.403 351.753C436.093 351.867 435.753 351.957 435.383 352.023C435.018 352.088 434.663 352.12 434.318 352.12ZM440.658 345.655L440.568 344.845C440.653 344.705 440.828 344.532 441.093 344.327C441.358 344.122 441.673 343.94 442.038 343.78C442.403 343.62 442.778 343.54 443.163 343.54C443.353 343.54 443.513 343.547 443.643 343.562C443.778 343.577 443.883 343.6 443.958 343.63V344.785C443.883 344.745 443.771 344.705 443.621 344.665C443.476 344.625 443.248 344.605 442.938 344.605C442.598 344.605 442.278 344.665 441.978 344.785C441.683 344.9 441.421 345.04 441.191 345.205C440.966 345.365 440.788 345.515 440.658 345.655ZM439.503 352V343.66H440.553L440.628 344.845L440.733 345.37V352H439.503ZM445.015 351.52L445.21 350.59C445.315 350.665 445.492 350.75 445.742 350.845C445.997 350.94 446.287 351.022 446.612 351.092C446.942 351.162 447.275 351.2 447.61 351.205C448.145 351.205 448.582 351.097 448.922 350.882C449.267 350.662 449.44 350.34 449.44 349.915C449.44 349.62 449.347 349.375 449.162 349.18C448.977 348.985 448.752 348.822 448.487 348.692C448.227 348.562 447.98 348.45 447.745 348.355C447.22 348.145 446.755 347.917 446.35 347.672C445.95 347.427 445.635 347.142 445.405 346.817C445.18 346.487 445.07 346.095 445.075 345.64C445.085 345.16 445.222 344.765 445.487 344.455C445.757 344.145 446.112 343.915 446.552 343.765C446.992 343.615 447.475 343.54 448 343.54C448.49 343.53 448.932 343.577 449.327 343.682C449.722 343.782 449.995 343.875 450.145 343.96L449.935 344.89C449.84 344.82 449.695 344.75 449.5 344.68C449.305 344.61 449.08 344.552 448.825 344.507C448.575 344.462 448.315 344.44 448.045 344.44C447.445 344.44 446.992 344.547 446.687 344.762C446.382 344.977 446.225 345.25 446.215 345.58C446.21 346.015 446.367 346.35 446.687 346.585C447.012 346.815 447.395 347.025 447.835 347.215C448.27 347.4 448.697 347.602 449.117 347.822C449.537 348.042 449.885 348.312 450.16 348.632C450.44 348.947 450.58 349.345 450.58 349.825C450.58 350.56 450.315 351.127 449.785 351.527C449.26 351.923 448.555 352.12 447.67 352.12C447.315 352.12 446.965 352.09 446.62 352.03C446.275 351.975 445.96 351.902 445.675 351.812C445.395 351.722 445.175 351.625 445.015 351.52ZM392.844 377.52L393.039 376.59C393.144 376.665 393.322 376.75 393.572 376.845C393.827 376.94 394.117 377.022 394.442 377.092C394.772 377.162 395.104 377.2 395.439 377.205C395.974 377.205 396.412 377.097 396.752 376.882C397.097 376.662 397.269 376.34 397.269 375.915C397.269 375.62 397.177 375.375 396.992 375.18C396.807 374.985 396.582 374.822 396.317 374.692C396.057 374.562 395.809 374.45 395.574 374.355C395.049 374.145 394.584 373.917 394.179 373.672C393.779 373.427 393.464 373.142 393.234 372.817C393.009 372.487 392.899 372.095 392.904 371.64C392.914 371.16 393.052 370.765 393.317 370.455C393.587 370.145 393.942 369.915 394.382 369.765C394.822 369.615 395.304 369.54 395.829 369.54C396.319 369.53 396.762 369.577 397.157 369.682C397.552 369.782 397.824 369.875 397.974 369.96L397.764 370.89C397.669 370.82 397.524 370.75 397.329 370.68C397.134 370.61 396.909 370.552 396.654 370.507C396.404 370.462 396.144 370.44 395.874 370.44C395.274 370.44 394.822 370.547 394.517 370.762C394.212 370.977 394.054 371.25 394.044 371.58C394.039 372.015 394.197 372.35 394.517 372.585C394.842 372.815 395.224 373.025 395.664 373.215C396.099 373.4 396.527 373.602 396.947 373.822C397.367 374.042 397.714 374.312 397.989 374.632C398.269 374.947 398.409 375.345 398.409 375.825C398.409 376.56 398.144 377.127 397.614 377.527C397.089 377.923 396.384 378.12 395.499 378.12C395.144 378.12 394.794 378.09 394.449 378.03C394.104 377.975 393.789 377.902 393.504 377.812C393.224 377.722 393.004 377.625 392.844 377.52ZM403.564 378.12C402.394 378.12 401.496 377.745 400.871 376.995C400.246 376.24 399.934 375.195 399.934 373.86C399.934 373.025 400.079 372.285 400.369 371.64C400.659 370.99 401.081 370.48 401.636 370.11C402.191 369.735 402.869 369.545 403.669 369.54C404.114 369.53 404.516 369.6 404.876 369.75C405.241 369.895 405.554 370.107 405.814 370.387C406.079 370.662 406.284 370.995 406.429 371.385C406.579 371.77 406.659 372.2 406.669 372.675C406.669 372.935 406.666 373.17 406.661 373.38C406.656 373.585 406.639 373.775 406.609 373.95H400.669L400.774 373.125H405.514C405.544 372.615 405.501 372.155 405.386 371.745C405.276 371.335 405.076 371.01 404.786 370.77C404.496 370.53 404.099 370.41 403.594 370.41C403.114 370.41 402.684 370.54 402.304 370.8C401.924 371.055 401.626 371.465 401.411 372.03C401.201 372.595 401.109 373.335 401.134 374.25C401.159 374.965 401.291 375.537 401.531 375.967C401.771 376.397 402.094 376.71 402.499 376.905C402.904 377.095 403.364 377.19 403.879 377.19C404.134 377.19 404.406 377.157 404.696 377.092C404.991 377.027 405.266 376.947 405.521 376.852C405.781 376.752 405.984 376.655 406.129 376.56L406.384 377.355C406.204 377.505 405.959 377.637 405.649 377.753C405.339 377.867 404.999 377.957 404.629 378.023C404.264 378.088 403.909 378.12 403.564 378.12ZM411.884 378.12C410.714 378.12 409.816 377.745 409.191 376.995C408.566 376.24 408.254 375.195 408.254 373.86C408.254 373.025 408.399 372.285 408.689 371.64C408.979 370.99 409.401 370.48 409.956 370.11C410.511 369.735 411.189 369.545 411.989 369.54C412.434 369.53 412.836 369.6 413.196 369.75C413.561 369.895 413.874 370.107 414.134 370.387C414.399 370.662 414.604 370.995 414.749 371.385C414.899 371.77 414.979 372.2 414.989 372.675C414.989 372.935 414.986 373.17 414.981 373.38C414.976 373.585 414.959 373.775 414.929 373.95H408.989L409.094 373.125H413.834C413.864 372.615 413.821 372.155 413.706 371.745C413.596 371.335 413.396 371.01 413.106 370.77C412.816 370.53 412.419 370.41 411.914 370.41C411.434 370.41 411.004 370.54 410.624 370.8C410.244 371.055 409.946 371.465 409.731 372.03C409.521 372.595 409.429 373.335 409.454 374.25C409.479 374.965 409.611 375.537 409.851 375.967C410.091 376.397 410.414 376.71 410.819 376.905C411.224 377.095 411.684 377.19 412.199 377.19C412.454 377.19 412.726 377.157 413.016 377.092C413.311 377.027 413.586 376.947 413.841 376.852C414.101 376.752 414.304 376.655 414.449 376.56L414.704 377.355C414.524 377.505 414.279 377.637 413.969 377.753C413.659 377.867 413.319 377.957 412.949 378.023C412.584 378.088 412.229 378.12 411.884 378.12ZM423.759 369.66L418.194 375.195L418.329 374.88L418.359 376.365V378H417.189V373.905V365.835H418.359V372.81L418.314 374.28L417.984 374.07L422.304 369.66H423.759ZM419.574 373.59L420.414 372.81L424.119 378H422.709L419.574 373.59ZM425.819 378V369.66H427.034V378H425.819ZM426.359 367.83C426.144 367.83 425.956 367.757 425.796 367.612C425.641 367.467 425.564 367.265 425.564 367.005C425.564 366.82 425.609 366.657 425.699 366.517C425.789 366.372 425.901 366.26 426.036 366.18C426.176 366.1 426.319 366.06 426.464 366.06C426.734 366.06 426.934 366.14 427.064 366.3C427.194 366.455 427.259 366.65 427.259 366.885C427.259 367.17 427.166 367.4 426.981 367.575C426.801 367.745 426.594 367.83 426.359 367.83ZM429.949 378V369.66H431.044V370.725C431.244 370.575 431.506 370.41 431.831 370.23C432.161 370.045 432.524 369.885 432.919 369.75C433.314 369.61 433.714 369.535 434.119 369.525C435.029 369.51 435.674 369.752 436.054 370.253C436.434 370.747 436.624 371.61 436.624 372.84V378H435.394V372.825C435.394 372 435.276 371.407 435.041 371.047C434.806 370.682 434.329 370.515 433.609 370.545C433.349 370.55 433.071 370.602 432.776 370.702C432.481 370.802 432.194 370.93 431.914 371.085C431.634 371.24 431.389 371.4 431.179 371.565V378H429.949ZM442.261 381.78C441.206 381.78 440.358 381.595 439.718 381.225C439.083 380.855 438.766 380.255 438.766 379.425C438.766 379.11 438.841 378.828 438.991 378.578C439.141 378.328 439.318 378.118 439.523 377.947C439.733 377.777 439.926 377.655 440.101 377.58L440.926 377.7C440.806 377.785 440.671 377.895 440.521 378.03C440.371 378.165 440.241 378.333 440.131 378.533C440.021 378.738 439.966 378.985 439.966 379.275C439.966 379.665 440.051 379.983 440.221 380.228C440.391 380.473 440.648 380.653 440.993 380.768C441.338 380.883 441.776 380.94 442.306 380.94C442.786 380.94 443.241 380.883 443.671 380.768C444.101 380.658 444.451 380.485 444.721 380.25C444.991 380.02 445.126 379.725 445.126 379.365C445.126 379.045 445.056 378.785 444.916 378.585C444.781 378.385 444.551 378.238 444.226 378.143C443.906 378.048 443.471 378 442.921 378H441.796C441.506 378 441.246 377.987 441.016 377.962C440.791 377.937 440.596 377.91 440.431 377.88C440.386 377.87 440.341 377.852 440.296 377.827C440.251 377.797 440.206 377.775 440.161 377.76C439.796 377.64 439.561 377.452 439.456 377.197C439.356 376.942 439.306 376.68 439.306 376.41C439.306 376.215 439.361 376.017 439.471 375.817C439.581 375.612 439.726 375.417 439.906 375.232C440.086 375.042 440.281 374.875 440.491 374.73L441.271 374.955C441.106 375.03 440.921 375.177 440.716 375.397C440.516 375.617 440.416 375.855 440.416 376.11C440.416 376.46 440.506 376.702 440.686 376.837C440.866 376.972 441.176 377.04 441.616 377.04H443.431C444.026 377.04 444.511 377.097 444.886 377.212C445.261 377.327 445.551 377.485 445.756 377.685C445.961 377.88 446.101 378.1 446.176 378.345C446.256 378.59 446.296 378.845 446.296 379.11C446.296 379.52 446.191 379.89 445.981 380.22C445.776 380.55 445.488 380.83 445.118 381.06C444.748 381.295 444.318 381.473 443.828 381.593C443.343 381.718 442.821 381.78 442.261 381.78ZM442.231 375.21C441.631 375.21 441.088 375.097 440.603 374.872C440.123 374.642 439.741 374.322 439.456 373.912C439.176 373.497 439.036 373.01 439.036 372.45C439.036 371.79 439.181 371.247 439.471 370.822C439.766 370.397 440.158 370.08 440.648 369.87C441.138 369.66 441.681 369.55 442.276 369.54C442.856 369.525 443.393 369.615 443.888 369.81C444.383 370.005 444.781 370.31 445.081 370.725C445.381 371.135 445.531 371.66 445.531 372.3C445.531 372.93 445.383 373.462 445.088 373.897C444.793 374.327 444.396 374.655 443.896 374.88C443.396 375.1 442.841 375.21 442.231 375.21ZM442.246 374.4C442.856 374.4 443.353 374.242 443.738 373.927C444.123 373.612 444.316 373.085 444.316 372.345C444.316 371.675 444.138 371.177 443.783 370.852C443.433 370.527 442.951 370.365 442.336 370.365C441.976 370.37 441.636 370.432 441.316 370.552C441.001 370.672 440.743 370.88 440.543 371.175C440.348 371.465 440.251 371.87 440.251 372.39C440.251 372.96 440.421 373.437 440.761 373.822C441.101 374.207 441.596 374.4 442.246 374.4ZM444.571 370.65L444.136 370.17C444.251 370.055 444.486 369.945 444.841 369.84C445.196 369.73 445.561 369.675 445.936 369.675H446.626V370.65H444.571ZM388.26 404V395.66H389.475V404H388.26ZM388.8 393.83C388.585 393.83 388.398 393.757 388.238 393.612C388.083 393.467 388.005 393.265 388.005 393.005C388.005 392.82 388.05 392.657 388.14 392.517C388.23 392.372 388.343 392.26 388.478 392.18C388.618 392.1 388.76 392.06 388.905 392.06C389.175 392.06 389.375 392.14 389.505 392.3C389.635 392.455 389.7 392.65 389.7 392.885C389.7 393.17 389.608 393.4 389.423 393.575C389.243 393.745 389.035 393.83 388.8 393.83ZM392.39 404V395.66H393.485V396.725C393.685 396.575 393.948 396.41 394.273 396.23C394.603 396.045 394.965 395.885 395.36 395.75C395.755 395.61 396.155 395.535 396.56 395.525C397.47 395.51 398.115 395.752 398.495 396.253C398.875 396.747 399.065 397.61 399.065 398.84V404H397.835V398.825C397.835 398 397.718 397.407 397.483 397.047C397.248 396.682 396.77 396.515 396.05 396.545C395.79 396.55 395.513 396.602 395.218 396.702C394.923 396.802 394.635 396.93 394.355 397.085C394.075 397.24 393.83 397.4 393.62 397.565V404H392.39ZM404.057 404.135L400.712 395.645H402.032L403.922 400.835L404.777 403.43H404.417L405.197 400.835L407.027 395.645H408.332L405.092 404.135H404.057ZM412.88 404.12C411.71 404.12 410.813 403.745 410.188 402.995C409.563 402.24 409.25 401.195 409.25 399.86C409.25 399.025 409.395 398.285 409.685 397.64C409.975 396.99 410.398 396.48 410.953 396.11C411.508 395.735 412.185 395.545 412.985 395.54C413.43 395.53 413.833 395.6 414.193 395.75C414.558 395.895 414.87 396.107 415.13 396.387C415.395 396.662 415.6 396.995 415.745 397.385C415.895 397.77 415.975 398.2 415.985 398.675C415.985 398.935 415.983 399.17 415.978 399.38C415.973 399.585 415.955 399.775 415.925 399.95H409.985L410.09 399.125H414.83C414.86 398.615 414.818 398.155 414.703 397.745C414.593 397.335 414.393 397.01 414.103 396.77C413.813 396.53 413.415 396.41 412.91 396.41C412.43 396.41 412 396.54 411.62 396.8C411.24 397.055 410.943 397.465 410.728 398.03C410.518 398.595 410.425 399.335 410.45 400.25C410.475 400.965 410.608 401.537 410.848 401.967C411.088 402.397 411.41 402.71 411.815 402.905C412.22 403.095 412.68 403.19 413.195 403.19C413.45 403.19 413.723 403.157 414.013 403.092C414.308 403.027 414.583 402.947 414.838 402.852C415.098 402.752 415.3 402.655 415.445 402.56L415.7 403.355C415.52 403.505 415.275 403.637 414.965 403.753C414.655 403.867 414.315 403.957 413.945 404.023C413.58 404.088 413.225 404.12 412.88 404.12ZM417.585 403.52L417.78 402.59C417.885 402.665 418.063 402.75 418.313 402.845C418.568 402.94 418.858 403.022 419.183 403.092C419.513 403.162 419.845 403.2 420.18 403.205C420.715 403.205 421.153 403.097 421.493 402.882C421.838 402.662 422.01 402.34 422.01 401.915C422.01 401.62 421.918 401.375 421.733 401.18C421.548 400.985 421.323 400.822 421.058 400.692C420.798 400.562 420.55 400.45 420.315 400.355C419.79 400.145 419.325 399.917 418.92 399.672C418.52 399.427 418.205 399.142 417.975 398.817C417.75 398.487 417.64 398.095 417.645 397.64C417.655 397.16 417.793 396.765 418.058 396.455C418.328 396.145 418.683 395.915 419.123 395.765C419.563 395.615 420.045 395.54 420.57 395.54C421.06 395.53 421.503 395.577 421.898 395.682C422.293 395.782 422.565 395.875 422.715 395.96L422.505 396.89C422.41 396.82 422.265 396.75 422.07 396.68C421.875 396.61 421.65 396.552 421.395 396.507C421.145 396.462 420.885 396.44 420.615 396.44C420.015 396.44 419.563 396.547 419.258 396.762C418.953 396.977 418.795 397.25 418.785 397.58C418.78 398.015 418.938 398.35 419.258 398.585C419.583 398.815 419.965 399.025 420.405 399.215C420.84 399.4 421.268 399.602 421.688 399.822C422.108 400.042 422.455 400.312 422.73 400.632C423.01 400.947 423.15 401.345 423.15 401.825C423.15 402.56 422.885 403.127 422.355 403.527C421.83 403.923 421.125 404.12 420.24 404.12C419.885 404.12 419.535 404.09 419.19 404.03C418.845 403.975 418.53 403.902 418.245 403.812C417.965 403.722 417.745 403.625 417.585 403.52ZM427.51 404.12C427.17 404.12 426.855 404.07 426.565 403.97C426.275 403.865 426.042 403.662 425.867 403.362C425.692 403.062 425.605 402.615 425.605 402.02V396.575H424.45V395.9C424.72 395.825 424.982 395.762 425.237 395.712C425.497 395.657 425.66 395.545 425.725 395.375C425.755 395.29 425.787 395.15 425.822 394.955C425.862 394.755 425.902 394.545 425.942 394.325C425.987 394.1 426.035 393.905 426.085 393.74H426.82V395.645H429.415V396.575H426.82V401.33C426.82 401.885 426.855 402.29 426.925 402.545C426.995 402.795 427.11 402.955 427.27 403.025C427.435 403.095 427.655 403.13 427.93 403.13C428.1 403.13 428.29 403.11 428.5 403.07C428.71 403.025 428.905 402.972 429.085 402.912C429.27 402.847 429.41 402.785 429.505 402.725L429.715 403.43C429.575 403.545 429.38 403.655 429.13 403.76C428.88 403.865 428.61 403.95 428.32 404.015C428.035 404.085 427.765 404.12 427.51 404.12ZM434.574 404.12C433.909 404.12 433.344 404 432.879 403.76C432.414 403.52 432.037 403.192 431.747 402.777C431.457 402.362 431.247 401.887 431.117 401.352C430.987 400.817 430.924 400.255 430.929 399.665C430.944 398.78 431.119 398.03 431.454 397.415C431.794 396.8 432.247 396.335 432.812 396.02C433.382 395.7 434.019 395.54 434.724 395.54C435.594 395.54 436.297 395.742 436.832 396.147C437.372 396.552 437.762 397.09 438.002 397.76C438.247 398.425 438.364 399.15 438.354 399.935C438.339 400.825 438.167 401.582 437.837 402.207C437.512 402.827 437.067 403.302 436.502 403.632C435.937 403.957 435.294 404.12 434.574 404.12ZM434.604 403.25C435.399 403.255 436.014 402.957 436.449 402.357C436.889 401.752 437.109 400.93 437.109 399.89C437.114 399.25 437.032 398.67 436.862 398.15C436.692 397.625 436.429 397.207 436.074 396.897C435.719 396.587 435.264 396.43 434.709 396.425C433.924 396.41 433.307 396.687 432.857 397.257C432.412 397.827 432.184 398.635 432.174 399.68C432.174 400.315 432.259 400.902 432.429 401.442C432.599 401.977 432.862 402.41 433.217 402.74C433.577 403.07 434.039 403.24 434.604 403.25ZM441.559 397.655L441.469 396.845C441.554 396.705 441.729 396.532 441.994 396.327C442.259 396.122 442.574 395.94 442.939 395.78C443.304 395.62 443.679 395.54 444.064 395.54C444.254 395.54 444.414 395.547 444.544 395.562C444.679 395.577 444.784 395.6 444.859 395.63V396.785C444.784 396.745 444.672 396.705 444.522 396.665C444.377 396.625 444.149 396.605 443.839 396.605C443.499 396.605 443.179 396.665 442.879 396.785C442.584 396.9 442.322 397.04 442.092 397.205C441.867 397.365 441.689 397.515 441.559 397.655ZM440.404 404V395.66H441.454L441.529 396.845L441.634 397.37V404H440.404ZM445.915 403.52L446.11 402.59C446.215 402.665 446.393 402.75 446.643 402.845C446.898 402.94 447.188 403.022 447.513 403.092C447.843 403.162 448.175 403.2 448.51 403.205C449.045 403.205 449.483 403.097 449.823 402.882C450.168 402.662 450.34 402.34 450.34 401.915C450.34 401.62 450.248 401.375 450.063 401.18C449.878 400.985 449.653 400.822 449.388 400.692C449.128 400.562 448.88 400.45 448.645 400.355C448.12 400.145 447.655 399.917 447.25 399.672C446.85 399.427 446.535 399.142 446.305 398.817C446.08 398.487 445.97 398.095 445.975 397.64C445.985 397.16 446.123 396.765 446.388 396.455C446.658 396.145 447.013 395.915 447.453 395.765C447.893 395.615 448.375 395.54 448.9 395.54C449.39 395.53 449.833 395.577 450.228 395.682C450.623 395.782 450.895 395.875 451.045 395.96L450.835 396.89C450.74 396.82 450.595 396.75 450.4 396.68C450.205 396.61 449.98 396.552 449.725 396.507C449.475 396.462 449.215 396.44 448.945 396.44C448.345 396.44 447.893 396.547 447.588 396.762C447.283 396.977 447.125 397.25 447.115 397.58C447.11 398.015 447.268 398.35 447.588 398.585C447.913 398.815 448.295 399.025 448.735 399.215C449.17 399.4 449.598 399.602 450.018 399.822C450.438 400.042 450.785 400.312 451.06 400.632C451.34 400.947 451.48 401.345 451.48 401.825C451.48 402.56 451.215 403.127 450.685 403.527C450.16 403.923 449.455 404.12 448.57 404.12C448.215 404.12 447.865 404.09 447.52 404.03C447.175 403.975 446.86 403.902 446.575 403.812C446.295 403.722 446.075 403.625 445.915 403.52Z" fill="white"/>
</svg>
