<svg width="26" height="12" viewBox="0 0 26 12" fill="none" xmlns="http://www.w3.org/2000/svg">
<path d="M0.556818 2.36435L0.556818 0.818182H8.6804V2.36435H5.53338L5.53338 11H3.70384L3.70384 2.36435H0.556818ZM14.1665 5.16832V6.64986H9.58274V5.16832H14.1665ZM25.237 5.90909C25.237 7.00616 25.0315 7.94579 24.6206 8.72798C24.2129 9.50687 23.6561 10.1035 22.9501 10.5178C22.2475 10.9321 21.4503 11.1392 20.5588 11.1392C19.6672 11.1392 18.8684 10.9321 18.1625 10.5178C17.4598 10.1001 16.903 9.50189 16.492 8.72301C16.0843 7.94081 15.8805 7.00284 15.8805 5.90909C15.8805 4.81203 16.0843 3.87405 16.492 3.09517C16.903 2.31297 17.4598 1.71473 18.1625 1.30043C18.8684 0.886126 19.6672 0.678977 20.5588 0.678977C21.4503 0.678977 22.2475 0.886126 22.9501 1.30043C23.6561 1.71473 24.2129 2.31297 24.6206 3.09517C25.0315 3.87405 25.237 4.81203 25.237 5.90909ZM23.3826 5.90909C23.3826 5.13684 23.2617 4.48556 23.0197 3.95526C22.7811 3.42164 22.4496 3.01894 22.0254 2.74716C21.6011 2.47206 21.1123 2.33452 20.5588 2.33452C20.0053 2.33452 19.5164 2.47206 19.0922 2.74716C18.6679 3.01894 18.3348 3.42164 18.0929 3.95526C17.8542 4.48556 17.7349 5.13684 17.7349 5.90909C17.7349 6.68134 17.8542 7.33428 18.0929 7.8679C18.3348 8.3982 18.6679 8.8009 19.0922 9.07599C19.5164 9.34777 20.0053 9.48366 20.5588 9.48366C21.1123 9.48366 21.6011 9.34777 22.0254 9.07599C22.4496 8.8009 22.7811 8.3982 23.0197 7.8679C23.2617 7.33428 23.3826 6.68134 23.3826 5.90909Z" fill="#A2A1A9"/>
</svg>
