<svg width="3577" height="480" viewBox="0 0 3577 480" fill="none" xmlns="http://www.w3.org/2000/svg">
<path d="M92.3327 320.445V325H5.04752V320.445H10.5875C15.4298 320.445 19.3283 319.583 22.2829 317.86C24.4169 316.711 26.0583 314.741 27.2074 311.95C28.1102 309.981 28.5616 304.81 28.5616 296.438V186.624C28.5616 178.088 28.1102 172.754 27.2074 170.62C26.3045 168.486 24.4579 166.639 21.6674 165.08C18.959 163.438 15.2657 162.618 10.5875 162.618H5.04752V158.063H92.3327V162.618H86.7927C81.9504 162.618 78.0519 163.479 75.0972 165.203C72.9633 166.352 71.2808 168.322 70.0497 171.112C69.1469 173.082 68.6955 178.253 68.6955 186.624V296.438C68.6955 304.974 69.1469 310.309 70.0497 312.443C71.0346 314.577 72.8812 316.464 75.5897 318.106C78.3802 319.665 82.1145 320.445 86.7927 320.445H92.3327ZM101.566 325V320.445H107.106C111.948 320.445 115.642 319.706 118.186 318.229C120.812 316.67 122.741 314.577 123.972 311.95C124.711 310.227 125.08 305.056 125.08 296.438V186.624C125.08 178.088 124.629 172.754 123.726 170.62C122.823 168.486 120.976 166.639 118.186 165.08C115.477 163.438 111.784 162.618 107.106 162.618H101.566V158.063H176.294C196.238 158.063 212.283 160.771 224.43 166.188C239.285 172.836 250.529 182.89 258.162 196.35C265.877 209.81 269.734 225.035 269.734 242.024C269.734 253.76 267.847 264.594 264.071 274.525C260.296 284.374 255.413 292.54 249.421 299.024C243.43 305.425 236.495 310.596 228.616 314.536C220.819 318.393 211.257 321.389 199.931 323.523C194.925 324.508 187.045 325 176.294 325H101.566ZM165.214 167.542V297.793C165.214 304.687 165.542 308.914 166.199 310.473C166.855 312.032 167.963 313.222 169.523 314.043C171.739 315.274 174.94 315.89 179.125 315.89C192.832 315.89 203.296 311.212 210.518 301.855C220.367 289.216 225.292 269.6 225.292 243.009C225.292 221.587 221.927 204.475 215.197 191.672C209.862 181.659 203.009 174.847 194.637 171.235C188.728 168.691 178.92 167.46 165.214 167.542ZM349.141 167.665V235.622H352.465C363.052 235.622 370.726 232.298 375.486 225.65C380.246 219.002 383.283 209.194 384.596 196.227H389.274V283.635H384.596C383.611 274.114 381.519 266.317 378.318 260.244C375.199 254.171 371.547 250.108 367.361 248.056C363.175 245.922 357.102 244.855 349.141 244.855V291.883C349.141 301.076 349.51 306.698 350.249 308.749C351.069 310.801 352.547 312.484 354.681 313.797C356.814 315.11 360.262 315.767 365.022 315.767H374.994C390.588 315.767 403.063 312.156 412.419 304.933C421.858 297.711 428.629 286.713 432.732 271.939H437.287L429.778 325H285.493V320.445H291.033C295.875 320.445 299.773 319.583 302.728 317.86C304.862 316.711 306.503 314.741 307.652 311.95C308.555 309.981 309.007 304.81 309.007 296.438V186.624C309.007 179.073 308.801 174.436 308.391 172.713C307.57 169.84 306.052 167.624 303.836 166.065C300.717 163.767 296.449 162.618 291.033 162.618H285.493V158.063H425.223V207.43H420.544C418.164 195.365 414.799 186.706 410.449 181.453C406.182 176.201 400.108 172.343 392.229 169.881C387.633 168.404 379.015 167.665 366.376 167.665H349.141ZM553.504 277.479H494.534L487.516 293.73C485.218 299.147 484.069 303.62 484.069 307.149C484.069 311.827 485.957 315.274 489.732 317.49C491.948 318.803 497.406 319.788 506.106 320.445V325H450.583V320.445C456.575 319.542 461.499 317.08 465.357 313.058C469.214 308.955 473.974 300.542 479.637 287.821L539.346 154.615H541.685L601.886 291.514C607.631 304.482 612.35 312.648 616.044 316.013C618.834 318.557 622.774 320.035 627.862 320.445V325H547.102V320.445H550.426C556.91 320.445 561.465 319.542 564.091 317.736C565.897 316.423 566.799 314.536 566.799 312.073C566.799 310.596 566.553 309.078 566.061 307.518C565.897 306.78 564.666 303.702 562.367 298.285L553.504 277.479ZM549.318 268.369L524.45 210.877L498.843 268.369H549.318ZM789.875 158.063V203.244H785.443C782.817 192.821 779.903 185.352 776.702 180.838C773.501 176.242 769.111 172.59 763.53 169.881C760.411 168.404 754.953 167.665 747.156 167.665H734.722V296.438C734.722 304.974 735.173 310.309 736.076 312.443C737.061 314.577 738.907 316.464 741.616 318.106C744.406 319.665 748.182 320.445 752.942 320.445H758.482V325H671.074V320.445H676.614C681.456 320.445 685.355 319.583 688.309 317.86C690.443 316.711 692.126 314.741 693.357 311.95C694.26 309.981 694.711 304.81 694.711 296.438V167.665H682.646C671.402 167.665 663.236 170.045 658.147 174.806C651.007 181.453 646.493 190.933 644.605 203.244H639.927V158.063H789.875ZM867.681 167.665V235.622H871.005C881.592 235.622 889.266 232.298 894.026 225.65C898.787 219.002 901.823 209.194 903.137 196.227H907.815V283.635H903.137C902.152 274.114 900.059 266.317 896.858 260.244C893.739 254.171 890.087 250.108 885.901 248.056C881.715 245.922 875.642 244.855 867.681 244.855V291.883C867.681 301.076 868.05 306.698 868.789 308.749C869.61 310.801 871.087 312.484 873.221 313.797C875.355 315.11 878.802 315.767 883.562 315.767H893.534C909.128 315.767 921.603 312.156 930.959 304.933C940.398 297.711 947.169 286.713 951.273 271.939H955.828L948.318 325H804.033V320.445H809.573C814.415 320.445 818.314 319.583 821.268 317.86C823.402 316.711 825.044 314.741 826.193 311.95C827.095 309.981 827.547 304.81 827.547 296.438V186.624C827.547 179.073 827.342 174.436 826.931 172.713C826.111 169.84 824.592 167.624 822.376 166.065C819.257 163.767 814.99 162.618 809.573 162.618H804.033V158.063H943.763V207.43H939.085C936.705 195.365 933.34 186.706 928.99 181.453C924.722 176.201 918.648 172.343 910.769 169.881C906.173 168.404 897.556 167.665 884.916 167.665H867.681Z" fill="white" fill-opacity="0.24"/>
<path d="M1189.1 320.445V325H1101.81V320.445H1107.35C1112.19 320.445 1116.09 319.583 1119.05 317.86C1121.18 316.711 1122.82 314.741 1123.97 311.95C1124.87 309.981 1125.33 304.81 1125.33 296.438V186.624C1125.33 178.088 1124.87 172.754 1123.97 170.62C1123.07 168.486 1121.22 166.639 1118.43 165.08C1115.72 163.438 1112.03 162.618 1107.35 162.618H1101.81V158.063H1189.1V162.618H1183.56C1178.71 162.618 1174.82 163.479 1171.86 165.203C1169.73 166.352 1168.04 168.322 1166.81 171.112C1165.91 173.082 1165.46 178.253 1165.46 186.624V296.438C1165.46 304.974 1165.91 310.309 1166.81 312.443C1167.8 314.577 1169.65 316.464 1172.35 318.106C1175.14 319.665 1178.88 320.445 1183.56 320.445H1189.1ZM1257.79 158.063L1340.15 261.598V189.825C1340.15 179.812 1338.72 173.041 1335.84 169.512C1331.9 164.752 1325.3 162.453 1316.02 162.618V158.063H1371.18V162.618C1364.12 163.52 1359.36 164.711 1356.9 166.188C1354.52 167.583 1352.63 169.922 1351.23 173.205C1349.92 176.406 1349.26 181.946 1349.26 189.825V328.816H1345.08L1232.19 189.825V295.946C1232.19 305.549 1234.36 312.032 1238.71 315.397C1243.14 318.762 1248.19 320.445 1253.85 320.445H1257.79V325H1198.58V320.445C1207.77 320.363 1214.17 318.475 1217.78 314.782C1221.39 311.089 1223.2 304.81 1223.2 295.946V178.13L1219.63 173.698C1216.1 169.266 1212.98 166.352 1210.27 164.957C1207.56 163.561 1203.66 162.782 1198.58 162.618V158.063H1257.79ZM1440 158.063L1522.36 261.598V189.825C1522.36 179.812 1520.92 173.041 1518.05 169.512C1514.11 164.752 1507.5 162.453 1498.23 162.618V158.063H1553.38V162.618C1546.32 163.52 1541.56 164.711 1539.1 166.188C1536.72 167.583 1534.83 169.922 1533.44 173.205C1532.12 176.406 1531.47 181.946 1531.47 189.825V328.816H1527.28L1414.39 189.825V295.946C1414.39 305.549 1416.56 312.032 1420.91 315.397C1425.35 318.762 1430.39 320.445 1436.06 320.445H1440V325H1380.78V320.445C1389.97 320.363 1396.37 318.475 1399.98 314.782C1403.6 311.089 1405.4 304.81 1405.4 295.946V178.13L1401.83 173.698C1398.3 169.266 1395.18 166.352 1392.47 164.957C1389.77 163.561 1385.87 162.782 1380.78 162.618V158.063H1440ZM1656.79 155.723C1683.38 154.739 1704.97 162.495 1721.55 178.991C1738.21 195.488 1746.54 216.13 1746.54 240.916C1746.54 262.091 1740.34 280.721 1727.95 296.808C1711.54 318.147 1688.35 328.816 1658.39 328.816C1628.35 328.816 1605.13 318.639 1588.71 298.285C1575.74 282.199 1569.26 263.117 1569.26 241.039C1569.26 216.253 1577.67 195.611 1594.5 179.114C1611.41 162.536 1632.17 154.739 1656.79 155.723ZM1658.27 163.603C1643 163.603 1631.39 171.399 1623.43 186.993C1616.95 199.797 1613.7 218.181 1613.7 242.147C1613.7 270.626 1618.71 291.678 1628.72 305.302C1635.7 314.823 1645.47 319.583 1658.02 319.583C1666.48 319.583 1673.54 317.531 1679.2 313.428C1686.42 308.175 1692.04 299.803 1696.06 288.313C1700.09 276.741 1702.1 261.68 1702.1 243.132C1702.1 221.054 1700.05 204.557 1695.94 193.641C1691.84 182.644 1686.59 174.888 1680.18 170.374C1673.86 165.86 1666.56 163.603 1658.27 163.603ZM1935.14 158.063V162.618C1929.07 163.603 1923.65 166.844 1918.89 172.343C1915.45 176.447 1910.32 186.091 1903.51 201.274L1846.01 328.816H1841.95L1784.7 196.104C1777.81 180.099 1773.17 170.702 1770.79 167.911C1768.49 165.121 1764.1 163.356 1757.62 162.618V158.063H1837.64V162.618H1834.93C1827.71 162.618 1822.79 163.52 1820.16 165.326C1818.27 166.557 1817.33 168.363 1817.33 170.743C1817.33 172.22 1817.66 173.985 1818.31 176.037C1818.97 178.006 1821.19 183.382 1824.96 192.164L1860.54 275.263L1893.53 201.274C1897.47 192.328 1899.89 186.337 1900.8 183.3C1901.7 180.263 1902.15 177.678 1902.15 175.544C1902.15 173.082 1901.49 170.907 1900.18 169.019C1898.87 167.132 1896.94 165.695 1894.4 164.711C1890.87 163.315 1886.19 162.618 1880.36 162.618V158.063H1935.14ZM2042.74 277.479H1983.77L1976.76 293.73C1974.46 299.147 1973.31 303.62 1973.31 307.149C1973.31 311.827 1975.2 315.274 1978.97 317.49C1981.19 318.803 1986.65 319.788 1995.35 320.445V325H1939.82V320.445C1945.81 319.542 1950.74 317.08 1954.6 313.058C1958.45 308.955 1963.21 300.542 1968.88 287.821L2028.59 154.615H2030.92L2091.13 291.514C2096.87 304.482 2101.59 312.648 2105.28 316.013C2108.07 318.557 2112.01 320.035 2117.1 320.445V325H2036.34V320.445H2039.67C2046.15 320.445 2050.7 319.542 2053.33 317.736C2055.14 316.423 2056.04 314.536 2056.04 312.073C2056.04 310.596 2055.79 309.078 2055.3 307.518C2055.14 306.78 2053.91 303.702 2051.61 298.285L2042.74 277.479ZM2038.56 268.369L2013.69 210.877L1988.08 268.369H2038.56ZM2279.11 158.063V203.244H2274.68C2272.06 192.821 2269.14 185.352 2265.94 180.838C2262.74 176.242 2258.35 172.59 2252.77 169.881C2249.65 168.404 2244.19 167.665 2236.4 167.665H2223.96V296.438C2223.96 304.974 2224.41 310.309 2225.32 312.443C2226.3 314.577 2228.15 316.464 2230.86 318.106C2233.65 319.665 2237.42 320.445 2242.18 320.445H2247.72V325H2160.31V320.445H2165.85C2170.7 320.445 2174.59 319.583 2177.55 317.86C2179.68 316.711 2181.37 314.741 2182.6 311.95C2183.5 309.981 2183.95 304.81 2183.95 296.438V167.665H2171.89C2160.64 167.665 2152.48 170.045 2147.39 174.806C2140.25 181.453 2135.73 190.933 2133.84 203.244H2129.17V158.063H2279.11ZM2356.92 167.665V235.622H2360.24C2370.83 235.622 2378.51 232.298 2383.27 225.65C2388.03 219.002 2391.06 209.194 2392.38 196.227H2397.05V283.635H2392.38C2391.39 274.114 2389.3 266.317 2386.1 260.244C2382.98 254.171 2379.33 250.108 2375.14 248.056C2370.95 245.922 2364.88 244.855 2356.92 244.855V291.883C2356.92 301.076 2357.29 306.698 2358.03 308.749C2358.85 310.801 2360.33 312.484 2362.46 313.797C2364.59 315.11 2368.04 315.767 2372.8 315.767H2382.77C2398.37 315.767 2410.84 312.156 2420.2 304.933C2429.64 297.711 2436.41 286.713 2440.51 271.939H2445.07L2437.56 325H2293.27V320.445H2298.81C2303.65 320.445 2307.55 319.583 2310.51 317.86C2312.64 316.711 2314.28 314.741 2315.43 311.95C2316.34 309.981 2316.79 304.81 2316.79 296.438V186.624C2316.79 179.073 2316.58 174.436 2316.17 172.713C2315.35 169.84 2313.83 167.624 2311.62 166.065C2308.5 163.767 2304.23 162.618 2298.81 162.618H2293.27V158.063H2433V207.43H2428.32C2425.94 195.365 2422.58 186.706 2418.23 181.453C2413.96 176.201 2407.89 172.343 2400.01 169.881C2395.41 168.404 2386.8 167.665 2374.16 167.665H2356.92Z" fill="white" fill-opacity="0.24"/>
<path d="M2583.45 325V320.445H2588.99C2593.83 320.445 2597.53 319.706 2600.07 318.229C2602.7 316.67 2604.63 314.577 2605.86 311.95C2606.6 310.227 2606.97 305.056 2606.97 296.438V186.624C2606.97 178.088 2606.51 172.754 2605.61 170.62C2604.71 168.486 2602.86 166.639 2600.07 165.08C2597.36 163.438 2593.67 162.618 2588.99 162.618H2583.45V158.063H2658.18C2678.12 158.063 2694.17 160.771 2706.32 166.188C2721.17 172.836 2732.41 182.89 2740.05 196.35C2747.76 209.81 2751.62 225.035 2751.62 242.024C2751.62 253.76 2749.73 264.594 2745.96 274.525C2742.18 284.374 2737.3 292.54 2731.31 299.024C2725.32 305.425 2718.38 310.596 2710.5 314.536C2702.7 318.393 2693.14 321.389 2681.82 323.523C2676.81 324.508 2668.93 325 2658.18 325H2583.45ZM2647.1 167.542V297.793C2647.1 304.687 2647.43 308.914 2648.08 310.473C2648.74 312.032 2649.85 313.222 2651.41 314.043C2653.62 315.274 2656.82 315.89 2661.01 315.89C2674.72 315.89 2685.18 311.212 2692.4 301.855C2702.25 289.216 2707.18 269.6 2707.18 243.009C2707.18 221.587 2703.81 204.475 2697.08 191.672C2691.75 181.659 2684.89 174.847 2676.52 171.235C2670.61 168.691 2660.81 167.46 2647.1 167.542ZM2831.03 167.665V235.622H2834.35C2844.94 235.622 2852.61 232.298 2857.37 225.65C2862.13 219.002 2865.17 209.194 2866.48 196.227H2871.16V283.635H2866.48C2865.5 274.114 2863.4 266.317 2860.2 260.244C2857.08 254.171 2853.43 250.108 2849.25 248.056C2845.06 245.922 2838.99 244.855 2831.03 244.855V291.883C2831.03 301.076 2831.4 306.698 2832.13 308.749C2832.95 310.801 2834.43 312.484 2836.57 313.797C2838.7 315.11 2842.15 315.767 2846.91 315.767H2856.88C2872.47 315.767 2884.95 312.156 2894.3 304.933C2903.74 297.711 2910.51 286.713 2914.62 271.939H2919.17L2911.66 325H2767.38V320.445H2772.92C2777.76 320.445 2781.66 319.583 2784.61 317.86C2786.75 316.711 2788.39 314.741 2789.54 311.95C2790.44 309.981 2790.89 304.81 2790.89 296.438V186.624C2790.89 179.073 2790.69 174.436 2790.28 172.713C2789.46 169.84 2787.94 167.624 2785.72 166.065C2782.6 163.767 2778.33 162.618 2772.92 162.618H2767.38V158.063H2907.11V207.43H2902.43C2900.05 195.365 2896.68 186.706 2892.33 181.453C2888.07 176.201 2881.99 172.343 2874.11 169.881C2869.52 168.404 2860.9 167.665 2848.26 167.665H2831.03ZM3048.93 154.246L3050.29 209.892H3045.24C3042.86 195.939 3036.99 184.736 3027.63 176.283C3018.36 167.747 3008.3 163.479 2997.47 163.479C2989.1 163.479 2982.45 165.736 2977.53 170.25C2972.68 174.682 2970.26 179.812 2970.26 185.639C2970.26 189.333 2971.13 192.615 2972.85 195.488C2975.23 199.346 2979.05 203.162 2984.3 206.937C2988.16 209.646 2997.06 214.447 3011.01 221.341C3030.55 230.944 3043.72 240.013 3050.53 248.549C3057.26 257.084 3060.63 266.851 3060.63 277.849C3060.63 291.801 3055.17 303.825 3044.25 313.92C3033.42 323.933 3019.63 328.94 3002.89 328.94C2997.63 328.94 2992.67 328.406 2987.99 327.339C2983.31 326.272 2977.44 324.261 2970.39 321.307C2966.45 319.665 2963.21 318.844 2960.66 318.844C2958.53 318.844 2956.27 319.665 2953.89 321.307C2951.51 322.948 2949.58 325.451 2948.1 328.816H2943.55V265.784H2948.1C2951.71 283.512 2958.65 297.054 2968.91 306.41C2979.25 315.685 2990.37 320.322 3002.27 320.322C3011.46 320.322 3018.77 317.819 3024.19 312.812C3029.68 307.806 3032.43 301.978 3032.43 295.33C3032.43 291.391 3031.37 287.574 3029.23 283.881C3027.18 280.188 3024.02 276.7 3019.75 273.417C3015.49 270.052 3007.94 265.702 2997.1 260.367C2981.92 252.898 2971 246.538 2964.35 241.285C2957.71 236.032 2952.58 230.164 2948.97 223.68C2945.44 217.196 2943.67 210.056 2943.67 202.259C2943.67 188.963 2948.56 177.637 2958.32 168.281C2968.09 158.924 2980.4 154.246 2995.25 154.246C3000.67 154.246 3005.92 154.903 3011.01 156.216C3014.87 157.201 3019.55 159.047 3025.05 161.756C3030.63 164.382 3034.53 165.695 3036.74 165.695C3038.88 165.695 3040.56 165.039 3041.79 163.726C3043.02 162.412 3044.17 159.253 3045.24 154.246H3048.93ZM3163.18 320.445V325H3075.89V320.445H3081.43C3086.27 320.445 3090.17 319.583 3093.13 317.86C3095.26 316.711 3096.9 314.741 3098.05 311.95C3098.95 309.981 3099.41 304.81 3099.41 296.438V186.624C3099.41 178.088 3098.95 172.754 3098.05 170.62C3097.15 168.486 3095.3 166.639 3092.51 165.08C3089.8 163.438 3086.11 162.618 3081.43 162.618H3075.89V158.063H3163.18V162.618H3157.64C3152.79 162.618 3148.9 163.479 3145.94 165.203C3143.81 166.352 3142.13 168.322 3140.89 171.112C3139.99 173.082 3139.54 178.253 3139.54 186.624V296.438C3139.54 304.974 3139.99 310.309 3140.89 312.443C3141.88 314.577 3143.73 316.464 3146.43 318.106C3149.22 319.665 3152.96 320.445 3157.64 320.445H3163.18ZM3343.04 154.246V213.093H3338.49C3332.99 197.006 3324.74 184.777 3313.74 176.406C3302.74 168.034 3290.72 163.849 3277.67 163.849C3265.19 163.849 3254.81 167.378 3246.52 174.436C3238.23 181.412 3232.37 191.179 3228.92 203.736C3225.47 216.294 3223.75 229.179 3223.75 242.393C3223.75 258.397 3225.64 272.432 3229.41 284.497C3233.19 296.562 3239.26 305.425 3247.63 311.089C3256.08 316.752 3266.1 319.583 3277.67 319.583C3281.69 319.583 3285.79 319.173 3289.98 318.352C3294.25 317.449 3298.6 316.177 3303.03 314.536V279.819C3303.03 273.253 3302.58 269.026 3301.68 267.138C3300.77 265.168 3298.89 263.404 3296.01 261.844C3293.22 260.285 3289.82 259.505 3285.79 259.505H3281.49V254.95H3362.62V259.505C3356.46 259.916 3352.15 260.778 3349.69 262.091C3347.31 263.322 3345.46 265.415 3344.15 268.369C3343.41 269.929 3343.04 273.745 3343.04 279.819V314.536C3332.37 319.296 3321.25 322.866 3309.68 325.246C3298.19 327.708 3286.25 328.94 3273.85 328.94C3258.01 328.94 3244.84 326.806 3234.33 322.538C3223.91 318.188 3214.68 312.525 3206.64 305.549C3198.67 298.49 3192.44 290.57 3187.92 281.788C3182.18 270.462 3179.3 257.782 3179.3 243.747C3179.3 218.633 3188.13 197.417 3205.77 180.099C3223.42 162.782 3245.62 154.123 3272.38 154.123C3280.67 154.123 3288.13 154.78 3294.78 156.093C3298.39 156.749 3304.22 158.637 3312.26 161.756C3320.39 164.793 3325.19 166.311 3326.67 166.311C3328.97 166.311 3331.1 165.49 3333.07 163.849C3335.04 162.125 3336.84 158.924 3338.49 154.246H3343.04ZM3428.11 158.063L3510.47 261.598V189.825C3510.47 179.812 3509.03 173.041 3506.16 169.512C3502.22 164.752 3495.62 162.453 3486.34 162.618V158.063H3541.49V162.618C3534.44 163.52 3529.68 164.711 3527.21 166.188C3524.83 167.583 3522.95 169.922 3521.55 173.205C3520.24 176.406 3519.58 181.946 3519.58 189.825V328.816H3515.4L3402.5 189.825V295.946C3402.5 305.549 3404.68 312.032 3409.03 315.397C3413.46 318.762 3418.51 320.445 3424.17 320.445H3428.11V325H3368.89V320.445C3378.09 320.363 3384.49 318.475 3388.1 314.782C3391.71 311.089 3393.52 304.81 3393.52 295.946V178.13L3389.95 173.698C3386.42 169.266 3383.3 166.352 3380.59 164.957C3377.88 163.561 3373.98 162.782 3368.89 162.618V158.063H3428.11Z" fill="white" fill-opacity="0.24"/>
<path d="M1042.29 220.215C1043.8 225.755 1042.7 229.689 1042.7 229.689C1042.7 229.689 1039.66 227.377 1037.77 221.984C1036.3 217.24 1036.28 215.125 1037.97 214.462C1039.67 213.799 1040.82 215.471 1042.29 220.215Z" fill="#FBBF19"/>
<path d="M1055.14 225.805C1051.87 230.29 1048.35 231.445 1048.35 231.445C1048.35 231.445 1048.38 227.32 1051.32 222.566C1054.01 218.557 1055.57 217.361 1057 218.576C1058.43 219.791 1057.83 221.796 1055.14 225.805Z" fill="#FBBF19"/>
<path d="M1035.67 244.76C1038.38 239.832 1041.74 238.167 1041.74 238.167C1041.74 238.167 1042.19 242.259 1039.83 247.407C1037.63 251.78 1036.23 253.194 1034.67 252.201C1033.11 251.208 1033.47 249.132 1035.67 244.76Z" fill="#FBBF19"/>
<path d="M1056.86 240.497C1051.95 238.752 1049.69 235.502 1049.69 235.502C1049.69 235.502 1053.1 234 1058.13 235.312C1062.44 236.639 1064 237.817 1063.53 239.761C1063.05 241.705 1061.17 241.824 1056.86 240.497Z" fill="#FBBF19"/>
<path d="M1032.24 230.451C1037.32 231.455 1039.94 234.343 1039.94 234.343C1039.94 234.343 1036.72 236.337 1031.59 235.777C1027.16 235.098 1025.48 234.162 1025.72 232.165C1025.96 230.167 1027.81 229.772 1032.24 230.451Z" fill="#FBBF19"/>
<path d="M1047.13 247.413C1045.45 241.936 1046.43 237.96 1046.43 237.96C1046.43 237.96 1049.54 240.152 1051.59 245.467C1053.21 250.151 1053.3 252.263 1051.62 252.993C1049.95 253.722 1048.75 252.096 1047.13 247.413Z" fill="#FBBF19"/>
<path d="M2517.25 229.661C2518.76 235.201 2517.66 239.136 2517.66 239.136C2517.66 239.136 2514.62 236.823 2512.73 231.43C2511.26 226.686 2511.24 224.571 2512.93 223.908C2514.63 223.245 2515.78 224.917 2517.25 229.661Z" fill="#FBBF19"/>
<path d="M2530.1 235.251C2526.83 239.735 2523.31 240.89 2523.31 240.89C2523.31 240.89 2523.33 236.766 2526.28 232.011C2528.97 228.002 2530.53 226.807 2531.96 228.022C2533.39 229.236 2532.79 231.241 2530.1 235.251Z" fill="#FBBF19"/>
<path d="M2510.63 254.207C2513.34 249.28 2516.69 247.614 2516.69 247.614C2516.69 247.614 2517.15 251.707 2514.79 256.855C2512.59 261.227 2511.19 262.641 2509.63 261.648C2508.06 260.656 2508.42 258.58 2510.63 254.207Z" fill="#FBBF19"/>
<path d="M2531.82 249.942C2526.91 248.197 2524.65 244.947 2524.65 244.947C2524.65 244.947 2528.06 243.444 2533.08 244.757C2537.4 246.084 2538.96 247.262 2538.49 249.206C2538.01 251.15 2536.13 251.269 2531.82 249.942Z" fill="#FBBF19"/>
<path d="M2507.2 239.896C2512.27 240.9 2514.89 243.788 2514.89 243.788C2514.89 243.788 2511.68 245.782 2506.55 245.222C2502.12 244.544 2500.43 243.607 2500.68 241.61C2500.92 239.613 2502.77 239.218 2507.2 239.896Z" fill="#FBBF19"/>
<path d="M2522.09 256.859C2520.41 251.382 2521.39 247.407 2521.39 247.407C2521.39 247.407 2524.5 249.599 2526.55 254.914C2528.17 259.597 2528.25 261.709 2526.58 262.439C2524.91 263.169 2523.71 261.543 2522.09 256.859Z" fill="#FBBF19"/>
</svg>
