<svg width="8565" height="1022" viewBox="0 0 8565 1022" fill="none" xmlns="http://www.w3.org/2000/svg">
<path d="M221.129 703.091V714H12.0884V703.091H25.3561C36.9531 703.091 46.2896 701.027 53.3657 696.899C58.4763 694.148 62.4074 689.43 65.1593 682.747C67.3214 678.03 68.4025 665.647 68.4025 645.598V382.602C68.4025 362.16 67.3214 349.383 65.1593 344.273C62.9971 339.162 58.5745 334.74 51.8915 331.005C45.4051 327.074 36.5599 325.108 25.3561 325.108H12.0884V314.199H221.129V325.108H207.861C196.264 325.108 186.927 327.172 179.851 331.3C174.741 334.052 170.711 338.769 167.763 345.452C165.601 350.17 164.52 362.553 164.52 382.602V645.598C164.52 666.04 165.601 678.816 167.763 683.926C170.122 689.037 174.544 693.558 181.031 697.489C187.714 701.224 196.657 703.091 207.861 703.091H221.129ZM243.242 714V703.091H256.509C268.106 703.091 276.951 701.322 283.045 697.784C289.335 694.049 293.954 689.037 296.902 682.747C298.671 678.619 299.556 666.236 299.556 645.598V382.602C299.556 362.16 298.475 349.383 296.312 344.273C294.15 339.162 289.728 334.74 283.045 331.005C276.558 327.074 267.713 325.108 256.509 325.108H243.242V314.199H422.208C469.972 314.199 508.399 320.686 537.49 333.659C573.067 349.58 599.996 373.658 618.276 405.894C636.752 438.13 645.991 474.591 645.991 515.279C645.991 543.387 641.47 569.333 632.428 593.116C623.386 616.703 611.691 636.261 597.342 651.789C582.994 667.121 566.384 679.504 547.515 688.939C528.842 698.177 505.942 705.351 478.817 710.462C466.827 712.821 447.958 714 422.208 714H243.242ZM395.673 336.902V648.841C395.673 665.352 396.459 675.474 398.032 679.209C399.604 682.944 402.258 685.794 405.992 687.759C411.299 690.708 418.965 692.182 428.99 692.182C461.815 692.182 486.876 680.978 504.173 658.57C527.761 628.3 539.554 581.323 539.554 517.638C539.554 466.336 531.495 425.353 515.377 394.69C502.601 370.71 486.188 354.396 466.139 345.747C451.987 339.654 428.498 336.705 395.673 336.902ZM836.161 337.197V499.947H844.122C869.478 499.947 887.856 491.987 899.257 476.066C910.657 460.144 917.93 436.655 921.075 405.599H932.279V614.934H921.075C918.716 592.134 913.704 573.46 906.038 558.915C898.569 544.37 889.822 534.64 879.797 529.726C869.773 524.616 855.228 522.06 836.161 522.06V634.689C836.161 656.703 837.046 670.167 838.815 675.081C840.78 679.995 844.319 684.025 849.429 687.17C854.54 690.315 862.795 691.887 874.195 691.887H898.077C935.424 691.887 965.301 683.239 987.708 665.941C1010.31 648.644 1026.53 622.305 1036.36 586.925H1047.27L1029.28 714H683.73V703.091H696.998C708.595 703.091 717.931 701.027 725.007 696.899C730.118 694.148 734.049 689.43 736.801 682.747C738.963 678.03 740.044 665.647 740.044 645.598V382.602C740.044 364.518 739.553 353.413 738.57 349.285C736.604 342.405 732.968 337.098 727.661 333.364C720.192 327.86 709.971 325.108 696.998 325.108H683.73V314.199H1018.37V432.429H1007.17C1001.47 403.535 993.408 382.798 982.991 370.219C972.77 357.639 958.224 348.401 939.355 342.504C928.347 338.966 907.709 337.197 877.439 337.197H836.161ZM1325.59 600.192H1184.37L1167.56 639.111C1162.06 652.084 1159.3 662.796 1159.3 671.248C1159.3 682.452 1163.82 690.708 1172.87 696.015C1178.17 699.16 1191.24 701.519 1212.08 703.091V714H1079.11V703.091C1093.46 700.929 1105.25 695.032 1114.49 685.401C1123.73 675.573 1135.13 655.425 1148.69 624.959L1291.69 305.944H1297.29L1441.46 633.804C1455.22 664.86 1466.53 684.418 1475.37 692.477C1482.05 698.57 1491.49 702.108 1503.68 703.091V714H1310.26V703.091H1318.22C1333.75 703.091 1344.66 700.929 1350.95 696.605C1355.27 693.46 1357.44 688.939 1357.44 683.042C1357.44 679.504 1356.85 675.868 1355.67 672.133C1355.27 670.364 1352.32 662.993 1346.82 650.02L1325.59 600.192ZM1315.57 578.374L1256.01 440.685L1194.68 578.374H1315.57ZM1891.68 314.199V422.405H1881.07C1874.78 397.442 1867.8 379.555 1860.13 368.744C1852.47 357.737 1841.95 348.99 1828.59 342.504C1821.12 338.966 1808.05 337.197 1789.37 337.197H1759.59V645.598C1759.59 666.04 1760.68 678.816 1762.84 683.926C1765.2 689.037 1769.62 693.558 1776.11 697.489C1782.79 701.224 1791.83 703.091 1803.23 703.091H1816.5V714H1607.16V703.091H1620.43C1632.03 703.091 1641.36 701.027 1648.44 696.899C1653.55 694.148 1657.58 689.43 1660.53 682.747C1662.69 678.03 1663.77 665.647 1663.77 645.598V337.197H1634.88C1607.95 337.197 1588.39 342.897 1576.21 354.297C1559.1 370.219 1548.29 392.921 1543.77 422.405H1532.57V314.199H1891.68ZM2078.02 337.197V499.947H2085.98C2111.34 499.947 2129.72 491.987 2141.12 476.066C2152.52 460.144 2159.79 436.655 2162.93 405.599H2174.14V614.934H2162.93C2160.57 592.134 2155.56 573.46 2147.9 558.915C2140.43 544.37 2131.68 534.64 2121.66 529.726C2111.63 524.616 2097.09 522.06 2078.02 522.06V634.689C2078.02 656.703 2078.9 670.167 2080.67 675.081C2082.64 679.995 2086.18 684.025 2091.29 687.17C2096.4 690.315 2104.65 691.887 2116.05 691.887H2139.94C2177.28 691.887 2207.16 683.239 2229.57 665.941C2252.17 648.644 2268.39 622.305 2278.22 586.925H2289.12L2271.14 714H1925.59V703.091H1938.86C1950.45 703.091 1959.79 701.027 1966.87 696.899C1971.98 694.148 1975.91 689.43 1978.66 682.747C1980.82 678.03 1981.9 665.647 1981.9 645.598V382.602C1981.9 364.518 1981.41 353.413 1980.43 349.285C1978.46 342.405 1974.83 337.098 1969.52 333.364C1962.05 327.86 1951.83 325.108 1938.86 325.108H1925.59V314.199H2260.23V432.429H2249.03C2243.33 403.535 2235.27 382.798 2224.85 370.219C2214.63 357.639 2200.08 348.401 2181.21 342.504C2170.21 338.966 2149.57 337.197 2119.3 337.197H2078.02Z" fill="white" fill-opacity="0.24"/>
<path d="M2847.78 703.091V714H2638.74V703.091H2652.01C2663.61 703.091 2672.94 701.027 2680.02 696.899C2685.13 694.148 2689.06 689.43 2691.81 682.747C2693.98 678.03 2695.06 665.647 2695.06 645.598V382.602C2695.06 362.16 2693.98 349.383 2691.81 344.273C2689.65 339.162 2685.23 334.74 2678.55 331.005C2672.06 327.074 2663.21 325.108 2652.01 325.108H2638.74V314.199H2847.78V325.108H2834.52C2822.92 325.108 2813.58 327.172 2806.51 331.3C2801.4 334.052 2797.37 338.769 2794.42 345.452C2792.26 350.17 2791.17 362.553 2791.17 382.602V645.598C2791.17 666.04 2792.26 678.816 2794.42 683.926C2796.78 689.037 2801.2 693.558 2807.69 697.489C2814.37 701.224 2823.31 703.091 2834.52 703.091H2847.78ZM3012.3 314.199L3209.55 562.158V390.268C3209.55 366.287 3206.11 350.071 3199.23 341.619C3189.8 330.219 3173.97 324.715 3151.76 325.108V314.199H3283.85V325.108C3266.95 327.27 3255.54 330.121 3249.65 333.659C3243.95 337 3239.43 342.602 3236.09 350.464C3232.94 358.13 3231.37 371.398 3231.37 390.268V723.14H3221.34L2950.98 390.268V644.418C2950.98 667.416 2956.19 682.944 2966.6 691.003C2977.22 699.062 2989.31 703.091 3002.87 703.091H3012.3V714H2870.49V703.091C2892.5 702.894 2907.83 698.374 2916.48 689.528C2925.13 680.683 2929.45 665.647 2929.45 644.418V362.258L2920.9 351.644C2912.45 341.03 2904.98 334.052 2898.5 330.71C2892.01 327.369 2882.67 325.501 2870.49 325.108V314.199H3012.3ZM3448.66 314.199L3645.91 562.158V390.268C3645.91 366.287 3642.47 350.071 3635.59 341.619C3626.16 330.219 3610.33 324.715 3588.12 325.108V314.199H3720.21V325.108C3703.31 327.27 3691.91 330.121 3686.01 333.659C3680.31 337 3675.79 342.602 3672.45 350.464C3669.3 358.13 3667.73 371.398 3667.73 390.268V723.14H3657.7L3387.34 390.268V644.418C3387.34 667.416 3392.55 682.944 3402.96 691.003C3413.58 699.062 3425.67 703.091 3439.23 703.091H3448.66V714H3306.85V703.091C3328.86 702.894 3344.19 698.374 3352.84 689.528C3361.49 680.683 3365.81 665.647 3365.81 644.418V362.258L3357.26 351.644C3348.81 341.03 3341.34 334.052 3334.86 330.71C3328.37 327.369 3319.03 325.501 3306.85 325.108V314.199H3448.66ZM3967.87 308.597C4031.56 306.239 4083.25 324.813 4122.96 364.322C4162.86 403.83 4182.81 453.265 4182.81 512.625C4182.81 563.338 4167.97 607.956 4138.29 646.482C4098.98 697.587 4043.45 723.14 3971.71 723.14C3899.77 723.14 3844.14 698.767 3804.83 650.02C3773.77 611.495 3758.24 565.795 3758.24 512.92C3758.24 453.56 3778.39 404.125 3818.69 364.617C3859.18 324.912 3908.91 306.239 3967.87 308.597ZM3971.41 327.467C3934.85 327.467 3907.04 346.14 3887.97 383.486C3872.44 414.149 3864.68 458.179 3864.68 515.574C3864.68 583.78 3876.67 634.197 3900.65 666.826C3917.36 689.627 3940.75 701.027 3970.82 701.027C3991.07 701.027 4007.97 696.113 4021.53 686.285C4038.83 673.705 4052.3 653.656 4061.93 626.138C4071.56 598.423 4076.37 562.355 4076.37 517.933C4076.37 465.058 4071.46 425.55 4061.63 399.408C4051.8 373.069 4039.22 354.494 4023.89 343.683C4008.76 332.872 3991.26 327.467 3971.41 327.467ZM4634.5 314.199V325.108C4619.96 327.467 4606.99 335.231 4595.58 348.401C4587.33 358.228 4575.04 381.324 4558.73 417.688L4421.04 723.14H4411.31L4274.21 405.304C4257.7 366.975 4246.59 344.469 4240.89 337.786C4235.39 331.103 4224.87 326.877 4209.35 325.108V314.199H4400.99V325.108H4394.51C4377.21 325.108 4365.41 327.27 4359.12 331.595C4354.6 334.543 4352.34 338.867 4352.34 344.568C4352.34 348.106 4353.13 352.332 4354.7 357.246C4356.27 361.963 4361.58 374.838 4370.62 395.869L4455.83 594.885L4534.85 417.688C4544.28 396.263 4550.08 381.914 4552.24 374.641C4554.41 367.368 4555.49 361.177 4555.49 356.066C4555.49 350.17 4553.91 344.961 4550.77 340.44C4547.62 335.919 4543.01 332.479 4536.91 330.121C4528.46 326.779 4517.26 325.108 4503.3 325.108V314.199H4634.5ZM4892.19 600.192H4750.96L4734.16 639.111C4728.66 652.084 4725.9 662.796 4725.9 671.248C4725.9 682.452 4730.42 690.708 4739.47 696.015C4744.77 699.16 4757.84 701.519 4778.68 703.091V714H4645.71V703.091C4660.06 700.929 4671.85 695.032 4681.09 685.401C4690.33 675.573 4701.73 655.425 4715.29 624.959L4858.29 305.944H4863.89L5008.06 633.804C5021.82 664.86 5033.12 684.418 5041.97 692.477C5048.65 698.57 5058.09 702.108 5070.27 703.091V714H4876.86V703.091H4884.82C4900.35 703.091 4911.26 700.929 4917.55 696.605C4921.87 693.46 4924.03 688.939 4924.03 683.042C4924.03 679.504 4923.44 675.868 4922.27 672.133C4921.87 670.364 4918.92 662.993 4913.42 650.02L4892.19 600.192ZM4882.17 578.374L4822.61 440.685L4761.28 578.374H4882.17ZM5458.28 314.199V422.405H5447.67C5441.38 397.442 5434.4 379.555 5426.73 368.744C5419.07 357.737 5408.55 348.99 5395.19 342.504C5387.72 338.966 5374.65 337.197 5355.97 337.197H5326.19V645.598C5326.19 666.04 5327.28 678.816 5329.44 683.926C5331.8 689.037 5336.22 693.558 5342.71 697.489C5349.39 701.224 5358.43 703.091 5369.83 703.091H5383.1V714H5173.76V703.091H5187.03C5198.63 703.091 5207.96 701.027 5215.04 696.899C5220.15 694.148 5224.18 689.43 5227.13 682.747C5229.29 678.03 5230.37 665.647 5230.37 645.598V337.197H5201.48C5174.55 337.197 5154.99 342.897 5142.8 354.297C5125.7 370.219 5114.89 392.921 5110.37 422.405H5099.17V314.199H5458.28ZM5644.62 337.197V499.947H5652.58C5677.94 499.947 5696.31 491.987 5707.71 476.066C5719.12 460.144 5726.39 436.655 5729.53 405.599H5740.74V614.934H5729.53C5727.17 592.134 5722.16 573.46 5714.5 558.915C5707.03 544.37 5698.28 534.64 5688.26 529.726C5678.23 524.616 5663.69 522.06 5644.62 522.06V634.689C5644.62 656.703 5645.5 670.167 5647.27 675.081C5649.24 679.995 5652.78 684.025 5657.89 687.17C5663 690.315 5671.25 691.887 5682.65 691.887H5706.54C5743.88 691.887 5773.76 683.239 5796.17 665.941C5818.77 648.644 5834.99 622.305 5844.81 586.925H5855.72L5837.74 714H5492.19V703.091H5505.46C5517.05 703.091 5526.39 701.027 5533.47 696.899C5538.58 694.148 5542.51 689.43 5545.26 682.747C5547.42 678.03 5548.5 665.647 5548.5 645.598V382.602C5548.5 364.518 5548.01 353.413 5547.03 349.285C5545.06 342.405 5541.43 337.098 5536.12 333.364C5528.65 327.86 5518.43 325.108 5505.46 325.108H5492.19V314.199H5826.83V432.429H5815.63C5809.93 403.535 5801.87 382.798 5791.45 370.219C5781.23 357.639 5766.68 348.401 5747.81 342.504C5736.81 338.966 5716.17 337.197 5685.9 337.197H5644.62Z" fill="white" fill-opacity="0.24"/>
<path d="M6187.14 714V703.091H6200.41C6212.01 703.091 6220.85 701.322 6226.94 697.784C6233.23 694.049 6237.85 689.037 6240.8 682.747C6242.57 678.619 6243.46 666.236 6243.46 645.598V382.602C6243.46 362.16 6242.37 349.383 6240.21 344.273C6238.05 339.162 6233.63 334.74 6226.94 331.005C6220.46 327.074 6211.61 325.108 6200.41 325.108H6187.14V314.199H6366.11C6413.87 314.199 6452.3 320.686 6481.39 333.659C6516.97 349.58 6543.9 373.658 6562.18 405.894C6580.65 438.13 6589.89 474.591 6589.89 515.279C6589.89 543.387 6585.37 569.333 6576.33 593.116C6567.29 616.703 6555.59 636.261 6541.24 651.789C6526.89 667.121 6510.28 679.504 6491.41 688.939C6472.74 698.177 6449.84 705.351 6422.72 710.462C6410.73 712.821 6391.86 714 6366.11 714H6187.14ZM6339.57 336.902V648.841C6339.57 665.352 6340.36 675.474 6341.93 679.209C6343.5 682.944 6346.16 685.794 6349.89 687.759C6355.2 690.708 6362.87 692.182 6372.89 692.182C6405.72 692.182 6430.78 680.978 6448.07 658.57C6471.66 628.3 6483.45 581.323 6483.45 517.638C6483.45 466.336 6475.4 425.353 6459.28 394.69C6446.5 370.71 6430.09 354.396 6410.04 345.747C6395.89 339.654 6372.4 336.705 6339.57 336.902ZM6780.06 337.197V499.947H6788.02C6813.38 499.947 6831.76 491.987 6843.16 476.066C6854.56 460.144 6861.83 436.655 6864.97 405.599H6876.18V614.934H6864.97C6862.62 592.134 6857.6 573.46 6849.94 558.915C6842.47 544.37 6833.72 534.64 6823.7 529.726C6813.67 524.616 6799.13 522.06 6780.06 522.06V634.689C6780.06 656.703 6780.95 670.167 6782.72 675.081C6784.68 679.995 6788.22 684.025 6793.33 687.17C6798.44 690.315 6806.7 691.887 6818.1 691.887H6841.98C6879.32 691.887 6909.2 683.239 6931.61 665.941C6954.21 648.644 6970.43 622.305 6980.26 586.925H6991.17L6973.18 714H6627.63V703.091H6640.9C6652.49 703.091 6661.83 701.027 6668.91 696.899C6674.02 694.148 6677.95 689.43 6680.7 682.747C6682.86 678.03 6683.94 665.647 6683.94 645.598V382.602C6683.94 364.518 6683.45 353.413 6682.47 349.285C6680.5 342.405 6676.87 337.098 6671.56 333.364C6664.09 327.86 6653.87 325.108 6640.9 325.108H6627.63V314.199H6962.27V432.429H6951.07C6945.37 403.535 6937.31 382.798 6926.89 370.219C6916.67 357.639 6902.12 348.401 6883.25 342.504C6872.25 338.966 6851.61 337.197 6821.34 337.197H6780.06ZM7301.93 305.059L7305.17 438.326H7293.08C7287.38 404.911 7273.33 378.081 7250.92 357.835C7228.71 337.393 7204.63 327.172 7178.68 327.172C7158.63 327.172 7142.71 332.578 7130.92 343.388C7119.32 354.002 7113.52 366.287 7113.52 380.243C7113.52 389.088 7115.59 396.951 7119.72 403.83C7125.42 413.068 7134.56 422.208 7147.14 431.25C7156.37 437.737 7177.7 449.235 7211.12 465.746C7257.9 488.744 7289.44 510.463 7305.76 530.905C7321.88 551.348 7329.93 574.738 7329.93 601.077C7329.93 634.492 7316.86 663.288 7290.72 687.465C7264.78 711.445 7231.75 723.435 7191.66 723.435C7179.08 723.435 7167.18 722.157 7155.98 719.602C7144.78 717.047 7130.72 712.231 7113.82 705.155C7104.38 701.224 7096.62 699.258 7090.53 699.258C7085.42 699.258 7080.01 701.224 7074.31 705.155C7068.61 709.086 7063.99 715.081 7060.45 723.14H7049.54V572.183H7060.45C7069.1 614.639 7085.71 647.072 7110.28 669.479C7135.05 691.691 7161.68 702.796 7190.18 702.796C7212.2 702.796 7229.69 696.801 7242.66 684.811C7255.83 672.821 7262.42 658.865 7262.42 642.944C7262.42 633.509 7259.86 624.369 7254.75 615.524C7249.84 606.679 7242.27 598.325 7232.05 590.463C7221.83 582.404 7203.74 571.986 7177.8 559.21C7141.44 541.323 7115.29 526.09 7099.37 513.51C7083.45 500.93 7071.17 486.876 7062.52 471.348C7054.06 455.82 7049.84 438.719 7049.84 420.046C7049.84 388.204 7061.53 361.079 7084.92 338.671C7108.31 316.263 7137.8 305.059 7173.38 305.059C7186.35 305.059 7198.93 306.632 7211.12 309.777C7220.35 312.135 7231.56 316.558 7244.73 323.044C7258.09 329.334 7267.43 332.479 7272.74 332.479C7277.85 332.479 7281.88 330.907 7284.82 327.762C7287.77 324.617 7290.52 317.049 7293.08 305.059H7301.93ZM7575.54 703.091V714H7366.49V703.091H7379.76C7391.36 703.091 7400.7 701.027 7407.77 696.899C7412.88 694.148 7416.81 689.43 7419.57 682.747C7421.73 678.03 7422.81 665.647 7422.81 645.598V382.602C7422.81 362.16 7421.73 349.383 7419.57 344.273C7417.4 339.162 7412.98 334.74 7406.3 331.005C7399.81 327.074 7390.97 325.108 7379.76 325.108H7366.49V314.199H7575.54V325.108H7562.27C7550.67 325.108 7541.33 327.172 7534.26 331.3C7529.15 334.052 7525.12 338.769 7522.17 345.452C7520.01 350.17 7518.93 362.553 7518.93 382.602V645.598C7518.93 666.04 7520.01 678.816 7522.17 683.926C7524.53 689.037 7528.95 693.558 7535.44 697.489C7542.12 701.224 7551.06 703.091 7562.27 703.091H7575.54ZM8006.29 305.059V445.992H7995.38C7982.22 407.466 7962.46 378.179 7936.12 358.13C7909.78 338.081 7880.99 328.057 7849.73 328.057C7819.86 328.057 7794.99 336.509 7775.14 353.413C7755.29 370.12 7741.23 393.511 7732.98 423.584C7724.72 453.658 7720.6 484.518 7720.6 516.164C7720.6 554.492 7725.12 588.104 7734.16 616.998C7743.2 645.892 7757.75 667.121 7777.79 680.683C7798.04 694.246 7822.02 701.027 7849.73 701.027C7859.37 701.027 7869.19 700.044 7879.22 698.079C7889.44 695.917 7899.86 692.87 7910.47 688.939V605.794C7910.47 590.07 7909.39 579.947 7907.23 575.426C7905.07 570.709 7900.55 566.483 7893.67 562.748C7886.98 559.013 7878.83 557.146 7869.19 557.146H7858.87V546.237H8053.17V557.146C8038.43 558.129 8028.11 560.193 8022.22 563.338C8016.52 566.286 8012.09 571.298 8008.95 578.374C8007.18 582.109 8006.29 591.249 8006.29 605.794V688.939C7980.74 700.339 7954.11 708.889 7926.39 714.59C7898.87 720.486 7870.28 723.435 7840.59 723.435C7802.66 723.435 7771.11 718.324 7745.95 708.103C7720.99 697.686 7698.88 684.123 7679.61 667.416C7660.55 650.511 7645.61 631.544 7634.8 610.512C7621.04 583.387 7614.16 553.018 7614.16 519.407C7614.16 459.26 7635.29 408.449 7677.55 366.975C7719.81 325.501 7772.98 304.764 7837.06 304.764C7856.91 304.764 7874.8 306.337 7890.72 309.482C7899.37 311.054 7913.32 315.575 7932.58 323.044C7952.04 330.317 7963.54 333.953 7967.08 333.953C7972.58 333.953 7977.69 331.988 7982.41 328.057C7987.13 323.929 7991.45 316.263 7995.38 305.059H8006.29ZM8210.03 314.199L8407.27 562.158V390.268C8407.27 366.287 8403.83 350.071 8396.95 341.619C8387.52 330.219 8371.7 324.715 8349.49 325.108V314.199H8481.57V325.108C8464.67 327.27 8453.27 330.121 8447.37 333.659C8441.67 337 8437.15 342.602 8433.81 350.464C8430.66 358.13 8429.09 371.398 8429.09 390.268V723.14H8419.07L8148.7 390.268V644.418C8148.7 667.416 8153.91 682.944 8164.33 691.003C8174.94 699.062 8187.03 703.091 8200.59 703.091H8210.03V714H8068.21V703.091C8090.22 702.894 8105.56 698.374 8114.2 689.528C8122.85 680.683 8127.18 665.647 8127.18 644.418V362.258L8118.63 351.644C8110.18 341.03 8102.71 334.052 8096.22 330.71C8089.73 327.369 8080.4 325.501 8068.21 325.108V314.199H8210.03Z" fill="white" fill-opacity="0.24"/>
<path d="M2496.2 469.325C2499.81 481.132 2497.17 489.516 2497.17 489.516C2497.17 489.516 2489.89 484.587 2485.38 473.094C2481.86 462.984 2481.8 458.477 2485.86 457.063C2489.92 455.65 2492.67 459.214 2496.2 469.325Z" fill="#FBBF19"/>
<path d="M2526.96 481.236C2519.15 490.793 2510.71 493.255 2510.71 493.255C2510.71 493.255 2510.77 484.465 2517.82 474.332C2524.27 465.788 2527.99 463.241 2531.42 465.83C2534.85 468.419 2533.41 472.692 2526.96 481.236Z" fill="#FBBF19"/>
<path d="M2480.33 521.637C2486.82 511.135 2494.86 507.586 2494.86 507.586C2494.86 507.586 2495.96 516.307 2490.3 527.279C2485.03 536.597 2481.68 539.611 2477.94 537.495C2474.2 535.379 2475.06 530.955 2480.33 521.637Z" fill="#FBBF19"/>
<path d="M2531.09 512.546C2519.32 508.828 2513.91 501.902 2513.91 501.902C2513.91 501.902 2522.09 498.7 2534.12 501.498C2544.45 504.325 2548.19 506.835 2547.05 510.979C2545.92 515.122 2541.42 515.374 2531.09 512.546Z" fill="#FBBF19"/>
<path d="M2472.12 491.139C2484.28 493.278 2490.56 499.433 2490.56 499.433C2490.56 499.433 2482.86 503.683 2470.57 502.49C2459.96 501.044 2455.92 499.048 2456.5 494.791C2457.08 490.535 2461.51 489.693 2472.12 491.139Z" fill="#FBBF19"/>
<path d="M2507.78 527.289C2503.76 515.616 2506.11 507.144 2506.11 507.144C2506.11 507.144 2513.55 511.815 2518.46 523.143C2522.34 533.124 2522.55 537.626 2518.55 539.181C2514.54 540.735 2511.66 537.27 2507.78 527.289Z" fill="#FBBF19"/>
<path d="M6028.6 489.452C6032.2 501.259 6029.57 509.643 6029.57 509.643C6029.57 509.643 6022.29 504.714 6017.78 493.221C6014.26 483.111 6014.2 478.604 6018.26 477.19C6022.31 475.777 6025.07 479.341 6028.6 489.452Z" fill="#FBBF19"/>
<path d="M6059.36 501.363C6051.55 510.92 6043.11 513.382 6043.11 513.382C6043.11 513.382 6043.17 504.592 6050.22 494.459C6056.67 485.915 6060.39 483.368 6063.82 485.957C6067.25 488.546 6065.81 492.819 6059.36 501.363Z" fill="#FBBF19"/>
<path d="M6012.73 541.764C6019.22 531.262 6027.26 527.713 6027.26 527.713C6027.26 527.713 6028.36 536.434 6022.7 547.406C6017.43 556.724 6014.08 559.738 6010.34 557.622C6006.6 555.506 6007.46 551.082 6012.73 541.764Z" fill="#FBBF19"/>
<path d="M6063.49 532.673C6051.72 528.955 6046.31 522.029 6046.31 522.029C6046.31 522.029 6054.49 518.827 6066.52 521.625C6076.84 524.452 6080.59 526.962 6079.45 531.105C6078.32 535.249 6073.82 535.501 6063.49 532.673Z" fill="#FBBF19"/>
<path d="M6004.52 511.266C6016.68 513.405 6022.96 519.56 6022.96 519.56C6022.96 519.56 6015.26 523.81 6002.97 522.617C5992.36 521.171 5988.32 519.175 5988.9 514.918C5989.48 510.662 5993.91 509.82 6004.52 511.266Z" fill="#FBBF19"/>
<path d="M6040.18 547.416C6036.16 535.743 6038.51 527.271 6038.51 527.271C6038.51 527.271 6045.95 531.942 6050.86 543.27C6054.74 553.251 6054.95 557.753 6050.95 559.308C6046.94 560.862 6044.06 557.397 6040.18 547.416Z" fill="#FBBF19"/>
</svg>
