<svg width="1702" height="203" viewBox="0 0 1702 203" fill="none" xmlns="http://www.w3.org/2000/svg">
<path d="M43.9453 139.832V142H2.40234V139.832H5.03906C7.34375 139.832 9.19922 139.422 10.6055 138.602C11.6211 138.055 12.4023 137.117 12.9492 135.789C13.3789 134.852 13.5938 132.391 13.5938 128.406V76.1406C13.5938 72.0781 13.3789 69.5391 12.9492 68.5234C12.5195 67.5078 11.6406 66.6289 10.3125 65.8867C9.02344 65.1055 7.26562 64.7148 5.03906 64.7148H2.40234V62.5469H43.9453V64.7148H41.3086C39.0039 64.7148 37.1484 65.125 35.7422 65.9453C34.7266 66.4922 33.9258 67.4297 33.3398 68.7578C32.9102 69.6953 32.6953 72.1562 32.6953 76.1406V128.406C32.6953 132.469 32.9102 135.008 33.3398 136.023C33.8086 137.039 34.6875 137.938 35.9766 138.719C37.3047 139.461 39.082 139.832 41.3086 139.832H43.9453ZM48.3398 142V139.832H50.9766C53.2812 139.832 55.0391 139.48 56.25 138.777C57.5 138.035 58.418 137.039 59.0039 135.789C59.3555 134.969 59.5312 132.508 59.5312 128.406V76.1406C59.5312 72.0781 59.3164 69.5391 58.8867 68.5234C58.457 67.5078 57.5781 66.6289 56.25 65.8867C54.9609 65.1055 53.2031 64.7148 50.9766 64.7148H48.3398V62.5469H83.9062C93.3984 62.5469 101.035 63.8359 106.816 66.4141C113.887 69.5781 119.238 74.3633 122.871 80.7695C126.543 87.1758 128.379 94.4219 128.379 102.508C128.379 108.094 127.48 113.25 125.684 117.977C123.887 122.664 121.562 126.551 118.711 129.637C115.859 132.684 112.559 135.145 108.809 137.02C105.098 138.855 100.547 140.281 95.1562 141.297C92.7734 141.766 89.0234 142 83.9062 142H48.3398ZM78.6328 67.0586V129.051C78.6328 132.332 78.7891 134.344 79.1016 135.086C79.4141 135.828 79.9414 136.395 80.6836 136.785C81.7383 137.371 83.2617 137.664 85.2539 137.664C91.7773 137.664 96.7578 135.438 100.195 130.984C104.883 124.969 107.227 115.633 107.227 102.977C107.227 92.7812 105.625 84.6367 102.422 78.543C99.8828 73.7773 96.6211 70.5352 92.6367 68.8164C89.8242 67.6055 85.1562 67.0195 78.6328 67.0586ZM166.172 67.1172V99.4609H167.754C172.793 99.4609 176.445 97.8789 178.711 94.7148C180.977 91.5508 182.422 86.8828 183.047 80.7109H185.273V122.312H183.047C182.578 117.781 181.582 114.07 180.059 111.18C178.574 108.289 176.836 106.355 174.844 105.379C172.852 104.363 169.961 103.855 166.172 103.855V126.238C166.172 130.613 166.348 133.289 166.699 134.266C167.09 135.242 167.793 136.043 168.809 136.668C169.824 137.293 171.465 137.605 173.73 137.605H178.477C185.898 137.605 191.836 135.887 196.289 132.449C200.781 129.012 204.004 123.777 205.957 116.746H208.125L204.551 142H135.879V139.832H138.516C140.82 139.832 142.676 139.422 144.082 138.602C145.098 138.055 145.879 137.117 146.426 135.789C146.855 134.852 147.07 132.391 147.07 128.406V76.1406C147.07 72.5469 146.973 70.3398 146.777 69.5195C146.387 68.1523 145.664 67.0977 144.609 66.3555C143.125 65.2617 141.094 64.7148 138.516 64.7148H135.879V62.5469H202.383V86.043H200.156C199.023 80.3008 197.422 76.1797 195.352 73.6797C193.32 71.1797 190.43 69.3438 186.68 68.1719C184.492 67.4688 180.391 67.1172 174.375 67.1172H166.172ZM263.438 119.383H235.371L232.031 127.117C230.938 129.695 230.391 131.824 230.391 133.504C230.391 135.73 231.289 137.371 233.086 138.426C234.141 139.051 236.738 139.52 240.879 139.832V142H214.453V139.832C217.305 139.402 219.648 138.23 221.484 136.316C223.32 134.363 225.586 130.359 228.281 124.305L256.699 60.9062H257.812L286.465 126.062C289.199 132.234 291.445 136.121 293.203 137.723C294.531 138.934 296.406 139.637 298.828 139.832V142H260.391V139.832H261.973C265.059 139.832 267.227 139.402 268.477 138.543C269.336 137.918 269.766 137.02 269.766 135.848C269.766 135.145 269.648 134.422 269.414 133.68C269.336 133.328 268.75 131.863 267.656 129.285L263.438 119.383ZM261.445 115.047L249.609 87.6836L237.422 115.047H261.445ZM375.938 62.5469V84.0508H373.828C372.578 79.0898 371.191 75.5352 369.668 73.3867C368.145 71.1992 366.055 69.4609 363.398 68.1719C361.914 67.4688 359.316 67.1172 355.605 67.1172H349.688V128.406C349.688 132.469 349.902 135.008 350.332 136.023C350.801 137.039 351.68 137.938 352.969 138.719C354.297 139.461 356.094 139.832 358.359 139.832H360.996V142H319.395V139.832H322.031C324.336 139.832 326.191 139.422 327.598 138.602C328.613 138.055 329.414 137.117 330 135.789C330.43 134.852 330.645 132.391 330.645 128.406V67.1172H324.902C319.551 67.1172 315.664 68.25 313.242 70.5156C309.844 73.6797 307.695 78.1914 306.797 84.0508H304.57V62.5469H375.938ZM412.969 67.1172V99.4609H414.551C419.59 99.4609 423.242 97.8789 425.508 94.7148C427.773 91.5508 429.219 86.8828 429.844 80.7109H432.07V122.312H429.844C429.375 117.781 428.379 114.07 426.855 111.18C425.371 108.289 423.633 106.355 421.641 105.379C419.648 104.363 416.758 103.855 412.969 103.855V126.238C412.969 130.613 413.145 133.289 413.496 134.266C413.887 135.242 414.59 136.043 415.605 136.668C416.621 137.293 418.262 137.605 420.527 137.605H425.273C432.695 137.605 438.633 135.887 443.086 132.449C447.578 129.012 450.801 123.777 452.754 116.746H454.922L451.348 142H382.676V139.832H385.312C387.617 139.832 389.473 139.422 390.879 138.602C391.895 138.055 392.676 137.117 393.223 135.789C393.652 134.852 393.867 132.391 393.867 128.406V76.1406C393.867 72.5469 393.77 70.3398 393.574 69.5195C393.184 68.1523 392.461 67.0977 391.406 66.3555C389.922 65.2617 387.891 64.7148 385.312 64.7148H382.676V62.5469H449.18V86.043H446.953C445.82 80.3008 444.219 76.1797 442.148 73.6797C440.117 71.1797 437.227 69.3438 433.477 68.1719C431.289 67.4688 427.188 67.1172 421.172 67.1172H412.969Z" fill="white" fill-opacity="0.24"/>
<path d="M565.945 139.832V142H524.402V139.832H527.039C529.344 139.832 531.199 139.422 532.605 138.602C533.621 138.055 534.402 137.117 534.949 135.789C535.379 134.852 535.594 132.391 535.594 128.406V76.1406C535.594 72.0781 535.379 69.5391 534.949 68.5234C534.52 67.5078 533.641 66.6289 532.312 65.8867C531.023 65.1055 529.266 64.7148 527.039 64.7148H524.402V62.5469H565.945V64.7148H563.309C561.004 64.7148 559.148 65.125 557.742 65.9453C556.727 66.4922 555.926 67.4297 555.34 68.7578C554.91 69.6953 554.695 72.1562 554.695 76.1406V128.406C554.695 132.469 554.91 135.008 555.34 136.023C555.809 137.039 556.688 137.938 557.977 138.719C559.305 139.461 561.082 139.832 563.309 139.832H565.945ZM598.641 62.5469L637.84 111.824V77.6641C637.84 72.8984 637.156 69.6758 635.789 67.9961C633.914 65.7305 630.77 64.6367 626.355 64.7148V62.5469H652.605V64.7148C649.246 65.1445 646.98 65.7109 645.809 66.4141C644.676 67.0781 643.777 68.1914 643.113 69.7539C642.488 71.2773 642.176 73.9141 642.176 77.6641V143.816H640.184L586.453 77.6641V128.172C586.453 132.742 587.488 135.828 589.559 137.43C591.668 139.031 594.07 139.832 596.766 139.832H598.641V142H570.457V139.832C574.832 139.793 577.879 138.895 579.598 137.137C581.316 135.379 582.176 132.391 582.176 128.172V72.0977L580.477 69.9883C578.797 67.8789 577.312 66.4922 576.023 65.8281C574.734 65.1641 572.879 64.793 570.457 64.7148V62.5469H598.641ZM685.359 62.5469L724.559 111.824V77.6641C724.559 72.8984 723.875 69.6758 722.508 67.9961C720.633 65.7305 717.488 64.6367 713.074 64.7148V62.5469H739.324V64.7148C735.965 65.1445 733.699 65.7109 732.527 66.4141C731.395 67.0781 730.496 68.1914 729.832 69.7539C729.207 71.2773 728.895 73.9141 728.895 77.6641V143.816H726.902L673.172 77.6641V128.172C673.172 132.742 674.207 135.828 676.277 137.43C678.387 139.031 680.789 139.832 683.484 139.832H685.359V142H657.176V139.832C661.551 139.793 664.598 138.895 666.316 137.137C668.035 135.379 668.895 132.391 668.895 128.172V72.0977L667.195 69.9883C665.516 67.8789 664.031 66.4922 662.742 65.8281C661.453 65.1641 659.598 64.793 657.176 64.7148V62.5469H685.359ZM788.543 61.4336C801.199 60.9648 811.473 64.6562 819.363 72.5078C827.293 80.3594 831.258 90.1836 831.258 101.98C831.258 112.059 828.309 120.926 822.41 128.582C814.598 138.738 803.562 143.816 789.305 143.816C775.008 143.816 763.953 138.973 756.141 129.285C749.969 121.629 746.883 112.547 746.883 102.039C746.883 90.2422 750.887 80.418 758.895 72.5664C766.941 64.6758 776.824 60.9648 788.543 61.4336ZM789.246 65.1836C781.98 65.1836 776.453 68.8945 772.664 76.3164C769.578 82.4102 768.035 91.1602 768.035 102.566C768.035 116.121 770.418 126.141 775.184 132.625C778.504 137.156 783.152 139.422 789.129 139.422C793.152 139.422 796.512 138.445 799.207 136.492C802.645 133.992 805.32 130.008 807.234 124.539C809.148 119.031 810.105 111.863 810.105 103.035C810.105 92.5273 809.129 84.6758 807.176 79.4805C805.223 74.2461 802.723 70.5547 799.676 68.4062C796.668 66.2578 793.191 65.1836 789.246 65.1836ZM921.023 62.5469V64.7148C918.133 65.1836 915.555 66.7266 913.289 69.3438C911.648 71.2969 909.207 75.8867 905.965 83.1133L878.602 143.816H876.668L849.422 80.6523C846.141 73.0352 843.934 68.5625 842.801 67.2344C841.707 65.9062 839.617 65.0664 836.531 64.7148V62.5469H874.617V64.7148H873.328C869.891 64.7148 867.547 65.1445 866.297 66.0039C865.398 66.5898 864.949 67.4492 864.949 68.582C864.949 69.2852 865.105 70.125 865.418 71.1016C865.73 72.0391 866.785 74.5977 868.582 78.7773L885.516 118.328L901.219 83.1133C903.094 78.8555 904.246 76.0039 904.676 74.5586C905.105 73.1133 905.32 71.8828 905.32 70.8672C905.32 69.6953 905.008 68.6602 904.383 67.7617C903.758 66.8633 902.84 66.1797 901.629 65.7109C899.949 65.0469 897.723 64.7148 894.949 64.7148V62.5469H921.023ZM972.234 119.383H944.168L940.828 127.117C939.734 129.695 939.188 131.824 939.188 133.504C939.188 135.73 940.086 137.371 941.883 138.426C942.938 139.051 945.535 139.52 949.676 139.832V142H923.25V139.832C926.102 139.402 928.445 138.23 930.281 136.316C932.117 134.363 934.383 130.359 937.078 124.305L965.496 60.9062H966.609L995.262 126.062C997.996 132.234 1000.24 136.121 1002 137.723C1003.33 138.934 1005.2 139.637 1007.62 139.832V142H969.188V139.832H970.77C973.855 139.832 976.023 139.402 977.273 138.543C978.133 137.918 978.562 137.02 978.562 135.848C978.562 135.145 978.445 134.422 978.211 133.68C978.133 133.328 977.547 131.863 976.453 129.285L972.234 119.383ZM970.242 115.047L958.406 87.6836L946.219 115.047H970.242ZM1084.73 62.5469V84.0508H1082.62C1081.38 79.0898 1079.99 75.5352 1078.46 73.3867C1076.94 71.1992 1074.85 69.4609 1072.2 68.1719C1070.71 67.4688 1068.11 67.1172 1064.4 67.1172H1058.48V128.406C1058.48 132.469 1058.7 135.008 1059.13 136.023C1059.6 137.039 1060.48 137.938 1061.77 138.719C1063.09 139.461 1064.89 139.832 1067.16 139.832H1069.79V142H1028.19V139.832H1030.83C1033.13 139.832 1034.99 139.422 1036.39 138.602C1037.41 138.055 1038.21 137.117 1038.8 135.789C1039.23 134.852 1039.44 132.391 1039.44 128.406V67.1172H1033.7C1028.35 67.1172 1024.46 68.25 1022.04 70.5156C1018.64 73.6797 1016.49 78.1914 1015.59 84.0508H1013.37V62.5469H1084.73ZM1121.77 67.1172V99.4609H1123.35C1128.39 99.4609 1132.04 97.8789 1134.3 94.7148C1136.57 91.5508 1138.02 86.8828 1138.64 80.7109H1140.87V122.312H1138.64C1138.17 117.781 1137.18 114.07 1135.65 111.18C1134.17 108.289 1132.43 106.355 1130.44 105.379C1128.45 104.363 1125.55 103.855 1121.77 103.855V126.238C1121.77 130.613 1121.94 133.289 1122.29 134.266C1122.68 135.242 1123.39 136.043 1124.4 136.668C1125.42 137.293 1127.06 137.605 1129.32 137.605H1134.07C1141.49 137.605 1147.43 135.887 1151.88 132.449C1156.38 129.012 1159.6 123.777 1161.55 116.746H1163.72L1160.14 142H1091.47V139.832H1094.11C1096.41 139.832 1098.27 139.422 1099.68 138.602C1100.69 138.055 1101.47 137.117 1102.02 135.789C1102.45 134.852 1102.66 132.391 1102.66 128.406V76.1406C1102.66 72.5469 1102.57 70.3398 1102.37 69.5195C1101.98 68.1523 1101.26 67.0977 1100.2 66.3555C1098.72 65.2617 1096.69 64.7148 1094.11 64.7148H1091.47V62.5469H1157.98V86.043H1155.75C1154.62 80.3008 1153.02 76.1797 1150.95 73.6797C1148.91 71.1797 1146.02 69.3438 1142.27 68.1719C1140.09 67.4688 1135.98 67.1172 1129.97 67.1172H1121.77Z" fill="white" fill-opacity="0.24"/>
<path d="M1229.58 142V139.832H1232.22C1234.52 139.832 1236.28 139.48 1237.49 138.777C1238.74 138.035 1239.66 137.039 1240.25 135.789C1240.6 134.969 1240.77 132.508 1240.77 128.406V76.1406C1240.77 72.0781 1240.56 69.5391 1240.13 68.5234C1239.7 67.5078 1238.82 66.6289 1237.49 65.8867C1236.2 65.1055 1234.45 64.7148 1232.22 64.7148H1229.58V62.5469H1265.15C1274.64 62.5469 1282.28 63.8359 1288.06 66.4141C1295.13 69.5781 1300.48 74.3633 1304.11 80.7695C1307.79 87.1758 1309.62 94.4219 1309.62 102.508C1309.62 108.094 1308.72 113.25 1306.93 117.977C1305.13 122.664 1302.8 126.551 1299.95 129.637C1297.1 132.684 1293.8 135.145 1290.05 137.02C1286.34 138.855 1281.79 140.281 1276.4 141.297C1274.02 141.766 1270.27 142 1265.15 142H1229.58ZM1259.88 67.0586V129.051C1259.88 132.332 1260.03 134.344 1260.34 135.086C1260.66 135.828 1261.18 136.395 1261.93 136.785C1262.98 137.371 1264.5 137.664 1266.5 137.664C1273.02 137.664 1278 135.438 1281.44 130.984C1286.12 124.969 1288.47 115.633 1288.47 102.977C1288.47 92.7812 1286.87 84.6367 1283.66 78.543C1281.12 73.7773 1277.86 70.5352 1273.88 68.8164C1271.07 67.6055 1266.4 67.0195 1259.88 67.0586ZM1347.41 67.1172V99.4609H1349C1354.04 99.4609 1357.69 97.8789 1359.95 94.7148C1362.22 91.5508 1363.66 86.8828 1364.29 80.7109H1366.52V122.312H1364.29C1363.82 117.781 1362.82 114.07 1361.3 111.18C1359.82 108.289 1358.08 106.355 1356.09 105.379C1354.09 104.363 1351.2 103.855 1347.41 103.855V126.238C1347.41 130.613 1347.59 133.289 1347.94 134.266C1348.33 135.242 1349.04 136.043 1350.05 136.668C1351.07 137.293 1352.71 137.605 1354.97 137.605H1359.72C1367.14 137.605 1373.08 135.887 1377.53 132.449C1382.02 129.012 1385.25 123.777 1387.2 116.746H1389.37L1385.79 142H1317.12V139.832H1319.76C1322.06 139.832 1323.92 139.422 1325.32 138.602C1326.34 138.055 1327.12 137.117 1327.67 135.789C1328.1 134.852 1328.31 132.391 1328.31 128.406V76.1406C1328.31 72.5469 1328.21 70.3398 1328.02 69.5195C1327.63 68.1523 1326.91 67.0977 1325.85 66.3555C1324.37 65.2617 1322.34 64.7148 1319.76 64.7148H1317.12V62.5469H1383.62V86.043H1381.4C1380.27 80.3008 1378.66 76.1797 1376.59 73.6797C1374.56 71.1797 1371.67 69.3438 1367.92 68.1719C1365.73 67.4688 1361.63 67.1172 1355.62 67.1172H1347.41ZM1451.12 60.7305L1451.77 87.2148H1449.37C1448.23 80.5742 1445.44 75.2422 1440.99 71.2188C1436.57 67.1562 1431.79 65.125 1426.63 65.125C1422.65 65.125 1419.48 66.1992 1417.14 68.3477C1414.84 70.457 1413.68 72.8984 1413.68 75.6719C1413.68 77.4297 1414.09 78.9922 1414.91 80.3594C1416.05 82.1953 1417.86 84.0117 1420.36 85.8086C1422.2 87.0977 1426.44 89.3828 1433.08 92.6641C1442.38 97.2344 1448.64 101.551 1451.89 105.613C1455.09 109.676 1456.69 114.324 1456.69 119.559C1456.69 126.199 1454.09 131.922 1448.9 136.727C1443.74 141.492 1437.18 143.875 1429.21 143.875C1426.71 143.875 1424.35 143.621 1422.12 143.113C1419.89 142.605 1417.1 141.648 1413.74 140.242C1411.87 139.461 1410.32 139.07 1409.11 139.07C1408.1 139.07 1407.02 139.461 1405.89 140.242C1404.76 141.023 1403.84 142.215 1403.14 143.816H1400.97V113.816H1403.14C1404.86 122.254 1408.16 128.699 1413.04 133.152C1417.96 137.566 1423.25 139.773 1428.92 139.773C1433.29 139.773 1436.77 138.582 1439.35 136.199C1441.96 133.816 1443.27 131.043 1443.27 127.879C1443.27 126.004 1442.77 124.188 1441.75 122.43C1440.77 120.672 1439.27 119.012 1437.24 117.449C1435.21 115.848 1431.61 113.777 1426.46 111.238C1419.23 107.684 1414.04 104.656 1410.87 102.156C1407.71 99.6562 1405.27 96.8633 1403.55 93.7773C1401.87 90.6914 1401.03 87.293 1401.03 83.582C1401.03 77.2539 1403.35 71.8633 1408 67.4102C1412.65 62.957 1418.51 60.7305 1425.58 60.7305C1428.16 60.7305 1430.66 61.043 1433.08 61.668C1434.91 62.1367 1437.14 63.0156 1439.76 64.3047C1442.41 65.5547 1444.27 66.1797 1445.32 66.1797C1446.34 66.1797 1447.14 65.8672 1447.73 65.2422C1448.31 64.6172 1448.86 63.1133 1449.37 60.7305H1451.12ZM1505.5 139.832V142H1463.96V139.832H1466.59C1468.9 139.832 1470.75 139.422 1472.16 138.602C1473.18 138.055 1473.96 137.117 1474.5 135.789C1474.93 134.852 1475.15 132.391 1475.15 128.406V76.1406C1475.15 72.0781 1474.93 69.5391 1474.5 68.5234C1474.07 67.5078 1473.2 66.6289 1471.87 65.8867C1470.58 65.1055 1468.82 64.7148 1466.59 64.7148H1463.96V62.5469H1505.5V64.7148H1502.86C1500.56 64.7148 1498.7 65.125 1497.3 65.9453C1496.28 66.4922 1495.48 67.4297 1494.89 68.7578C1494.46 69.6953 1494.25 72.1562 1494.25 76.1406V128.406C1494.25 132.469 1494.46 135.008 1494.89 136.023C1495.36 137.039 1496.24 137.938 1497.53 138.719C1498.86 139.461 1500.64 139.832 1502.86 139.832H1505.5ZM1591.11 60.7305V88.7383H1588.94C1586.32 81.082 1582.39 75.2617 1577.16 71.2773C1571.93 67.293 1566.2 65.3008 1559.99 65.3008C1554.05 65.3008 1549.11 66.9805 1545.17 70.3398C1541.22 73.6602 1538.43 78.3086 1536.79 84.2852C1535.15 90.2617 1534.33 96.3945 1534.33 102.684C1534.33 110.301 1535.23 116.98 1537.02 122.723C1538.82 128.465 1541.71 132.684 1545.7 135.379C1549.72 138.074 1554.48 139.422 1559.99 139.422C1561.91 139.422 1563.86 139.227 1565.85 138.836C1567.88 138.406 1569.95 137.801 1572.06 137.02V120.496C1572.06 117.371 1571.85 115.359 1571.42 114.461C1570.99 113.523 1570.09 112.684 1568.72 111.941C1567.39 111.199 1565.77 110.828 1563.86 110.828H1561.81V108.66H1600.42V110.828C1597.49 111.023 1595.44 111.434 1594.27 112.059C1593.14 112.645 1592.26 113.641 1591.63 115.047C1591.28 115.789 1591.11 117.605 1591.11 120.496V137.02C1586.03 139.285 1580.73 140.984 1575.23 142.117C1569.76 143.289 1564.07 143.875 1558.18 143.875C1550.64 143.875 1544.37 142.859 1539.37 140.828C1534.41 138.758 1530.01 136.062 1526.18 132.742C1522.39 129.383 1519.43 125.613 1517.28 121.434C1514.54 116.043 1513.18 110.008 1513.18 103.328C1513.18 91.375 1517.38 81.2773 1525.77 73.0352C1534.17 64.793 1544.74 60.6719 1557.47 60.6719C1561.42 60.6719 1564.97 60.9844 1568.14 61.6094C1569.86 61.9219 1572.63 62.8203 1576.46 64.3047C1580.32 65.75 1582.61 66.4727 1583.31 66.4727C1584.41 66.4727 1585.42 66.082 1586.36 65.3008C1587.3 64.4805 1588.16 62.957 1588.94 60.7305H1591.11ZM1631.59 62.5469L1670.79 111.824V77.6641C1670.79 72.8984 1670.11 69.6758 1668.74 67.9961C1666.87 65.7305 1663.72 64.6367 1659.31 64.7148V62.5469H1685.56V64.7148C1682.2 65.1445 1679.93 65.7109 1678.76 66.4141C1677.63 67.0781 1676.73 68.1914 1676.07 69.7539C1675.44 71.2773 1675.13 73.9141 1675.13 77.6641V143.816H1673.14L1619.41 77.6641V128.172C1619.41 132.742 1620.44 135.828 1622.51 137.43C1624.62 139.031 1627.02 139.832 1629.72 139.832H1631.59V142H1603.41V139.832C1607.79 139.793 1610.83 138.895 1612.55 137.137C1614.27 135.379 1615.13 132.391 1615.13 128.172V72.0977L1613.43 69.9883C1611.75 67.8789 1610.27 66.4922 1608.98 65.8281C1607.69 65.1641 1605.83 64.793 1603.41 64.7148V62.5469H1631.59Z" fill="white" fill-opacity="0.24"/>
<path d="M496.074 93.2697C496.791 95.6161 496.267 97.2824 496.267 97.2824C496.267 97.2824 494.82 96.3028 493.924 94.0188C493.224 92.0095 493.213 91.1139 494.019 90.833C494.825 90.552 495.374 91.2604 496.074 93.2697Z" fill="#FBBF19"/>
<path d="M502.188 95.6369C500.634 97.5362 498.957 98.0254 498.957 98.0254C498.957 98.0254 498.969 96.2786 500.371 94.2649C501.653 92.5669 502.392 92.0607 503.073 92.5751C503.755 93.0896 503.47 93.9389 502.188 95.6369Z" fill="#FBBF19"/>
<path d="M492.921 103.665C494.211 101.578 495.809 100.873 495.809 100.873C495.809 100.873 496.027 102.606 494.902 104.787C493.854 106.639 493.188 107.238 492.445 106.817C491.702 106.397 491.873 105.517 492.921 103.665Z" fill="#FBBF19"/>
<path d="M503.009 101.859C500.669 101.12 499.594 99.744 499.594 99.744C499.594 99.744 501.22 99.1076 503.61 99.6637C505.662 100.226 506.406 100.724 506.181 101.548C505.955 102.371 505.061 102.421 503.009 101.859Z" fill="#FBBF19"/>
<path d="M491.29 97.6051C493.706 98.0302 494.953 99.2533 494.953 99.2533C494.953 99.2533 493.424 100.098 490.982 99.8608C488.874 99.5734 488.071 99.1768 488.186 98.3309C488.301 97.485 489.181 97.3177 491.29 97.6051Z" fill="#FBBF19"/>
<path d="M498.377 104.789C497.578 102.469 498.044 100.785 498.044 100.785C498.044 100.785 499.524 101.714 500.5 103.965C501.27 105.949 501.312 106.843 500.516 107.152C499.72 107.461 499.148 106.773 498.377 104.789Z" fill="#FBBF19"/>
<path d="M1198.07 97.2697C1198.79 99.6161 1198.27 101.282 1198.27 101.282C1198.27 101.282 1196.82 100.303 1195.92 98.0188C1195.22 96.0095 1195.21 95.1139 1196.02 94.833C1196.83 94.552 1197.37 95.2604 1198.07 97.2697Z" fill="#FBBF19"/>
<path d="M1204.19 99.6369C1202.63 101.536 1200.96 102.025 1200.96 102.025C1200.96 102.025 1200.97 100.279 1202.37 98.2649C1203.65 96.5669 1204.39 96.0607 1205.07 96.5751C1205.75 97.0896 1205.47 97.9389 1204.19 99.6369Z" fill="#FBBF19"/>
<path d="M1194.92 107.665C1196.21 105.578 1197.81 104.873 1197.81 104.873C1197.81 104.873 1198.03 106.606 1196.9 108.787C1195.85 110.639 1195.19 111.238 1194.44 110.817C1193.7 110.397 1193.87 109.517 1194.92 107.665Z" fill="#FBBF19"/>
<path d="M1205.01 105.859C1202.67 105.12 1201.59 103.744 1201.59 103.744C1201.59 103.744 1203.22 103.108 1205.61 103.664C1207.66 104.226 1208.41 104.724 1208.18 105.548C1207.96 106.371 1207.06 106.421 1205.01 105.859Z" fill="#FBBF19"/>
<path d="M1193.29 101.605C1195.71 102.03 1196.95 103.253 1196.95 103.253C1196.95 103.253 1195.42 104.098 1192.98 103.861C1190.87 103.573 1190.07 103.177 1190.19 102.331C1190.3 101.485 1191.18 101.318 1193.29 101.605Z" fill="#FBBF19"/>
<path d="M1200.38 108.789C1199.58 106.469 1200.04 104.785 1200.04 104.785C1200.04 104.785 1201.52 105.714 1202.5 107.965C1203.27 109.949 1203.31 110.843 1202.52 111.152C1201.72 111.461 1201.15 110.773 1200.38 108.789Z" fill="#FBBF19"/>
</svg>
