<svg width="129" height="124" viewBox="0 0 129 124" fill="none" xmlns="http://www.w3.org/2000/svg">
<path d="M30.6912 25.5032L28.8994 25.986L29.4989 17.3419L31.6537 16.7613L36.5106 23.9354L34.7188 24.4182L31.0941 18.8505L31.0323 18.8672L30.6912 25.5032ZM29.7417 22.4248L33.974 21.2846L34.3257 22.5898L30.0933 23.73L29.7417 22.4248Z" fill="white"/>
<path d="M55.3703 16.0041L55.4207 7.81368L57.1523 7.82432L57.1108 14.587L60.6221 14.6086L60.6133 16.0363L55.3703 16.0041Z" fill="white"/>
<path d="M84.356 19.3123L89.3454 12.8168L90.7187 13.8717L86.599 19.2349L89.3837 21.3739L88.514 22.5062L84.356 19.3123Z" fill="white"/>
<path d="M8.22025 47.7662L13.2097 41.2707L15.7723 43.2392C16.265 43.6176 16.6124 44.0341 16.8146 44.4887C17.0185 44.9411 17.0838 45.4031 17.0106 45.8748C16.9412 46.3459 16.7409 46.7972 16.4095 47.2285C16.0782 47.6598 15.6928 47.969 15.2534 48.1559C14.814 48.3428 14.347 48.3926 13.8526 48.3054C13.3603 48.2197 12.8647 47.9852 12.3657 47.6019L10.7323 46.3473L11.5777 45.2467L12.989 46.3308C13.2533 46.5339 13.5061 46.6557 13.7472 46.6963C13.992 46.7365 14.2192 46.7076 14.4289 46.6098C14.6423 46.5114 14.831 46.3555 14.995 46.1419C15.1607 45.9263 15.2619 45.7048 15.2986 45.4775C15.3391 45.2497 15.3068 45.0249 15.2016 44.8029C15.098 44.5788 14.9131 44.3644 14.6466 44.1598L13.7205 43.4484L9.59356 48.8211L8.22025 47.7662Z" fill="white"/>
<path d="M5.43803 75.3969L10.4274 68.9014L12.9901 70.8699C13.4806 71.2467 13.8319 71.656 14.0438 72.0979C14.2595 72.5392 14.3357 72.9894 14.2723 73.4484C14.2126 73.9068 14.0179 74.3507 13.6882 74.7799C13.3569 75.2112 12.9788 75.5108 12.554 75.6787C12.1308 75.8445 11.6793 75.8743 11.1995 75.7679C10.7218 75.6633 10.2335 75.4193 9.73451 75.036L8.01866 73.718L8.86647 72.6142L10.3603 73.7617C10.6225 73.9631 10.8679 74.0944 11.0965 74.1557C11.3251 74.217 11.5369 74.2083 11.7319 74.1295C11.9291 74.0523 12.1096 73.9069 12.2737 73.6933C12.4393 73.4777 12.5357 73.2625 12.5627 73.0479C12.5918 72.835 12.5478 72.623 12.4308 72.4121C12.3175 72.2007 12.1287 71.9935 11.8644 71.7904L10.9383 71.0791L6.81134 76.4518L5.43803 75.3969ZM11.2164 75.1354L10.5602 79.3314L9.04415 78.1669L9.73525 73.9977L11.2164 75.1354Z" fill="white"/>
<path d="M27.9447 99.6245C27.4006 100.333 26.8034 100.832 26.1532 101.123C25.5051 101.415 24.8499 101.515 24.1876 101.423C23.529 101.331 22.9132 101.065 22.3402 100.625C21.7629 100.181 21.3456 99.6522 21.0882 99.0376C20.8308 98.423 20.7597 97.7649 20.8749 97.0634C20.9902 96.3619 21.3191 95.658 21.8615 94.9518C22.4056 94.2434 23.0017 93.7432 23.6498 93.4509C24.2979 93.1587 24.9512 93.0587 25.6098 93.1511C26.27 93.2414 26.8888 93.5082 27.466 93.9516C28.039 94.3917 28.4542 94.9191 28.7117 95.5337C28.9728 96.1479 29.0458 96.8057 28.9305 97.5072C28.8174 98.2104 28.4888 98.9161 27.9447 99.6245ZM26.5523 98.5549C26.9048 98.0961 27.1333 97.6564 27.2378 97.2358C27.3445 96.8168 27.3367 96.4309 27.2144 96.078C27.092 95.7252 26.8649 95.4213 26.5329 95.1663C26.201 94.9113 25.8488 94.7702 25.4763 94.743C25.1039 94.7158 24.7279 94.8069 24.3485 95.0164C23.9712 95.2275 23.6063 95.5624 23.2539 96.0213C22.9014 96.4801 22.6719 96.919 22.5652 97.338C22.4606 97.7586 22.4695 98.1453 22.5918 98.4982C22.7142 98.851 22.9413 99.1549 23.2733 99.4099C23.6052 99.6649 23.9574 99.806 24.3299 99.8332C24.7023 99.8604 25.0772 99.7685 25.4545 99.5574C25.834 99.3479 26.1999 99.0138 26.5523 98.5549Z" fill="white"/>
<path d="M52.344 106.676L54.0495 106.822L53.5652 112.512C53.5205 113.038 53.3634 113.485 53.0939 113.853C52.8271 114.221 52.4763 114.492 52.0413 114.666C51.6064 114.84 51.1126 114.904 50.56 114.857C50.0686 114.815 49.6296 114.691 49.2432 114.484C48.8596 114.275 48.5661 113.982 48.3626 113.606C48.1593 113.228 48.0821 112.768 48.1309 112.226L49.8484 112.372C49.8354 112.588 49.8635 112.776 49.9327 112.937C50.0048 113.096 50.1105 113.223 50.2496 113.317C50.3915 113.41 50.5635 113.465 50.7654 113.482C50.9779 113.5 51.1611 113.47 51.3149 113.392C51.4716 113.312 51.596 113.186 51.6882 113.014C51.7804 112.843 51.8376 112.627 51.8597 112.367L52.344 106.676Z" fill="white"/>
<path d="M84.192 113.174L79.5158 106.45L84.0469 103.299L84.862 104.471L81.7526 106.633L82.8669 108.235L85.7432 106.235L86.5583 107.407L83.682 109.408L84.7986 111.013L87.9211 108.842L88.7363 110.014L84.192 113.174Z" fill="white"/>
<path d="M106.676 88.2808L105.238 89.2809C105.082 89.1131 104.914 88.9851 104.732 88.897C104.549 88.8067 104.358 88.7542 104.16 88.7396C103.961 88.725 103.76 88.7482 103.555 88.8092C103.353 88.8686 103.156 88.9653 102.963 89.0993C102.615 89.3413 102.372 89.6386 102.234 89.9911C102.095 90.3415 102.068 90.7303 102.154 91.1576C102.238 91.5827 102.443 92.0284 102.767 92.4946C103.1 92.974 103.452 93.3273 103.821 93.5545C104.192 93.7802 104.565 93.8864 104.939 93.8731C105.313 93.8599 105.669 93.7353 106.008 93.4993C106.199 93.3669 106.358 93.2192 106.485 93.0562C106.614 92.8917 106.708 92.7171 106.768 92.5325C106.827 92.3457 106.849 92.1534 106.835 91.9554C106.823 91.756 106.771 91.5551 106.679 91.3527L108.121 90.3592C108.299 90.6937 108.413 91.0561 108.463 91.4464C108.514 91.8329 108.494 92.2257 108.401 92.6247C108.309 93.02 108.137 93.4028 107.884 93.7731C107.633 94.1397 107.291 94.473 106.86 94.7728C106.26 95.1899 105.63 95.4272 104.968 95.4845C104.309 95.5404 103.663 95.4062 103.032 95.0821C102.403 94.7565 101.834 94.2281 101.326 93.497C100.816 92.7637 100.52 92.044 100.438 91.3378C100.356 90.6316 100.458 89.9794 100.743 89.3814C101.027 88.7812 101.465 88.2756 102.056 87.8646C102.445 87.5936 102.845 87.3972 103.254 87.2752C103.665 87.1518 104.072 87.1053 104.477 87.1358C104.88 87.1641 105.267 87.273 105.639 87.4625C106.013 87.6504 106.359 87.9232 106.676 88.2808Z" fill="white"/>
<path d="M109.488 66.3856L108.145 65.9005L110.43 59.5739L111.773 60.059L110.921 62.4174L117.282 64.7151L116.7 66.325L110.34 64.0272L109.488 66.3856Z" fill="white"/>
<path d="M105.662 34.4986C105.348 34.4191 105.066 34.4631 104.815 34.6306C104.565 34.7981 104.369 35.0774 104.228 35.4686C104.132 35.7344 104.088 35.9724 104.097 36.1826C104.104 36.392 104.155 36.5691 104.25 36.714C104.346 36.8564 104.476 36.9575 104.642 37.0173C104.778 37.0721 104.909 37.0867 105.034 37.0612C105.161 37.0331 105.282 36.9763 105.398 36.8906C105.511 36.804 105.622 36.6967 105.731 36.5687C105.837 36.4398 105.939 36.2981 106.038 36.1437L106.453 35.5114C106.65 35.2026 106.862 34.9304 107.088 34.6948C107.315 34.4593 107.557 34.2717 107.815 34.1322C108.072 33.9928 108.345 33.9114 108.634 33.8883C108.924 33.8626 109.23 33.9065 109.552 34.0199C110.022 34.1928 110.388 34.4608 110.648 34.824C110.906 35.1838 111.05 35.6213 111.079 36.1365C111.107 36.6483 111.008 37.2177 110.781 37.8446C110.556 38.4664 110.265 38.9736 109.908 39.3662C109.552 39.7562 109.14 40.0129 108.673 40.1362C108.205 40.2561 107.691 40.2222 107.132 40.0346L107.702 38.4585C107.966 38.5343 108.209 38.5382 108.429 38.4703C108.647 38.399 108.84 38.2689 109.008 38.0799C109.174 37.8876 109.307 37.651 109.409 37.3701C109.509 37.0943 109.555 36.8403 109.548 36.6082C109.542 36.3736 109.488 36.174 109.386 36.0096C109.284 35.8451 109.14 35.7293 108.954 35.6623C108.781 35.5998 108.617 35.5987 108.462 35.6589C108.308 35.7166 108.154 35.8283 108.001 35.994C107.848 36.1572 107.688 36.367 107.518 36.6234L107.005 37.3861C106.612 37.9785 106.18 38.4021 105.708 38.6568C105.236 38.9116 104.716 38.9349 104.148 38.7267C103.68 38.5607 103.318 38.2894 103.06 37.9127C102.803 37.5335 102.656 37.0879 102.62 36.576C102.584 36.064 102.667 35.5271 102.87 34.9654C103.077 34.3937 103.355 33.93 103.704 33.5744C104.055 33.2162 104.447 32.981 104.882 32.8687C105.317 32.7564 105.765 32.7794 106.226 32.9376L105.662 34.4986Z" fill="white"/>
</svg>
